<svg xmlns="http://www.w3.org/2000/svg" xmlns:xlink="http://www.w3.org/1999/xlink" width="17.528" height="21.025" viewBox="0 0 17.528 21.025">
  <defs>
    <clipPath id="clip-path-android">
      <rect id="Rectangle_7709" data-name="Rectangle 7709" width="17.528" height="21.025" fill="none"/>
    </clipPath>
  </defs>
  <g id="Group_16080" data-name="Group 16080" transform="translate(-126 -572.205)">
    <path id="Path_22604" data-name="Path 22604" d="M127.288,578.314h-.052A1.239,1.239,0,0,0,126,579.55v5.381a1.239,1.239,0,0,0,1.236,1.237h.052a1.239,1.239,0,0,0,1.236-1.237V579.55a1.242,1.242,0,0,0-1.236-1.236Zm0,0" transform="translate(0 0.651)" fill="#fff"/>
    <g id="Group_16079" data-name="Group 16079" transform="translate(126 572.205)">
      <g id="Group_16078" data-name="Group 16078" clip-path="url(#clip-path-android)">
        <path id="Path_22605" data-name="Path 22605" d="M128.816,586.987a1.135,1.135,0,0,0,1.138,1.133h1.214v2.909a1.236,1.236,0,0,0,1.237,1.236h.051a1.239,1.239,0,0,0,1.237-1.236V588.12h1.7v2.909a1.239,1.239,0,0,0,1.236,1.236h.052a1.239,1.239,0,0,0,1.236-1.236V588.12h1.215a1.137,1.137,0,0,0,1.136-1.133v-8.493H128.816Zm0,0" transform="translate(-125.7 -571.534)" fill="#fff"/>
        <path id="Path_22606" data-name="Path 22606" d="M137.4,574.011l.965-1.49a.2.2,0,0,0-.061-.281.2.2,0,0,0-.281.061l-1,1.538a6.608,6.608,0,0,0-4.941,0l-1-1.538a.2.2,0,0,0-.284-.061.2.2,0,0,0-.061.281l.964,1.49a4.886,4.886,0,0,0-2.914,4.3c0,.113.009.225.018.337h11.494c.008-.113.017-.225.017-.337a4.884,4.884,0,0,0-2.914-4.3Zm-5.515,2.664a.551.551,0,1,1,.553-.553.552.552,0,0,1-.553.553Zm5.329,0a.551.551,0,1,1,.553-.553.552.552,0,0,1-.553.553Zm0,0" transform="translate(-125.704 -572.205)" fill="#fff"/>
        <path id="Path_22607" data-name="Path 22607" d="M140.987,578.314h-.052a1.239,1.239,0,0,0-1.236,1.236v5.381a1.242,1.242,0,0,0,1.236,1.237h.052a1.239,1.239,0,0,0,1.236-1.237V579.55a1.241,1.241,0,0,0-1.236-1.236Zm0,0" transform="translate(-124.54 -571.554)" fill="#fff"/>
      </g>
    </g>
  </g>
</svg>
