<svg xmlns="http://www.w3.org/2000/svg" xmlns:xlink="http://www.w3.org/1999/xlink" width="71.326" height="76.663" viewBox="0 0 71.326 76.663">
  <defs>
    <filter id="Path_26052" x="0" y="0" width="71.326" height="76.663" filterUnits="userSpaceOnUse">
      <feOffset dx="2" dy="3" input="SourceAlpha"/>
      <feGaussianBlur stdDeviation="3" result="blur"/>
      <feFlood flood-color="#d82762" flood-opacity="0.2"/>
      <feComposite operator="in" in2="blur"/>
      <feComposite in="SourceGraphic"/>
    </filter>
    <filter id="Path_26053" x="12.504" y="12.504" width="46.32" height="51.656" filterUnits="userSpaceOnUse">
      <feOffset dx="2" dy="3" input="SourceAlpha"/>
      <feGaussianBlur stdDeviation="1.5" result="blur-2"/>
      <feFlood flood-color="#d82762" flood-opacity="0.302"/>
      <feComposite operator="in" in2="blur-2"/>
      <feComposite in="SourceGraphic"/>
    </filter>
    <clipPath id="clip-path">
      <path id="Path_26059" data-name="Path 26059" d="M-334.721,623.492v20.6a.858.858,0,0,0,.427.742l17.776,10.3a.851.851,0,0,0,.853,0l17.776-10.3a.858.858,0,0,0,.427-.742v-20.6a.857.857,0,0,0-.427-.742l-17.776-10.3a.852.852,0,0,0-.853,0l-17.776,10.3A.858.858,0,0,0-334.721,623.492Z" transform="translate(334.721 -612.337)" fill="none"/>
    </clipPath>
  </defs>
  <g id="ic_agenunggulan_48px" transform="translate(1.664 3.333)">
    <g transform="matrix(1, 0, 0, 1, -1.66, -3.33)" filter="url(#Path_26052)">
      <path id="Path_26052-2" data-name="Path 26052" d="M-347.027,613.25v28.419a.905.905,0,0,0,.476.79l25.711,14.21a.989.989,0,0,0,.953,0l25.71-14.21a.9.9,0,0,0,.476-.79V613.25a.906.906,0,0,0-.476-.79l-25.71-14.21a.991.991,0,0,0-.953,0l-25.711,14.21A.906.906,0,0,0-347.027,613.25Z" transform="translate(354.03 -592.13)" fill="#ffe3ec"/>
    </g>
    <g transform="matrix(1, 0, 0, 1, -1.66, -3.33)" filter="url(#Path_26053)">
      <path id="Path_26053-2" data-name="Path 26053" d="M-334.721,623.427V643.9a.851.851,0,0,0,.428.737l17.805,10.238a.858.858,0,0,0,.855,0l17.8-10.238a.851.851,0,0,0,.427-.737V623.427a.851.851,0,0,0-.427-.737l-17.8-10.238a.858.858,0,0,0-.855,0l-17.805,10.238A.851.851,0,0,0-334.721,623.427Z" transform="translate(349.72 -598.33)" fill="#d82762"/>
    </g>
    <g id="Group_15039" data-name="Group 15039" transform="translate(13.325 10.657)">
      <g id="Group_15038" data-name="Group 15038" transform="translate(0 0)" clip-path="url(#clip-path)">
        <g id="Group_15037" data-name="Group 15037" transform="translate(-15.716 -1.946)">
          <path id="Path_26054" data-name="Path 26054" d="M-300.528,607.8h-12.489a357.011,357.011,0,0,1,9.367,34.463,356.848,356.848,0,0,1,9.367-34.463Z" transform="translate(337.995 -607.795)" fill="#f484b2" opacity="0.2"/>
          <path id="Path_26055" data-name="Path 26055" d="M-262.968,607.8q-17.809,20.669-28.1,34.463a358.642,358.642,0,0,0,34.345-21.931V607.8Z" transform="translate(325.413 -607.795)" fill="#f484b2" opacity="0.2"/>
          <path id="Path_26056" data-name="Path 26056" d="M-291.068,684.089a297.1,297.1,0,0,1,34.345,15.665v-18.8Q-273.939,682.86-291.068,684.089Z" transform="translate(325.413 -649.626)" fill="#f484b2" opacity="0.2"/>
          <path id="Path_26057" data-name="Path 26057" d="M-371.546,680.956v18.8A297.066,297.066,0,0,1-337.2,684.089Q-354.33,682.86-371.546,680.956Z" transform="translate(371.546 -649.626)" fill="#f484b2" opacity="0.2"/>
          <path id="Path_26058" data-name="Path 26058" d="M-365.3,607.8h-6.245v12.532A358.6,358.6,0,0,0-337.2,642.258Q-347.492,628.464-365.3,607.8Z" transform="translate(371.546 -607.795)" fill="#f484b2" opacity="0.2"/>
        </g>
      </g>
    </g>
    <g id="HP_Unggulan" data-name="HP Unggulan" transform="translate(19.994 8.003)">
      <g id="Group_15054" data-name="Group 15054" transform="translate(0 0)">
        <g id="Group_15045" data-name="Group 15045" transform="translate(0.519 0.519)">
          <rect id="Rectangle_6559" data-name="Rectangle 6559" width="22.968" height="47.778" rx="6" fill="#fff"/>
          <g id="Group_15040" data-name="Group 15040" transform="translate(0 4.361)">
            <rect id="Rectangle_6560" data-name="Rectangle 6560" width="22.968" height="39.061" fill="#2384dd"/>
          </g>
          <g id="Group_15041" data-name="Group 15041" transform="translate(8.39 1.865)">
            <path id="Path_26060" data-name="Path 26060" d="M-291.659,615.355h-5.119a.25.25,0,0,1-.25-.25h0a.249.249,0,0,1,.25-.25h5.119a.249.249,0,0,1,.25.25h0A.249.249,0,0,1-291.659,615.355Z" transform="translate(297.028 -614.855)" fill="#161922"/>
          </g>
          <g id="Group_15042" data-name="Group 15042" transform="translate(8.988 45.235)" opacity="0.73">
            <rect id="Rectangle_6561" data-name="Rectangle 6561" width="4.993" height="0.513" rx="0.257" fill="#161922"/>
          </g>
          <g id="Group_15043" data-name="Group 15043" transform="translate(14.829 1.524)">
            <path id="Path_26061" data-name="Path 26061" d="M-283.576,614.721a.521.521,0,0,1-.153.37.524.524,0,0,1-.37.153.523.523,0,0,1-.37-.153.521.521,0,0,1-.153-.37.521.521,0,0,1,.153-.37.521.521,0,0,1,.37-.153A.523.523,0,0,1-283.576,614.721Z" transform="translate(284.622 -614.198)" fill="#bcbdc2"/>
            <path id="Path_26062" data-name="Path 26062" d="M-284.468,614.351a.522.522,0,0,1,.37-.153.519.519,0,0,1,.52.515v.007a.5.5,0,0,1-.063.228.536.536,0,0,1-.1.125.552.552,0,0,1-.2.125.547.547,0,0,1-.168.03.527.527,0,0,1-.215-.042.5.5,0,0,1-.125-.077l0,0-.02-.018a.512.512,0,0,1-.106-.158.517.517,0,0,1-.043-.212A.517.517,0,0,1-284.468,614.351Z" transform="translate(284.621 -614.198)" fill="#bbbcc1"/>
            <path id="Path_26063" data-name="Path 26063" d="M-284.467,614.351a.521.521,0,0,1,.37-.153.516.516,0,0,1,.516.506v.007a.483.483,0,0,1-.067.221.531.531,0,0,1-.1.122.569.569,0,0,1-.2.124.542.542,0,0,1-.167.032.529.529,0,0,1-.213-.036.491.491,0,0,1-.122-.072l0,0-.019-.017a.515.515,0,0,1-.1-.159.522.522,0,0,1-.041-.212A.515.515,0,0,1-284.467,614.351Z" transform="translate(284.62 -614.198)" fill="#babbc0"/>
            <path id="Path_26064" data-name="Path 26064" d="M-284.466,614.351a.521.521,0,0,1,.37-.153.512.512,0,0,1,.513.5v.007a.467.467,0,0,1-.071.214.582.582,0,0,1-.1.119.6.6,0,0,1-.2.123.582.582,0,0,1-.166.034.531.531,0,0,1-.211-.031.463.463,0,0,1-.12-.066l0,0-.019-.016a.522.522,0,0,1-.1-.159.525.525,0,0,1-.039-.212A.514.514,0,0,1-284.466,614.351Z" transform="translate(284.619 -614.198)" fill="#b9babf"/>
            <path id="Path_26065" data-name="Path 26065" d="M-284.465,614.351a.521.521,0,0,1,.37-.153.508.508,0,0,1,.51.489v.007a.464.464,0,0,1-.076.207.59.59,0,0,1-.1.117.629.629,0,0,1-.2.123.6.6,0,0,1-.165.036.525.525,0,0,1-.208-.024.463.463,0,0,1-.118-.061l0,0-.019-.015a.512.512,0,0,1-.1-.16.523.523,0,0,1-.037-.211A.511.511,0,0,1-284.465,614.351Z" transform="translate(284.618 -614.198)" fill="#b8b9bf"/>
            <path id="Path_26066" data-name="Path 26066" d="M-284.465,614.351a.521.521,0,0,1,.37-.153.505.505,0,0,1,.507.481v.007a.456.456,0,0,1-.079.2.64.64,0,0,1-.1.114.661.661,0,0,1-.2.122.622.622,0,0,1-.164.038.528.528,0,0,1-.205-.019.416.416,0,0,1-.115-.055l0,0-.018-.014a.509.509,0,0,1-.1-.16.544.544,0,0,1-.035-.211A.512.512,0,0,1-284.465,614.351Z" transform="translate(284.618 -614.198)" fill="#b7b9be"/>
            <path id="Path_26067" data-name="Path 26067" d="M-284.464,614.351a.521.521,0,0,1,.37-.153.5.5,0,0,1,.5.473v.006a.444.444,0,0,1-.083.193.676.676,0,0,1-.1.111.691.691,0,0,1-.2.121.648.648,0,0,1-.163.041.539.539,0,0,1-.2-.013.388.388,0,0,1-.113-.05l0,0-.018-.013a.514.514,0,0,1-.1-.161.541.541,0,0,1-.033-.211A.508.508,0,0,1-284.464,614.351Z" transform="translate(284.617 -614.198)" fill="#b6b8bd"/>
            <path id="Path_26068" data-name="Path 26068" d="M-284.463,614.351a.522.522,0,0,1,.37-.153.5.5,0,0,1,.5.465l0,.006a.432.432,0,0,1-.087.185.687.687,0,0,1-.1.109.753.753,0,0,1-.2.121.669.669,0,0,1-.161.042.544.544,0,0,1-.2-.008.379.379,0,0,1-.111-.045l0,0-.017-.012a.5.5,0,0,1-.1-.161.545.545,0,0,1-.031-.211A.508.508,0,0,1-284.463,614.351Z" transform="translate(284.616 -614.198)" fill="#b5b7bc"/>
            <path id="Path_26069" data-name="Path 26069" d="M-284.462,614.351a.522.522,0,0,1,.37-.153.5.5,0,0,1,.5.456v.006a.443.443,0,0,1-.091.178.762.762,0,0,1-.105.106.785.785,0,0,1-.2.12.72.72,0,0,1-.16.045.582.582,0,0,1-.2,0,.367.367,0,0,1-.108-.04l0,0-.017-.01a.511.511,0,0,1-.094-.162.537.537,0,0,1-.029-.211A.5.5,0,0,1-284.462,614.351Z" transform="translate(284.616 -614.198)" fill="#b4b6bb"/>
            <path id="Path_26070" data-name="Path 26070" d="M-284.462,614.351a.522.522,0,0,1,.37-.153.493.493,0,0,1,.493.447l0,.006a.428.428,0,0,1-.1.171.751.751,0,0,1-.107.1.849.849,0,0,1-.2.12.761.761,0,0,1-.159.047.6.6,0,0,1-.2,0,.38.38,0,0,1-.106-.034l0,0-.017-.009a.507.507,0,0,1-.092-.162.536.536,0,0,1-.027-.211A.5.5,0,0,1-284.462,614.351Z" transform="translate(284.615 -614.198)" fill="#b3b5ba"/>
            <path id="Path_26071" data-name="Path 26071" d="M-284.461,614.351a.522.522,0,0,1,.37-.153.489.489,0,0,1,.489.439l0,.006a.43.43,0,0,1-.1.164.8.8,0,0,1-.108.1.889.889,0,0,1-.2.119.766.766,0,0,1-.158.049.611.611,0,0,1-.192.01.352.352,0,0,1-.1-.029l0,0-.017-.008a.5.5,0,0,1-.09-.163.537.537,0,0,1-.025-.21A.5.5,0,0,1-284.461,614.351Z" transform="translate(284.614 -614.198)" fill="#b2b4ba"/>
            <path id="Path_26072" data-name="Path 26072" d="M-284.461,614.351a.522.522,0,0,1,.37-.153.486.486,0,0,1,.486.431l0,.006a.437.437,0,0,1-.1.157.95.95,0,0,1-.11.1.985.985,0,0,1-.2.118.882.882,0,0,1-.157.051.652.652,0,0,1-.189.016.364.364,0,0,1-.1-.023l0,0-.016-.007a.5.5,0,0,1-.089-.163.552.552,0,0,1-.023-.21A.5.5,0,0,1-284.461,614.351Z" transform="translate(284.614 -614.198)" fill="#b1b3b9"/>
            <path id="Path_26073" data-name="Path 26073" d="M-284.46,614.351a.522.522,0,0,1,.37-.153.483.483,0,0,1,.483.422l0,.005a.453.453,0,0,1-.107.15.982.982,0,0,1-.111.1,1.123,1.123,0,0,1-.2.118.906.906,0,0,1-.156.053.69.69,0,0,1-.187.021.343.343,0,0,1-.1-.018h0l-.015-.006a.5.5,0,0,1-.087-.164.546.546,0,0,1-.021-.21A.5.5,0,0,1-284.46,614.351Z" transform="translate(284.613 -614.198)" fill="#b0b2b8"/>
            <path id="Path_26074" data-name="Path 26074" d="M-284.46,614.351a.521.521,0,0,1,.37-.153.48.48,0,0,1,.48.414l0,.005a.48.48,0,0,1-.111.142,1.034,1.034,0,0,1-.113.093,1.193,1.193,0,0,1-.2.117.975.975,0,0,1-.155.055.755.755,0,0,1-.184.027.363.363,0,0,1-.1-.012h0l-.015-.005a.5.5,0,0,1-.085-.164.56.56,0,0,1-.019-.21A.5.5,0,0,1-284.46,614.351Z" transform="translate(284.613 -614.198)" fill="#afb2b7"/>
            <path id="Path_26075" data-name="Path 26075" d="M-284.459,614.351a.522.522,0,0,1,.37-.153.478.478,0,0,1,.476.406l0,0a.487.487,0,0,1-.115.136,1.131,1.131,0,0,1-.114.09,1.387,1.387,0,0,1-.205.117,1.118,1.118,0,0,1-.154.057.862.862,0,0,1-.182.033.411.411,0,0,1-.1-.008h0l-.014,0a.5.5,0,0,1-.084-.165.557.557,0,0,1-.017-.209A.5.5,0,0,1-284.459,614.351Z" transform="translate(284.612 -614.198)" fill="#aeb1b6"/>
            <path id="Path_26076" data-name="Path 26076" d="M-284.459,614.351a.521.521,0,0,1,.37-.153.475.475,0,0,1,.473.4l0,0a.534.534,0,0,1-.119.128,1.3,1.3,0,0,1-.116.088,1.5,1.5,0,0,1-.206.116,1.184,1.184,0,0,1-.153.059.863.863,0,0,1-.179.038.4.4,0,0,1-.093,0h0l-.015,0a.5.5,0,0,1-.081-.165.545.545,0,0,1-.015-.21A.491.491,0,0,1-284.459,614.351Z" transform="translate(284.612 -614.198)" fill="#adb0b5"/>
            <path id="Path_26077" data-name="Path 26077" d="M-284.459,614.351a.522.522,0,0,1,.37-.153.473.473,0,0,1,.47.389l0,0a.6.6,0,0,1-.123.121c-.036.028-.075.057-.117.085a1.8,1.8,0,0,1-.206.115,1.363,1.363,0,0,1-.151.061,1.014,1.014,0,0,1-.176.044.479.479,0,0,1-.091,0h-.017a.514.514,0,0,1-.08-.166.563.563,0,0,1-.012-.209A.488.488,0,0,1-284.459,614.351Z" transform="translate(284.612 -614.198)" fill="#acafb5"/>
            <path id="Path_26078" data-name="Path 26078" d="M-284.458,614.351a.522.522,0,0,1,.37-.153.47.47,0,0,1,.466.38l0,0a.641.641,0,0,1-.127.114c-.036.028-.076.056-.119.083a2.02,2.02,0,0,1-.206.115,1.506,1.506,0,0,1-.15.064,1.185,1.185,0,0,1-.174.049.493.493,0,0,1-.089.009h-.016a.51.51,0,0,1-.079-.167.567.567,0,0,1-.01-.209A.489.489,0,0,1-284.458,614.351Z" transform="translate(284.611 -614.198)" fill="#abaeb4"/>
            <path id="Path_26079" data-name="Path 26079" d="M-284.458,614.351a.521.521,0,0,1,.37-.153.469.469,0,0,1,.463.372l0,0a.783.783,0,0,1-.131.106c-.037.026-.077.054-.12.08-.065.04-.135.079-.207.114-.05.025-.1.047-.149.065a1.488,1.488,0,0,1-.171.056.725.725,0,0,1-.086.015h-.016a.511.511,0,0,1-.077-.168.575.575,0,0,1-.009-.208A.49.49,0,0,1-284.458,614.351Z" transform="translate(284.611 -614.198)" fill="#aaadb3"/>
            <path id="Path_26080" data-name="Path 26080" d="M-284.458,614.351a.521.521,0,0,1,.37-.153.466.466,0,0,1,.459.364l0,0a.956.956,0,0,1-.135.1c-.038.025-.078.052-.121.077-.066.039-.136.078-.207.113-.05.025-.1.048-.148.068s-.12.047-.168.061a.625.625,0,0,1-.084.02h0l-.012,0a.519.519,0,0,1-.075-.168.578.578,0,0,1-.007-.209A.488.488,0,0,1-284.458,614.351Z" transform="translate(284.611 -614.198)" fill="#a9acb2"/>
            <path id="Path_26081" data-name="Path 26081" d="M-284.458,614.351a.521.521,0,0,1,.37-.153.465.465,0,0,1,.456.355l0,0a1.478,1.478,0,0,1-.139.092l-.123.075c-.066.038-.137.077-.207.112-.05.025-.1.049-.147.07-.063.027-.119.05-.166.067-.032.011-.059.019-.082.025h0l-.013,0a.516.516,0,0,1-.073-.168.571.571,0,0,1,0-.208A.485.485,0,0,1-284.458,614.351Z" transform="translate(284.611 -614.198)" fill="#a8abb1"/>
            <path id="Path_26082" data-name="Path 26082" d="M-284.458,614.351a.521.521,0,0,1,.37-.153.463.463,0,0,1,.453.347l0,0c-.033.022-.082.05-.143.085l-.125.072c-.066.038-.137.076-.207.112-.049.026-.1.05-.146.072-.062.028-.117.053-.164.073l-.079.03h0l-.012,0a.51.51,0,0,1-.072-.169.574.574,0,0,1,0-.208A.485.485,0,0,1-284.458,614.351Z" transform="translate(284.611 -614.198)" fill="#a7aab0"/>
            <path id="Path_26083" data-name="Path 26083" d="M-284.458,614.351a.521.521,0,0,1,.37-.153.461.461,0,0,1,.45.339l0,0c-.034.02-.085.045-.147.078l-.126.07-.208.111c-.049.026-.1.051-.145.074l-.16.078-.078.036,0,0-.011,0a.508.508,0,0,1-.07-.169.571.571,0,0,1,0-.208A.483.483,0,0,1-284.458,614.351Z" transform="translate(284.611 -614.198)" fill="#a7aab0"/>
            <path id="Path_26084" data-name="Path 26084" d="M-284.458,614.351a.521.521,0,0,1,.37-.153.46.46,0,0,1,.446.331l0,0c-.036.017-.088.039-.151.071-.041.02-.084.044-.128.067l-.208.11-.144.076-.158.084-.075.041h0l-.011.006a.509.509,0,0,1-.068-.17.585.585,0,0,1,0-.208A.482.482,0,0,1-284.458,614.351Z" transform="translate(284.611 -614.198)" fill="#a6a9af"/>
            <path id="Path_26085" data-name="Path 26085" d="M-284.458,614.351a.522.522,0,0,1,.37-.153.459.459,0,0,1,.443.322l0,0c-.037.014-.09.035-.155.064-.041.019-.084.042-.129.064l-.209.111-.142.078c-.06.033-.112.064-.156.09-.028.018-.053.033-.073.047l0,0-.01.007a.508.508,0,0,1-.066-.17.582.582,0,0,1,0-.208A.483.483,0,0,1-284.458,614.351Z" transform="translate(284.611 -614.198)" fill="#a5a8ae"/>
            <path id="Path_26086" data-name="Path 26086" d="M-284.458,614.351a.521.521,0,0,1,.37-.153.459.459,0,0,1,.44.314l0,0a1.376,1.376,0,0,0-.159.057c-.042.018-.086.039-.131.061-.069.034-.14.071-.209.11-.048.026-.1.054-.141.08s-.111.066-.153.1a.827.827,0,0,0-.071.052l0,0-.01.008a.525.525,0,0,1-.064-.171.578.578,0,0,1,.005-.207A.483.483,0,0,1-284.458,614.351Z" transform="translate(284.611 -614.198)" fill="#a4a7ad"/>
            <path id="Path_26087" data-name="Path 26087" d="M-284.458,614.351a.521.521,0,0,1,.37-.153.457.457,0,0,1,.436.305l0,0a.94.94,0,0,0-.163.049c-.043.017-.087.037-.132.059-.07.033-.14.071-.209.109-.048.028-.1.055-.14.083a1.622,1.622,0,0,0-.15.1.658.658,0,0,0-.068.057l0,0-.01.009a.5.5,0,0,1-.063-.171.583.583,0,0,1,.007-.207A.483.483,0,0,1-284.458,614.351Z" transform="translate(284.611 -614.198)" fill="#a3a6ac"/>
            <path id="Path_26088" data-name="Path 26088" d="M-284.459,614.351a.522.522,0,0,1,.37-.153.458.458,0,0,1,.433.3l0,0a.825.825,0,0,0-.167.042c-.043.016-.088.035-.133.057-.07.032-.141.07-.209.109-.048.028-.1.056-.139.084a1.459,1.459,0,0,0-.148.107.546.546,0,0,0-.066.063l0,0-.009.01a.5.5,0,0,1-.061-.173.577.577,0,0,1,.009-.206A.481.481,0,0,1-284.459,614.351Z" transform="translate(284.612 -614.198)" fill="#a2a5ab"/>
            <path id="Path_26089" data-name="Path 26089" d="M-284.459,614.351a.521.521,0,0,1,.37-.153.456.456,0,0,1,.429.289l0,0a.653.653,0,0,0-.171.035c-.044.015-.089.033-.135.054a2.256,2.256,0,0,0-.21.108c-.048.028-.094.057-.138.087a1.177,1.177,0,0,0-.145.113.484.484,0,0,0-.064.068l0,0-.009.011a.517.517,0,0,1-.059-.172.576.576,0,0,1,.012-.207A.476.476,0,0,1-284.459,614.351Z" transform="translate(284.612 -614.198)" fill="#a1a4ab"/>
            <path id="Path_26090" data-name="Path 26090" d="M-284.459,614.351a.521.521,0,0,1,.37-.153.458.458,0,0,1,.426.28l0,0a.6.6,0,0,0-.175.028,1.338,1.338,0,0,0-.137.051,1.939,1.939,0,0,0-.21.107c-.048.028-.094.058-.137.089a1.084,1.084,0,0,0-.142.118.492.492,0,0,0-.062.074l0,0-.008.013a.518.518,0,0,1-.058-.173.559.559,0,0,1,.013-.206A.477.477,0,0,1-284.459,614.351Z" transform="translate(284.613 -614.198)" fill="#a0a3aa"/>
            <path id="Path_26091" data-name="Path 26091" d="M-284.46,614.351a.521.521,0,0,1,.37-.153.458.458,0,0,1,.423.272l0,0a.522.522,0,0,0-.178.021,1.113,1.113,0,0,0-.138.048,1.64,1.64,0,0,0-.21.107c-.048.029-.094.06-.136.091a.961.961,0,0,0-.139.124.451.451,0,0,0-.06.079l0,0-.008.013a.515.515,0,0,1-.055-.173.581.581,0,0,1,.015-.206A.483.483,0,0,1-284.46,614.351Z" transform="translate(284.613 -614.198)" fill="#9fa2a9"/>
            <path id="Path_26092" data-name="Path 26092" d="M-284.46,614.351a.521.521,0,0,1,.37-.153.459.459,0,0,1,.419.264l0,0a.486.486,0,0,0-.183.014,1,1,0,0,0-.14.045,1.391,1.391,0,0,0-.211.106,1.454,1.454,0,0,0-.135.092.863.863,0,0,0-.137.13.489.489,0,0,0-.058.084l0,0-.008.015a.506.506,0,0,1-.054-.174.57.57,0,0,1,.017-.206A.482.482,0,0,1-284.46,614.351Z" transform="translate(284.613 -614.198)" fill="#9ea2a8"/>
            <path id="Path_26093" data-name="Path 26093" d="M-284.461,614.351a.521.521,0,0,1,.37-.153.46.46,0,0,1,.416.255l-.005,0a.479.479,0,0,0-.187.006,1,1,0,0,0-.141.043,1.311,1.311,0,0,0-.211.105,1.356,1.356,0,0,0-.133.095.791.791,0,0,0-.134.135.478.478,0,0,0-.055.089l0,0-.007.016a.5.5,0,0,1-.052-.174.568.568,0,0,1,.019-.206A.484.484,0,0,1-284.461,614.351Z" transform="translate(284.614 -614.198)" fill="#9da1a7"/>
            <path id="Path_26094" data-name="Path 26094" d="M-284.461,614.351a.522.522,0,0,1,.37-.153.463.463,0,0,1,.413.247l-.005,0a.449.449,0,0,0-.19,0,.836.836,0,0,0-.142.04,1.114,1.114,0,0,0-.212.1,1.174,1.174,0,0,0-.132.1.745.745,0,0,0-.131.141.468.468,0,0,0-.053.094l0,0-.007.017a.513.513,0,0,1-.05-.175.562.562,0,0,1,.021-.206A.486.486,0,0,1-284.461,614.351Z" transform="translate(284.614 -614.198)" fill="#9ca0a6"/>
            <path id="Path_26095" data-name="Path 26095" d="M-284.462,614.351a.521.521,0,0,1,.37-.153.465.465,0,0,1,.409.239l-.006,0a.438.438,0,0,0-.195-.008.831.831,0,0,0-.144.038,1.05,1.05,0,0,0-.212.1,1.1,1.1,0,0,0-.131.1.739.739,0,0,0-.129.147.479.479,0,0,0-.051.1l0,0-.006.018a.512.512,0,0,1-.049-.175.568.568,0,0,1,.023-.205A.485.485,0,0,1-284.462,614.351Z" transform="translate(284.615 -614.198)" fill="#9b9fa6"/>
            <path id="Path_26096" data-name="Path 26096" d="M-284.462,614.351a.521.521,0,0,1,.37-.153.467.467,0,0,1,.406.23l-.005,0a.433.433,0,0,0-.2-.015.769.769,0,0,0-.145.035,1,1,0,0,0-.212.1.979.979,0,0,0-.13.1.7.7,0,0,0-.127.153.479.479,0,0,0-.048.105l0,0-.006.019a.528.528,0,0,1-.047-.176.559.559,0,0,1,.025-.205A.484.484,0,0,1-284.462,614.351Z" transform="translate(284.616 -614.198)" fill="#9a9ea5"/>
            <path id="Path_26097" data-name="Path 26097" d="M-284.463,614.351a.522.522,0,0,1,.37-.153.472.472,0,0,1,.4.221l-.006,0a.42.42,0,0,0-.2-.022.713.713,0,0,0-.147.032.878.878,0,0,0-.212.1.9.9,0,0,0-.129.1.683.683,0,0,0-.123.158.5.5,0,0,0-.047.111v0c0,.007,0,.013-.006.02a.507.507,0,0,1-.045-.176.55.55,0,0,1,.027-.205A.489.489,0,0,1-284.463,614.351Z" transform="translate(284.616 -614.198)" fill="#999da4"/>
            <path id="Path_26098" data-name="Path 26098" d="M-284.464,614.351a.522.522,0,0,1,.37-.153.476.476,0,0,1,.4.213h-.006a.431.431,0,0,0-.207-.03.732.732,0,0,0-.148.03.827.827,0,0,0-.213.1.808.808,0,0,0-.128.106.659.659,0,0,0-.121.164.536.536,0,0,0-.044.116v.005a.131.131,0,0,0-.005.021.5.5,0,0,1-.044-.177.56.56,0,0,1,.029-.2A.489.489,0,0,1-284.464,614.351Z" transform="translate(284.617 -614.198)" fill="#989ca3"/>
            <path id="Path_26099" data-name="Path 26099" d="M-284.465,614.351a.522.522,0,0,1,.37-.153.48.48,0,0,1,.4.205l-.006,0a.418.418,0,0,0-.21-.037.681.681,0,0,0-.15.028.756.756,0,0,0-.213.1.777.777,0,0,0-.127.107.67.67,0,0,0-.119.17.543.543,0,0,0-.042.121v.005c0,.007,0,.015-.005.022a.518.518,0,0,1-.042-.177.548.548,0,0,1,.031-.2A.5.5,0,0,1-284.465,614.351Z" transform="translate(284.618 -614.198)" fill="#979ba2"/>
            <path id="Path_26100" data-name="Path 26100" d="M-284.465,614.351a.521.521,0,0,1,.37-.153.486.486,0,0,1,.392.2h-.006a.435.435,0,0,0-.215-.044.68.68,0,0,0-.151.025.729.729,0,0,0-.213.1.736.736,0,0,0-.126.109.649.649,0,0,0-.116.175.581.581,0,0,0-.04.127v.005c0,.008,0,.016,0,.024a.511.511,0,0,1-.04-.179.549.549,0,0,1,.033-.2A.5.5,0,0,1-284.465,614.351Z" transform="translate(284.618 -614.198)" fill="#969ba1"/>
            <path id="Path_26101" data-name="Path 26101" d="M-284.466,614.351a.521.521,0,0,1,.37-.153.493.493,0,0,1,.389.188h-.006a.431.431,0,0,0-.219-.051.626.626,0,0,0-.153.022.686.686,0,0,0-.214.1.72.72,0,0,0-.124.111.643.643,0,0,0-.113.182.6.6,0,0,0-.037.132v.006c0,.008,0,.016,0,.025a.525.525,0,0,1-.038-.179.543.543,0,0,1,.035-.2A.5.5,0,0,1-284.466,614.351Z" transform="translate(284.619 -614.198)" fill="#959aa1"/>
            <path id="Path_26102" data-name="Path 26102" d="M-284.467,614.351a.521.521,0,0,1,.37-.153.5.5,0,0,1,.386.18h-.007a.44.44,0,0,0-.222-.059.617.617,0,0,0-.154.02.651.651,0,0,0-.214.1.7.7,0,0,0-.123.114.653.653,0,0,0-.111.187.614.614,0,0,0-.035.138v.006c0,.009,0,.017,0,.026a.528.528,0,0,1-.036-.179.534.534,0,0,1,.037-.2A.5.5,0,0,1-284.467,614.351Z" transform="translate(284.62 -614.198)" fill="#9499a0"/>
            <path id="Path_26103" data-name="Path 26103" d="M-284.468,614.351a.522.522,0,0,1,.37-.153.51.51,0,0,1,.382.172h-.007a.447.447,0,0,0-.226-.065.6.6,0,0,0-.156.017.605.605,0,0,0-.214.1.632.632,0,0,0-.122.116.644.644,0,0,0-.108.193.648.648,0,0,0-.033.143v.006c0,.009,0,.018,0,.026a.522.522,0,0,1-.035-.18.528.528,0,0,1,.039-.2A.514.514,0,0,1-284.468,614.351Z" transform="translate(284.621 -614.198)" fill="#93989f"/>
            <path id="Path_26104" data-name="Path 26104" d="M-284.586,614.874v-.006a.725.725,0,0,1,.031-.149.64.64,0,0,1,.226-.316.583.583,0,0,1,.372-.112.454.454,0,0,1,.23.073h.007a.521.521,0,0,0-.379-.163.521.521,0,0,0-.37.153.515.515,0,0,0-.112.166.521.521,0,0,0-.041.2.521.521,0,0,0,.033.181C-284.588,614.892-284.587,614.883-284.586,614.874Z" transform="translate(284.622 -614.198)" fill="#92979e"/>
          </g>
          <g id="Group_15044" data-name="Group 15044" transform="translate(15.141 1.827)">
            <ellipse id="Ellipse_1521" data-name="Ellipse 1521" cx="0.215" cy="0.215" rx="0.215" ry="0.215" fill="#878b92"/>
            <ellipse id="Ellipse_1522" data-name="Ellipse 1522" cx="0.215" cy="0.215" rx="0.215" ry="0.215" transform="translate(0.001 0.001)" fill="#888c93"/>
            <ellipse id="Ellipse_1523" data-name="Ellipse 1523" cx="0.214" cy="0.214" rx="0.214" ry="0.214" transform="translate(0.002 0.001)" fill="#898d94"/>
            <ellipse id="Ellipse_1524" data-name="Ellipse 1524" cx="0.213" cy="0.213" rx="0.213" ry="0.213" transform="translate(0.003 0.002)" fill="#8a8f96"/>
            <ellipse id="Ellipse_1525" data-name="Ellipse 1525" cx="0.212" cy="0.212" rx="0.212" ry="0.212" transform="translate(0.003 0.003)" fill="#8b9097"/>
            <ellipse id="Ellipse_1526" data-name="Ellipse 1526" cx="0.212" cy="0.212" rx="0.212" ry="0.212" transform="translate(0.004 0.004)" fill="#8c9198"/>
            <ellipse id="Ellipse_1527" data-name="Ellipse 1527" cx="0.211" cy="0.211" rx="0.211" ry="0.211" transform="translate(0.005 0.004)" fill="#8e9299"/>
            <ellipse id="Ellipse_1528" data-name="Ellipse 1528" cx="0.21" cy="0.21" rx="0.21" ry="0.21" transform="translate(0.006 0.005)" fill="#8f939b"/>
            <ellipse id="Ellipse_1529" data-name="Ellipse 1529" cx="0.209" cy="0.209" rx="0.209" ry="0.209" transform="translate(0.007 0.006)" fill="#90949c"/>
            <ellipse id="Ellipse_1530" data-name="Ellipse 1530" cx="0.208" cy="0.208" rx="0.208" ry="0.208" transform="translate(0.008 0.007)" fill="#91969d"/>
            <ellipse id="Ellipse_1531" data-name="Ellipse 1531" cx="0.208" cy="0.208" rx="0.208" ry="0.208" transform="translate(0.008 0.007)" fill="#92979e"/>
            <ellipse id="Ellipse_1532" data-name="Ellipse 1532" cx="0.207" cy="0.207" rx="0.207" ry="0.207" transform="translate(0.009 0.008)" fill="#93989f"/>
            <ellipse id="Ellipse_1533" data-name="Ellipse 1533" cx="0.206" cy="0.206" rx="0.206" ry="0.206" transform="translate(0.01 0.009)" fill="#9499a1"/>
            <ellipse id="Ellipse_1534" data-name="Ellipse 1534" cx="0.205" cy="0.205" rx="0.205" ry="0.205" transform="translate(0.011 0.01)" fill="#959aa2"/>
            <ellipse id="Ellipse_1535" data-name="Ellipse 1535" cx="0.204" cy="0.204" rx="0.204" ry="0.204" transform="translate(0.012 0.01)" fill="#969ca3"/>
            <ellipse id="Ellipse_1536" data-name="Ellipse 1536" cx="0.204" cy="0.204" rx="0.204" ry="0.204" transform="translate(0.013 0.011)" fill="#979da4"/>
            <ellipse id="Ellipse_1537" data-name="Ellipse 1537" cx="0.203" cy="0.203" rx="0.203" ry="0.203" transform="translate(0.013 0.012)" fill="#989ea5"/>
            <ellipse id="Ellipse_1538" data-name="Ellipse 1538" cx="0.202" cy="0.202" rx="0.202" ry="0.202" transform="translate(0.014 0.013)" fill="#999fa7"/>
            <ellipse id="Ellipse_1539" data-name="Ellipse 1539" cx="0.201" cy="0.201" rx="0.201" ry="0.201" transform="translate(0.015 0.013)" fill="#9ba0a8"/>
            <ellipse id="Ellipse_1540" data-name="Ellipse 1540" cx="0.2" cy="0.2" rx="0.2" ry="0.2" transform="translate(0.016 0.014)" fill="#9ca1a9"/>
            <ellipse id="Ellipse_1541" data-name="Ellipse 1541" cx="0.2" cy="0.2" rx="0.2" ry="0.2" transform="translate(0.017 0.015)" fill="#9da3aa"/>
            <ellipse id="Ellipse_1542" data-name="Ellipse 1542" cx="0.199" cy="0.199" rx="0.199" ry="0.199" transform="translate(0.018 0.016)" fill="#9ea4ac"/>
            <ellipse id="Ellipse_1543" data-name="Ellipse 1543" cx="0.198" cy="0.198" rx="0.198" ry="0.198" transform="translate(0.019 0.016)" fill="#9fa5ad"/>
            <ellipse id="Ellipse_1544" data-name="Ellipse 1544" cx="0.197" cy="0.197" rx="0.197" ry="0.197" transform="translate(0.019 0.017)" fill="#a0a6ae"/>
            <ellipse id="Ellipse_1545" data-name="Ellipse 1545" cx="0.196" cy="0.196" rx="0.196" ry="0.196" transform="translate(0.02 0.018)" fill="#a1a7af"/>
            <ellipse id="Ellipse_1546" data-name="Ellipse 1546" cx="0.196" cy="0.196" rx="0.196" ry="0.196" transform="translate(0.021 0.019)" fill="#a2a9b0"/>
            <ellipse id="Ellipse_1547" data-name="Ellipse 1547" cx="0.195" cy="0.195" rx="0.195" ry="0.195" transform="translate(0.022 0.019)" fill="#a3aab2"/>
            <ellipse id="Ellipse_1548" data-name="Ellipse 1548" cx="0.194" cy="0.194" rx="0.194" ry="0.194" transform="translate(0.023 0.02)" fill="#a4abb3"/>
            <path id="Path_26105" data-name="Path 26105" d="M-283.59,615.016a.193.193,0,0,1-.193.194.193.193,0,0,1-.193-.194.193.193,0,0,1,.193-.193A.193.193,0,0,1-283.59,615.016Z" transform="translate(284 -614.802)" fill="#a5acb4"/>
            <path id="Path_26106" data-name="Path 26106" d="M-283.59,615.017a.193.193,0,0,1-.193.193.192.192,0,0,1-.193-.193.193.193,0,0,1,.193-.193A.193.193,0,0,1-283.59,615.017Z" transform="translate(283.999 -614.803)" fill="#a6adb5"/>
            <path id="Path_26107" data-name="Path 26107" d="M-283.589,615.017a.192.192,0,0,1-.192.192.191.191,0,0,1-.192-.192.192.192,0,0,1,.192-.191A.192.192,0,0,1-283.589,615.017Z" transform="translate(283.998 -614.804)" fill="#a8afb7"/>
            <path id="Path_26108" data-name="Path 26108" d="M-283.589,615.018a.191.191,0,0,1-.191.191.191.191,0,0,1-.191-.191.191.191,0,0,1,.191-.191A.191.191,0,0,1-283.589,615.018Z" transform="translate(283.997 -614.804)" fill="#a9b0b8"/>
            <path id="Path_26109" data-name="Path 26109" d="M-283.59,615.019a.19.19,0,0,1-.19.19.19.19,0,0,1-.19-.19.19.19,0,0,1,.19-.19A.19.19,0,0,1-283.59,615.019Z" transform="translate(283.997 -614.805)" fill="#aab1b9"/>
            <path id="Path_26110" data-name="Path 26110" d="M-283.59,615.019a.189.189,0,0,1-.189.189.189.189,0,0,1-.19-.189.189.189,0,0,1,.19-.189A.189.189,0,0,1-283.59,615.019Z" transform="translate(283.996 -614.806)" fill="#abb2ba"/>
            <path id="Path_26111" data-name="Path 26111" d="M-283.59,615.02a.189.189,0,0,1-.188.188.189.189,0,0,1-.189-.188.189.189,0,0,1,.189-.189A.189.189,0,0,1-283.59,615.02Z" transform="translate(283.995 -614.806)" fill="#acb3bb"/>
            <path id="Path_26112" data-name="Path 26112" d="M-283.59,615.021a.187.187,0,0,1-.187.188.188.188,0,0,1-.188-.187.188.188,0,0,1,.188-.188A.187.187,0,0,1-283.59,615.021Z" transform="translate(283.994 -614.807)" fill="#adb4bd"/>
            <path id="Path_26113" data-name="Path 26113" d="M-283.589,615.021a.187.187,0,0,1-.187.187.187.187,0,0,1-.187-.187.187.187,0,0,1,.187-.187A.187.187,0,0,1-283.589,615.021Z" transform="translate(283.993 -614.807)" fill="#aeb6be"/>
            <path id="Path_26114" data-name="Path 26114" d="M-283.589,615.022a.186.186,0,0,1-.186.186.186.186,0,0,1-.186-.186.186.186,0,0,1,.186-.186A.186.186,0,0,1-283.589,615.022Z" transform="translate(283.993 -614.808)" fill="#afb7bf"/>
            <path id="Path_26115" data-name="Path 26115" d="M-283.589,615.022a.185.185,0,0,1-.185.185.185.185,0,0,1-.185-.185.185.185,0,0,1,.185-.185A.185.185,0,0,1-283.589,615.022Z" transform="translate(283.992 -614.809)" fill="#b0b8c0"/>
            <path id="Path_26116" data-name="Path 26116" d="M-283.589,615.023a.185.185,0,0,1-.185.185.184.184,0,0,1-.184-.185.184.184,0,0,1,.184-.184A.185.185,0,0,1-283.589,615.023Z" transform="translate(283.991 -614.81)" fill="#b1b9c1"/>
            <path id="Path_26117" data-name="Path 26117" d="M-283.589,615.024a.184.184,0,0,1-.184.184.184.184,0,0,1-.184-.184.184.184,0,0,1,.184-.184A.183.183,0,0,1-283.589,615.024Z" transform="translate(283.991 -614.81)" fill="#b2bac3"/>
            <path id="Path_26118" data-name="Path 26118" d="M-283.589,615.024a.183.183,0,0,1-.183.183.183.183,0,0,1-.183-.183.183.183,0,0,1,.183-.183A.183.183,0,0,1-283.589,615.024Z" transform="translate(283.99 -614.811)" fill="#b3bcc4"/>
            <path id="Path_26119" data-name="Path 26119" d="M-283.59,615.025a.182.182,0,0,1-.182.182.182.182,0,0,1-.182-.182.182.182,0,0,1,.182-.182A.182.182,0,0,1-283.59,615.025Z" transform="translate(283.989 -614.812)" fill="#b4bdc5"/>
            <path id="Path_26120" data-name="Path 26120" d="M-283.589,615.026a.181.181,0,0,1-.181.181.181.181,0,0,1-.182-.181.182.182,0,0,1,.182-.182A.181.181,0,0,1-283.589,615.026Z" transform="translate(283.988 -614.812)" fill="#b6bec6"/>
            <path id="Path_26121" data-name="Path 26121" d="M-283.589,615.027a.181.181,0,0,1-.181.181.18.18,0,0,1-.181-.181.18.18,0,0,1,.181-.181A.181.181,0,0,1-283.589,615.027Z" transform="translate(283.987 -614.813)" fill="#b7bfc8"/>
            <path id="Path_26122" data-name="Path 26122" d="M-283.589,615.027a.18.18,0,0,1-.18.18.18.18,0,0,1-.18-.18.18.18,0,0,1,.18-.18A.18.18,0,0,1-283.589,615.027Z" transform="translate(283.987 -614.814)" fill="#b8c0c9"/>
            <path id="Path_26123" data-name="Path 26123" d="M-283.589,615.028a.179.179,0,0,1-.179.179.179.179,0,0,1-.179-.179.179.179,0,0,1,.179-.178A.179.179,0,0,1-283.589,615.028Z" transform="translate(283.986 -614.815)" fill="#b9c1ca"/>
            <path id="Path_26124" data-name="Path 26124" d="M-283.589,615.028a.178.178,0,0,1-.178.179.178.178,0,0,1-.178-.179.178.178,0,0,1,.178-.178A.178.178,0,0,1-283.589,615.028Z" transform="translate(283.985 -614.815)" fill="#bac3cb"/>
            <path id="Path_26125" data-name="Path 26125" d="M-283.589,615.029a.178.178,0,0,1-.178.178.178.178,0,0,1-.177-.178.178.178,0,0,1,.177-.178A.178.178,0,0,1-283.589,615.029Z" transform="translate(283.984 -614.816)" fill="#bbc4cc"/>
            <path id="Path_26126" data-name="Path 26126" d="M-283.589,615.029a.176.176,0,0,1-.176.177.176.176,0,0,1-.176-.177.176.176,0,0,1,.176-.176A.176.176,0,0,1-283.589,615.029Z" transform="translate(283.983 -614.817)" fill="#bcc5ce"/>
            <path id="Path_26127" data-name="Path 26127" d="M-283.589,615.03a.176.176,0,0,1-.176.176.176.176,0,0,1-.176-.176.176.176,0,0,1,.176-.176A.176.176,0,0,1-283.589,615.03Z" transform="translate(283.983 -614.817)" fill="#bdc6cf"/>
            <path id="Path_26128" data-name="Path 26128" d="M-283.589,615.031a.175.175,0,0,1-.176.175.175.175,0,0,1-.175-.175.175.175,0,0,1,.175-.175A.175.175,0,0,1-283.589,615.031Z" transform="translate(283.982 -614.818)" fill="#bec7d0"/>
            <path id="Path_26129" data-name="Path 26129" d="M-283.589,615.032a.174.174,0,0,1-.174.174.174.174,0,0,1-.174-.174.174.174,0,0,1,.174-.175A.174.174,0,0,1-283.589,615.032Z" transform="translate(283.981 -614.819)" fill="#bfc9d1"/>
            <path id="Path_26130" data-name="Path 26130" d="M-283.589,615.032a.174.174,0,0,1-.173.173.174.174,0,0,1-.174-.173.174.174,0,0,1,.174-.173A.173.173,0,0,1-283.589,615.032Z" transform="translate(283.98 -614.82)" fill="#c0cad2"/>
            <path id="Path_26131" data-name="Path 26131" d="M-283.589,615.033a.173.173,0,0,1-.172.172.173.173,0,0,1-.173-.172.173.173,0,0,1,.173-.173A.172.172,0,0,1-283.589,615.033Z" transform="translate(283.979 -614.82)" fill="#c1cbd4"/>
            <path id="Path_26132" data-name="Path 26132" d="M-283.588,615.033a.172.172,0,0,1-.172.172.172.172,0,0,1-.172-.172.172.172,0,0,1,.172-.172A.172.172,0,0,1-283.588,615.033Z" transform="translate(283.979 -614.82)" fill="#c3ccd5"/>
            <path id="Path_26133" data-name="Path 26133" d="M-283.589,615.034a.171.171,0,0,1-.171.171.171.171,0,0,1-.171-.171.171.171,0,0,1,.171-.171A.171.171,0,0,1-283.589,615.034Z" transform="translate(283.978 -614.821)" fill="#c4cdd6"/>
            <path id="Path_26134" data-name="Path 26134" d="M-283.589,615.034a.17.17,0,0,1-.17.17.17.17,0,0,1-.17-.17.17.17,0,0,1,.17-.17A.17.17,0,0,1-283.589,615.034Z" transform="translate(283.977 -614.822)" fill="#c5ced7"/>
            <path id="Path_26135" data-name="Path 26135" d="M-283.589,615.035a.17.17,0,0,1-.17.17.17.17,0,0,1-.17-.17.17.17,0,0,1,.17-.169A.17.17,0,0,1-283.589,615.035Z" transform="translate(283.977 -614.823)" fill="#c6d0d9"/>
            <path id="Path_26136" data-name="Path 26136" d="M-283.589,615.036a.168.168,0,0,1-.169.169.169.169,0,0,1-.169-.169.169.169,0,0,1,.169-.169A.169.169,0,0,1-283.589,615.036Z" transform="translate(283.976 -614.824)" fill="#c7d1da"/>
            <path id="Path_26137" data-name="Path 26137" d="M-283.588,615.037a.168.168,0,0,1-.168.168.168.168,0,0,1-.168-.168.168.168,0,0,1,.168-.168A.168.168,0,0,1-283.588,615.037Z" transform="translate(283.975 -614.824)" fill="#c8d2db"/>
          </g>
        </g>
        <g id="Group_15052" data-name="Group 15052">
          <g id="Group_15046" data-name="Group 15046">
            <rect id="Rectangle_6562" data-name="Rectangle 6562" width="23.488" height="48.297" rx="2" transform="translate(0.26 0.26)" fill="#fff"/>
            <path id="Path_26138" data-name="Path 26138" d="M-293.819,610.781a3.114,3.114,0,0,1,3.114,3.112v41.553a3.113,3.113,0,0,1-3.114,3.113h-16.74a3.113,3.113,0,0,1-3.114-3.113V613.893a3.114,3.114,0,0,1,3.114-3.112h16.74m0-.519h-16.74a3.637,3.637,0,0,0-3.633,3.631v41.553a3.637,3.637,0,0,0,3.633,3.631h16.74a3.636,3.636,0,0,0,3.633-3.631V613.893a3.637,3.637,0,0,0-3.633-3.631Z" transform="translate(314.192 -610.262)" fill="#31363a"/>
          </g>
          <g id="Group_15047" data-name="Group 15047" transform="translate(0.519 4.881)">
            <rect id="Rectangle_6563" data-name="Rectangle 6563" width="22.968" height="39.061" fill="#2384dd"/>
          </g>
          <g id="Group_15048" data-name="Group 15048" transform="translate(8.909 2.384)">
            <path id="Path_26139" data-name="Path 26139" d="M-291.659,615.355h-5.119a.25.25,0,0,1-.25-.25h0a.249.249,0,0,1,.25-.25h5.119a.249.249,0,0,1,.25.25h0A.249.249,0,0,1-291.659,615.355Z" transform="translate(297.028 -614.855)" fill="#161922"/>
          </g>
          <g id="Group_15049" data-name="Group 15049" transform="translate(9.507 45.754)" opacity="0.73">
            <rect id="Rectangle_6564" data-name="Rectangle 6564" width="4.993" height="0.513" rx="0.257" fill="#161922"/>
          </g>
          <g id="Group_15050" data-name="Group 15050" transform="translate(15.348 2.043)">
            <path id="Path_26140" data-name="Path 26140" d="M-283.576,614.721a.521.521,0,0,1-.153.37.524.524,0,0,1-.37.153.523.523,0,0,1-.37-.153.521.521,0,0,1-.153-.37.521.521,0,0,1,.153-.37.521.521,0,0,1,.37-.153A.523.523,0,0,1-283.576,614.721Z" transform="translate(284.622 -614.198)" fill="#bcbdc2"/>
            <path id="Path_26141" data-name="Path 26141" d="M-284.468,614.351a.522.522,0,0,1,.37-.153.519.519,0,0,1,.52.515v.007a.5.5,0,0,1-.063.228.536.536,0,0,1-.1.125.552.552,0,0,1-.2.125.547.547,0,0,1-.168.03.527.527,0,0,1-.215-.042.5.5,0,0,1-.125-.077l0,0-.02-.018a.512.512,0,0,1-.106-.158.517.517,0,0,1-.043-.212A.517.517,0,0,1-284.468,614.351Z" transform="translate(284.621 -614.198)" fill="#bbbcc1"/>
            <path id="Path_26142" data-name="Path 26142" d="M-284.467,614.351a.521.521,0,0,1,.37-.153.516.516,0,0,1,.516.506v.007a.483.483,0,0,1-.067.221.531.531,0,0,1-.1.122.569.569,0,0,1-.2.124.542.542,0,0,1-.167.032.529.529,0,0,1-.213-.036.491.491,0,0,1-.122-.072l0,0-.019-.017a.515.515,0,0,1-.1-.159.522.522,0,0,1-.041-.212A.515.515,0,0,1-284.467,614.351Z" transform="translate(284.62 -614.198)" fill="#babbc0"/>
            <path id="Path_26143" data-name="Path 26143" d="M-284.466,614.351a.521.521,0,0,1,.37-.153.512.512,0,0,1,.513.5v.007a.467.467,0,0,1-.071.214.582.582,0,0,1-.1.119.6.6,0,0,1-.2.123.582.582,0,0,1-.166.034.531.531,0,0,1-.211-.031.463.463,0,0,1-.12-.066l0,0-.019-.016a.522.522,0,0,1-.1-.159.525.525,0,0,1-.039-.212A.514.514,0,0,1-284.466,614.351Z" transform="translate(284.619 -614.198)" fill="#b9babf"/>
            <path id="Path_26144" data-name="Path 26144" d="M-284.465,614.351a.521.521,0,0,1,.37-.153.508.508,0,0,1,.51.489v.007a.464.464,0,0,1-.076.207.59.59,0,0,1-.1.117.629.629,0,0,1-.2.123.6.6,0,0,1-.165.036.525.525,0,0,1-.208-.024.463.463,0,0,1-.118-.061l0,0-.019-.015a.512.512,0,0,1-.1-.16.523.523,0,0,1-.037-.211A.511.511,0,0,1-284.465,614.351Z" transform="translate(284.618 -614.198)" fill="#b8b9bf"/>
            <path id="Path_26145" data-name="Path 26145" d="M-284.465,614.351a.521.521,0,0,1,.37-.153.505.505,0,0,1,.507.481v.007a.456.456,0,0,1-.079.2.64.64,0,0,1-.1.114.661.661,0,0,1-.2.122.622.622,0,0,1-.164.038.528.528,0,0,1-.205-.019.416.416,0,0,1-.115-.055l0,0-.018-.014a.509.509,0,0,1-.1-.16.544.544,0,0,1-.035-.211A.512.512,0,0,1-284.465,614.351Z" transform="translate(284.618 -614.198)" fill="#b7b9be"/>
            <path id="Path_26146" data-name="Path 26146" d="M-284.464,614.351a.521.521,0,0,1,.37-.153.5.5,0,0,1,.5.473v.006a.444.444,0,0,1-.083.193.676.676,0,0,1-.1.111.691.691,0,0,1-.2.121.648.648,0,0,1-.163.041.539.539,0,0,1-.2-.013.388.388,0,0,1-.113-.05l0,0-.018-.013a.514.514,0,0,1-.1-.161.541.541,0,0,1-.033-.211A.508.508,0,0,1-284.464,614.351Z" transform="translate(284.617 -614.198)" fill="#b6b8bd"/>
            <path id="Path_26147" data-name="Path 26147" d="M-284.463,614.351a.522.522,0,0,1,.37-.153.5.5,0,0,1,.5.465l0,.006a.432.432,0,0,1-.087.185.687.687,0,0,1-.1.109.753.753,0,0,1-.2.121.669.669,0,0,1-.161.042.544.544,0,0,1-.2-.008.379.379,0,0,1-.111-.045l0,0-.017-.012a.5.5,0,0,1-.1-.161.545.545,0,0,1-.031-.211A.508.508,0,0,1-284.463,614.351Z" transform="translate(284.616 -614.198)" fill="#b5b7bc"/>
            <path id="Path_26148" data-name="Path 26148" d="M-284.462,614.351a.522.522,0,0,1,.37-.153.5.5,0,0,1,.5.456v.006a.443.443,0,0,1-.091.178.762.762,0,0,1-.105.106.785.785,0,0,1-.2.12.72.72,0,0,1-.16.045.582.582,0,0,1-.2,0,.367.367,0,0,1-.108-.04l0,0-.017-.01a.511.511,0,0,1-.094-.162.537.537,0,0,1-.029-.211A.5.5,0,0,1-284.462,614.351Z" transform="translate(284.616 -614.198)" fill="#b4b6bb"/>
            <path id="Path_26149" data-name="Path 26149" d="M-284.462,614.351a.522.522,0,0,1,.37-.153.493.493,0,0,1,.493.447l0,.006a.428.428,0,0,1-.1.171.751.751,0,0,1-.107.1.849.849,0,0,1-.2.12.761.761,0,0,1-.159.047.6.6,0,0,1-.2,0,.38.38,0,0,1-.106-.034l0,0-.017-.009a.507.507,0,0,1-.092-.162.536.536,0,0,1-.027-.211A.5.5,0,0,1-284.462,614.351Z" transform="translate(284.615 -614.198)" fill="#b3b5ba"/>
            <path id="Path_26150" data-name="Path 26150" d="M-284.461,614.351a.522.522,0,0,1,.37-.153.489.489,0,0,1,.489.439l0,.006a.43.43,0,0,1-.1.164.8.8,0,0,1-.108.1.889.889,0,0,1-.2.119.766.766,0,0,1-.158.049.611.611,0,0,1-.192.01.352.352,0,0,1-.1-.029l0,0-.017-.008a.5.5,0,0,1-.09-.163.537.537,0,0,1-.025-.21A.5.5,0,0,1-284.461,614.351Z" transform="translate(284.614 -614.198)" fill="#b2b4ba"/>
            <path id="Path_26151" data-name="Path 26151" d="M-284.461,614.351a.522.522,0,0,1,.37-.153.486.486,0,0,1,.486.431l0,.006a.437.437,0,0,1-.1.157.95.95,0,0,1-.11.1.985.985,0,0,1-.2.118.882.882,0,0,1-.157.051.652.652,0,0,1-.189.016.364.364,0,0,1-.1-.023l0,0-.016-.007a.5.5,0,0,1-.089-.163.552.552,0,0,1-.023-.21A.5.5,0,0,1-284.461,614.351Z" transform="translate(284.614 -614.198)" fill="#b1b3b9"/>
            <path id="Path_26152" data-name="Path 26152" d="M-284.46,614.351a.522.522,0,0,1,.37-.153.483.483,0,0,1,.483.422l0,.005a.453.453,0,0,1-.107.15.982.982,0,0,1-.111.1,1.123,1.123,0,0,1-.2.118.906.906,0,0,1-.156.053.69.69,0,0,1-.187.021.343.343,0,0,1-.1-.018h0l-.015-.006a.5.5,0,0,1-.087-.164.546.546,0,0,1-.021-.21A.5.5,0,0,1-284.46,614.351Z" transform="translate(284.613 -614.198)" fill="#b0b2b8"/>
            <path id="Path_26153" data-name="Path 26153" d="M-284.46,614.351a.521.521,0,0,1,.37-.153.48.48,0,0,1,.48.414l0,.005a.48.48,0,0,1-.111.142,1.034,1.034,0,0,1-.113.093,1.193,1.193,0,0,1-.2.117.975.975,0,0,1-.155.055.755.755,0,0,1-.184.027.363.363,0,0,1-.1-.012h0l-.015-.005a.5.5,0,0,1-.085-.164.56.56,0,0,1-.019-.21A.5.5,0,0,1-284.46,614.351Z" transform="translate(284.613 -614.198)" fill="#afb2b7"/>
            <path id="Path_26154" data-name="Path 26154" d="M-284.459,614.351a.522.522,0,0,1,.37-.153.478.478,0,0,1,.476.406l0,0a.487.487,0,0,1-.115.136,1.131,1.131,0,0,1-.114.09,1.387,1.387,0,0,1-.205.117,1.118,1.118,0,0,1-.154.057.862.862,0,0,1-.182.033.411.411,0,0,1-.1-.008h0l-.014,0a.5.5,0,0,1-.084-.165.557.557,0,0,1-.017-.209A.5.5,0,0,1-284.459,614.351Z" transform="translate(284.612 -614.198)" fill="#aeb1b6"/>
            <path id="Path_26155" data-name="Path 26155" d="M-284.459,614.351a.521.521,0,0,1,.37-.153.475.475,0,0,1,.473.4l0,0a.534.534,0,0,1-.119.128,1.3,1.3,0,0,1-.116.088,1.5,1.5,0,0,1-.206.116,1.184,1.184,0,0,1-.153.059.863.863,0,0,1-.179.038.4.4,0,0,1-.093,0h0l-.015,0a.5.5,0,0,1-.081-.165.545.545,0,0,1-.015-.21A.491.491,0,0,1-284.459,614.351Z" transform="translate(284.612 -614.198)" fill="#adb0b5"/>
            <path id="Path_26156" data-name="Path 26156" d="M-284.459,614.351a.522.522,0,0,1,.37-.153.473.473,0,0,1,.47.389l0,0a.6.6,0,0,1-.123.121c-.036.028-.075.057-.117.085a1.8,1.8,0,0,1-.206.115,1.363,1.363,0,0,1-.151.061,1.014,1.014,0,0,1-.176.044.479.479,0,0,1-.091,0h-.017a.514.514,0,0,1-.08-.166.563.563,0,0,1-.012-.209A.488.488,0,0,1-284.459,614.351Z" transform="translate(284.612 -614.198)" fill="#acafb5"/>
            <path id="Path_26157" data-name="Path 26157" d="M-284.458,614.351a.522.522,0,0,1,.37-.153.47.47,0,0,1,.466.38l0,0a.641.641,0,0,1-.127.114c-.036.028-.076.056-.119.083a2.02,2.02,0,0,1-.206.115,1.506,1.506,0,0,1-.15.064,1.185,1.185,0,0,1-.174.049.493.493,0,0,1-.089.009h-.016a.51.51,0,0,1-.079-.167.567.567,0,0,1-.01-.209A.489.489,0,0,1-284.458,614.351Z" transform="translate(284.611 -614.198)" fill="#abaeb4"/>
            <path id="Path_26158" data-name="Path 26158" d="M-284.458,614.351a.521.521,0,0,1,.37-.153.469.469,0,0,1,.463.372l0,0a.783.783,0,0,1-.131.106c-.037.026-.077.054-.12.08-.065.04-.135.079-.207.114-.05.025-.1.047-.149.065a1.488,1.488,0,0,1-.171.056.725.725,0,0,1-.086.015h-.016a.511.511,0,0,1-.077-.168.575.575,0,0,1-.009-.208A.49.49,0,0,1-284.458,614.351Z" transform="translate(284.611 -614.198)" fill="#aaadb3"/>
            <path id="Path_26159" data-name="Path 26159" d="M-284.458,614.351a.521.521,0,0,1,.37-.153.466.466,0,0,1,.459.364l0,0a.956.956,0,0,1-.135.1c-.038.025-.078.052-.121.077-.066.039-.136.078-.207.113-.05.025-.1.048-.148.068s-.12.047-.168.061a.625.625,0,0,1-.084.02h0l-.012,0a.519.519,0,0,1-.075-.168.578.578,0,0,1-.007-.209A.488.488,0,0,1-284.458,614.351Z" transform="translate(284.611 -614.198)" fill="#a9acb2"/>
            <path id="Path_26160" data-name="Path 26160" d="M-284.458,614.351a.521.521,0,0,1,.37-.153.465.465,0,0,1,.456.355l0,0a1.478,1.478,0,0,1-.139.092l-.123.075c-.066.038-.137.077-.207.112-.05.025-.1.049-.147.07-.063.027-.119.05-.166.067-.032.011-.059.019-.082.025h0l-.013,0a.516.516,0,0,1-.073-.168.571.571,0,0,1,0-.208A.485.485,0,0,1-284.458,614.351Z" transform="translate(284.611 -614.198)" fill="#a8abb1"/>
            <path id="Path_26161" data-name="Path 26161" d="M-284.458,614.351a.521.521,0,0,1,.37-.153.463.463,0,0,1,.453.347l0,0c-.033.022-.082.05-.143.085l-.125.072c-.066.038-.137.076-.207.112-.049.026-.1.05-.146.072-.062.028-.117.053-.164.073l-.079.03h0l-.012,0a.51.51,0,0,1-.072-.169.574.574,0,0,1,0-.208A.485.485,0,0,1-284.458,614.351Z" transform="translate(284.611 -614.198)" fill="#a7aab0"/>
            <path id="Path_26162" data-name="Path 26162" d="M-284.458,614.351a.521.521,0,0,1,.37-.153.461.461,0,0,1,.45.339l0,0c-.034.02-.085.045-.147.078l-.126.07-.208.111c-.049.026-.1.051-.145.074l-.16.078-.078.036,0,0-.011,0a.508.508,0,0,1-.07-.169.571.571,0,0,1,0-.208A.483.483,0,0,1-284.458,614.351Z" transform="translate(284.611 -614.198)" fill="#a7aab0"/>
            <path id="Path_26163" data-name="Path 26163" d="M-284.458,614.351a.521.521,0,0,1,.37-.153.46.46,0,0,1,.446.331l0,0c-.036.017-.088.039-.151.071-.041.02-.084.044-.128.067l-.208.11-.144.076-.158.084-.075.041h0l-.011.006a.509.509,0,0,1-.068-.17.585.585,0,0,1,0-.208A.482.482,0,0,1-284.458,614.351Z" transform="translate(284.611 -614.198)" fill="#a6a9af"/>
            <path id="Path_26164" data-name="Path 26164" d="M-284.458,614.351a.522.522,0,0,1,.37-.153.459.459,0,0,1,.443.322l0,0c-.037.014-.09.035-.155.064-.041.019-.084.042-.129.064l-.209.111-.142.078c-.06.033-.112.064-.156.09-.028.018-.053.033-.073.047l0,0-.01.007a.508.508,0,0,1-.066-.17.582.582,0,0,1,0-.208A.483.483,0,0,1-284.458,614.351Z" transform="translate(284.611 -614.198)" fill="#a5a8ae"/>
            <path id="Path_26165" data-name="Path 26165" d="M-284.458,614.351a.521.521,0,0,1,.37-.153.459.459,0,0,1,.44.314l0,0a1.376,1.376,0,0,0-.159.057c-.042.018-.086.039-.131.061-.069.034-.14.071-.209.11-.048.026-.1.054-.141.08s-.111.066-.153.1a.827.827,0,0,0-.071.052l0,0-.01.008a.525.525,0,0,1-.064-.171.578.578,0,0,1,.005-.207A.483.483,0,0,1-284.458,614.351Z" transform="translate(284.611 -614.198)" fill="#a4a7ad"/>
            <path id="Path_26166" data-name="Path 26166" d="M-284.458,614.351a.521.521,0,0,1,.37-.153.457.457,0,0,1,.436.305l0,0a.94.94,0,0,0-.163.049c-.043.017-.087.037-.132.059-.07.033-.14.071-.209.109-.048.028-.1.055-.14.083a1.622,1.622,0,0,0-.15.1.658.658,0,0,0-.068.057l0,0-.01.009a.5.5,0,0,1-.063-.171.583.583,0,0,1,.007-.207A.483.483,0,0,1-284.458,614.351Z" transform="translate(284.611 -614.198)" fill="#a3a6ac"/>
            <path id="Path_26167" data-name="Path 26167" d="M-284.459,614.351a.522.522,0,0,1,.37-.153.458.458,0,0,1,.433.3l0,0a.825.825,0,0,0-.167.042c-.043.016-.088.035-.133.057-.07.032-.141.07-.209.109-.048.028-.1.056-.139.084a1.459,1.459,0,0,0-.148.107.546.546,0,0,0-.066.063l0,0-.009.01a.5.5,0,0,1-.061-.173.577.577,0,0,1,.009-.206A.481.481,0,0,1-284.459,614.351Z" transform="translate(284.612 -614.198)" fill="#a2a5ab"/>
            <path id="Path_26168" data-name="Path 26168" d="M-284.459,614.351a.521.521,0,0,1,.37-.153.456.456,0,0,1,.429.289l0,0a.653.653,0,0,0-.171.035c-.044.015-.089.033-.135.054a2.256,2.256,0,0,0-.21.108c-.048.028-.094.057-.138.087a1.177,1.177,0,0,0-.145.113.484.484,0,0,0-.064.068l0,0-.009.011a.517.517,0,0,1-.059-.172.576.576,0,0,1,.012-.207A.476.476,0,0,1-284.459,614.351Z" transform="translate(284.612 -614.198)" fill="#a1a4ab"/>
            <path id="Path_26169" data-name="Path 26169" d="M-284.459,614.351a.521.521,0,0,1,.37-.153.458.458,0,0,1,.426.28l0,0a.6.6,0,0,0-.175.028,1.338,1.338,0,0,0-.137.051,1.939,1.939,0,0,0-.21.107c-.048.028-.094.058-.137.089a1.084,1.084,0,0,0-.142.118.492.492,0,0,0-.062.074l0,0-.008.013a.518.518,0,0,1-.058-.173.559.559,0,0,1,.013-.206A.477.477,0,0,1-284.459,614.351Z" transform="translate(284.613 -614.198)" fill="#a0a3aa"/>
            <path id="Path_26170" data-name="Path 26170" d="M-284.46,614.351a.521.521,0,0,1,.37-.153.458.458,0,0,1,.423.272l0,0a.522.522,0,0,0-.178.021,1.113,1.113,0,0,0-.138.048,1.64,1.64,0,0,0-.21.107c-.048.029-.094.06-.136.091a.961.961,0,0,0-.139.124.451.451,0,0,0-.06.079l0,0-.008.013a.515.515,0,0,1-.055-.173.581.581,0,0,1,.015-.206A.483.483,0,0,1-284.46,614.351Z" transform="translate(284.613 -614.198)" fill="#9fa2a9"/>
            <path id="Path_26171" data-name="Path 26171" d="M-284.46,614.351a.521.521,0,0,1,.37-.153.459.459,0,0,1,.419.264l0,0a.486.486,0,0,0-.183.014,1,1,0,0,0-.14.045,1.391,1.391,0,0,0-.211.106,1.454,1.454,0,0,0-.135.092.863.863,0,0,0-.137.13.489.489,0,0,0-.058.084l0,0-.008.015a.506.506,0,0,1-.054-.174.57.57,0,0,1,.017-.206A.482.482,0,0,1-284.46,614.351Z" transform="translate(284.613 -614.198)" fill="#9ea2a8"/>
            <path id="Path_26172" data-name="Path 26172" d="M-284.461,614.351a.521.521,0,0,1,.37-.153.46.46,0,0,1,.416.255l-.005,0a.479.479,0,0,0-.187.006,1,1,0,0,0-.141.043,1.311,1.311,0,0,0-.211.105,1.356,1.356,0,0,0-.133.095.791.791,0,0,0-.134.135.478.478,0,0,0-.055.089l0,0-.007.016a.5.5,0,0,1-.052-.174.568.568,0,0,1,.019-.206A.484.484,0,0,1-284.461,614.351Z" transform="translate(284.614 -614.198)" fill="#9da1a7"/>
            <path id="Path_26173" data-name="Path 26173" d="M-284.461,614.351a.522.522,0,0,1,.37-.153.463.463,0,0,1,.413.247l-.005,0a.449.449,0,0,0-.19,0,.836.836,0,0,0-.142.04,1.114,1.114,0,0,0-.212.1,1.174,1.174,0,0,0-.132.1.745.745,0,0,0-.131.141.468.468,0,0,0-.053.094l0,0-.007.017a.513.513,0,0,1-.05-.175.562.562,0,0,1,.021-.206A.486.486,0,0,1-284.461,614.351Z" transform="translate(284.614 -614.198)" fill="#9ca0a6"/>
            <path id="Path_26174" data-name="Path 26174" d="M-284.462,614.351a.521.521,0,0,1,.37-.153.465.465,0,0,1,.409.239l-.006,0a.438.438,0,0,0-.195-.008.831.831,0,0,0-.144.038,1.05,1.05,0,0,0-.212.1,1.1,1.1,0,0,0-.131.1.739.739,0,0,0-.129.147.479.479,0,0,0-.051.1l0,0-.006.018a.512.512,0,0,1-.049-.175.568.568,0,0,1,.023-.205A.485.485,0,0,1-284.462,614.351Z" transform="translate(284.615 -614.198)" fill="#9b9fa6"/>
            <path id="Path_26175" data-name="Path 26175" d="M-284.462,614.351a.521.521,0,0,1,.37-.153.467.467,0,0,1,.406.23l-.005,0a.433.433,0,0,0-.2-.015.769.769,0,0,0-.145.035,1,1,0,0,0-.212.1.979.979,0,0,0-.13.1.7.7,0,0,0-.127.153.479.479,0,0,0-.048.105l0,0-.006.019a.528.528,0,0,1-.047-.176.559.559,0,0,1,.025-.205A.484.484,0,0,1-284.462,614.351Z" transform="translate(284.616 -614.198)" fill="#9a9ea5"/>
            <path id="Path_26176" data-name="Path 26176" d="M-284.463,614.351a.522.522,0,0,1,.37-.153.472.472,0,0,1,.4.221l-.006,0a.42.42,0,0,0-.2-.022.713.713,0,0,0-.147.032.878.878,0,0,0-.212.1.9.9,0,0,0-.129.1.683.683,0,0,0-.123.158.5.5,0,0,0-.047.111v0c0,.007,0,.013-.006.02a.507.507,0,0,1-.045-.176.55.55,0,0,1,.027-.205A.489.489,0,0,1-284.463,614.351Z" transform="translate(284.616 -614.198)" fill="#999da4"/>
            <path id="Path_26177" data-name="Path 26177" d="M-284.464,614.351a.522.522,0,0,1,.37-.153.476.476,0,0,1,.4.213h-.006a.431.431,0,0,0-.207-.03.732.732,0,0,0-.148.03.827.827,0,0,0-.213.1.808.808,0,0,0-.128.106.659.659,0,0,0-.121.164.536.536,0,0,0-.044.116v.005a.131.131,0,0,0-.005.021.5.5,0,0,1-.044-.177.56.56,0,0,1,.029-.2A.489.489,0,0,1-284.464,614.351Z" transform="translate(284.617 -614.198)" fill="#989ca3"/>
            <path id="Path_26178" data-name="Path 26178" d="M-284.465,614.351a.522.522,0,0,1,.37-.153.48.48,0,0,1,.4.205l-.006,0a.418.418,0,0,0-.21-.037.681.681,0,0,0-.15.028.756.756,0,0,0-.213.1.777.777,0,0,0-.127.107.67.67,0,0,0-.119.17.543.543,0,0,0-.042.121v.005c0,.007,0,.015-.005.022a.518.518,0,0,1-.042-.177.548.548,0,0,1,.031-.2A.5.5,0,0,1-284.465,614.351Z" transform="translate(284.618 -614.198)" fill="#979ba2"/>
            <path id="Path_26179" data-name="Path 26179" d="M-284.465,614.351a.521.521,0,0,1,.37-.153.486.486,0,0,1,.392.2h-.006a.435.435,0,0,0-.215-.044.68.68,0,0,0-.151.025.729.729,0,0,0-.213.1.736.736,0,0,0-.126.109.649.649,0,0,0-.116.175.581.581,0,0,0-.04.127v.005c0,.008,0,.016,0,.024a.511.511,0,0,1-.04-.179.549.549,0,0,1,.033-.2A.5.5,0,0,1-284.465,614.351Z" transform="translate(284.618 -614.198)" fill="#969ba1"/>
            <path id="Path_26180" data-name="Path 26180" d="M-284.466,614.351a.521.521,0,0,1,.37-.153.493.493,0,0,1,.389.188h-.006a.431.431,0,0,0-.219-.051.626.626,0,0,0-.153.022.686.686,0,0,0-.214.1.72.72,0,0,0-.124.111.643.643,0,0,0-.113.182.6.6,0,0,0-.037.132v.006c0,.008,0,.016,0,.025a.525.525,0,0,1-.038-.179.543.543,0,0,1,.035-.2A.5.5,0,0,1-284.466,614.351Z" transform="translate(284.619 -614.198)" fill="#959aa1"/>
            <path id="Path_26181" data-name="Path 26181" d="M-284.467,614.351a.521.521,0,0,1,.37-.153.5.5,0,0,1,.386.18h-.007a.44.44,0,0,0-.222-.059.617.617,0,0,0-.154.02.651.651,0,0,0-.214.1.7.7,0,0,0-.123.114.653.653,0,0,0-.111.187.614.614,0,0,0-.035.138v.006c0,.009,0,.017,0,.026a.528.528,0,0,1-.036-.179.534.534,0,0,1,.037-.2A.5.5,0,0,1-284.467,614.351Z" transform="translate(284.62 -614.198)" fill="#9499a0"/>
            <path id="Path_26182" data-name="Path 26182" d="M-284.468,614.351a.522.522,0,0,1,.37-.153.51.51,0,0,1,.382.172h-.007a.447.447,0,0,0-.226-.065.6.6,0,0,0-.156.017.605.605,0,0,0-.214.1.632.632,0,0,0-.122.116.644.644,0,0,0-.108.193.648.648,0,0,0-.033.143v.006c0,.009,0,.018,0,.026a.522.522,0,0,1-.035-.18.528.528,0,0,1,.039-.2A.514.514,0,0,1-284.468,614.351Z" transform="translate(284.621 -614.198)" fill="#93989f"/>
            <path id="Path_26183" data-name="Path 26183" d="M-284.586,614.874v-.006a.725.725,0,0,1,.031-.149.64.64,0,0,1,.226-.316.583.583,0,0,1,.372-.112.454.454,0,0,1,.23.073h.007a.521.521,0,0,0-.379-.163.521.521,0,0,0-.37.153.515.515,0,0,0-.112.166.521.521,0,0,0-.041.2.521.521,0,0,0,.033.181C-284.588,614.892-284.587,614.883-284.586,614.874Z" transform="translate(284.622 -614.198)" fill="#92979e"/>
          </g>
          <g id="Group_15051" data-name="Group 15051" transform="translate(15.66 2.347)">
            <ellipse id="Ellipse_1549" data-name="Ellipse 1549" cx="0.215" cy="0.215" rx="0.215" ry="0.215" fill="#878b92"/>
            <ellipse id="Ellipse_1550" data-name="Ellipse 1550" cx="0.215" cy="0.215" rx="0.215" ry="0.215" transform="translate(0.001 0.001)" fill="#888c93"/>
            <ellipse id="Ellipse_1551" data-name="Ellipse 1551" cx="0.214" cy="0.214" rx="0.214" ry="0.214" transform="translate(0.002 0.001)" fill="#898d94"/>
            <ellipse id="Ellipse_1552" data-name="Ellipse 1552" cx="0.213" cy="0.213" rx="0.213" ry="0.213" transform="translate(0.003 0.002)" fill="#8a8f96"/>
            <ellipse id="Ellipse_1553" data-name="Ellipse 1553" cx="0.212" cy="0.212" rx="0.212" ry="0.212" transform="translate(0.003 0.003)" fill="#8b9097"/>
            <ellipse id="Ellipse_1554" data-name="Ellipse 1554" cx="0.212" cy="0.212" rx="0.212" ry="0.212" transform="translate(0.004 0.004)" fill="#8c9198"/>
            <ellipse id="Ellipse_1555" data-name="Ellipse 1555" cx="0.211" cy="0.211" rx="0.211" ry="0.211" transform="translate(0.005 0.004)" fill="#8e9299"/>
            <ellipse id="Ellipse_1556" data-name="Ellipse 1556" cx="0.21" cy="0.21" rx="0.21" ry="0.21" transform="translate(0.006 0.005)" fill="#8f939b"/>
            <ellipse id="Ellipse_1557" data-name="Ellipse 1557" cx="0.209" cy="0.209" rx="0.209" ry="0.209" transform="translate(0.007 0.006)" fill="#90949c"/>
            <ellipse id="Ellipse_1558" data-name="Ellipse 1558" cx="0.208" cy="0.208" rx="0.208" ry="0.208" transform="translate(0.008 0.007)" fill="#91969d"/>
            <ellipse id="Ellipse_1559" data-name="Ellipse 1559" cx="0.208" cy="0.208" rx="0.208" ry="0.208" transform="translate(0.008 0.007)" fill="#92979e"/>
            <ellipse id="Ellipse_1560" data-name="Ellipse 1560" cx="0.207" cy="0.207" rx="0.207" ry="0.207" transform="translate(0.009 0.008)" fill="#93989f"/>
            <ellipse id="Ellipse_1561" data-name="Ellipse 1561" cx="0.206" cy="0.206" rx="0.206" ry="0.206" transform="translate(0.01 0.009)" fill="#9499a1"/>
            <ellipse id="Ellipse_1562" data-name="Ellipse 1562" cx="0.205" cy="0.205" rx="0.205" ry="0.205" transform="translate(0.011 0.01)" fill="#959aa2"/>
            <ellipse id="Ellipse_1563" data-name="Ellipse 1563" cx="0.204" cy="0.204" rx="0.204" ry="0.204" transform="translate(0.012 0.01)" fill="#969ca3"/>
            <ellipse id="Ellipse_1564" data-name="Ellipse 1564" cx="0.204" cy="0.204" rx="0.204" ry="0.204" transform="translate(0.013 0.011)" fill="#979da4"/>
            <ellipse id="Ellipse_1565" data-name="Ellipse 1565" cx="0.203" cy="0.203" rx="0.203" ry="0.203" transform="translate(0.013 0.012)" fill="#989ea5"/>
            <ellipse id="Ellipse_1566" data-name="Ellipse 1566" cx="0.202" cy="0.202" rx="0.202" ry="0.202" transform="translate(0.014 0.013)" fill="#999fa7"/>
            <ellipse id="Ellipse_1567" data-name="Ellipse 1567" cx="0.201" cy="0.201" rx="0.201" ry="0.201" transform="translate(0.015 0.013)" fill="#9ba0a8"/>
            <ellipse id="Ellipse_1568" data-name="Ellipse 1568" cx="0.2" cy="0.2" rx="0.2" ry="0.2" transform="translate(0.016 0.014)" fill="#9ca1a9"/>
            <ellipse id="Ellipse_1569" data-name="Ellipse 1569" cx="0.2" cy="0.2" rx="0.2" ry="0.2" transform="translate(0.017 0.015)" fill="#9da3aa"/>
            <ellipse id="Ellipse_1570" data-name="Ellipse 1570" cx="0.199" cy="0.199" rx="0.199" ry="0.199" transform="translate(0.018 0.016)" fill="#9ea4ac"/>
            <ellipse id="Ellipse_1571" data-name="Ellipse 1571" cx="0.198" cy="0.198" rx="0.198" ry="0.198" transform="translate(0.019 0.016)" fill="#9fa5ad"/>
            <ellipse id="Ellipse_1572" data-name="Ellipse 1572" cx="0.197" cy="0.197" rx="0.197" ry="0.197" transform="translate(0.019 0.017)" fill="#a0a6ae"/>
            <ellipse id="Ellipse_1573" data-name="Ellipse 1573" cx="0.196" cy="0.196" rx="0.196" ry="0.196" transform="translate(0.02 0.018)" fill="#a1a7af"/>
            <ellipse id="Ellipse_1574" data-name="Ellipse 1574" cx="0.196" cy="0.196" rx="0.196" ry="0.196" transform="translate(0.021 0.019)" fill="#a2a9b0"/>
            <ellipse id="Ellipse_1575" data-name="Ellipse 1575" cx="0.195" cy="0.195" rx="0.195" ry="0.195" transform="translate(0.022 0.019)" fill="#a3aab2"/>
            <ellipse id="Ellipse_1576" data-name="Ellipse 1576" cx="0.194" cy="0.194" rx="0.194" ry="0.194" transform="translate(0.023 0.02)" fill="#a4abb3"/>
            <path id="Path_26184" data-name="Path 26184" d="M-283.59,615.016a.193.193,0,0,1-.193.194.193.193,0,0,1-.193-.194.193.193,0,0,1,.193-.193A.193.193,0,0,1-283.59,615.016Z" transform="translate(284 -614.802)" fill="#a5acb4"/>
            <path id="Path_26185" data-name="Path 26185" d="M-283.59,615.017a.193.193,0,0,1-.193.193.192.192,0,0,1-.193-.193.193.193,0,0,1,.193-.193A.193.193,0,0,1-283.59,615.017Z" transform="translate(283.999 -614.803)" fill="#a6adb5"/>
            <path id="Path_26186" data-name="Path 26186" d="M-283.589,615.017a.192.192,0,0,1-.192.192.191.191,0,0,1-.192-.192.192.192,0,0,1,.192-.191A.192.192,0,0,1-283.589,615.017Z" transform="translate(283.998 -614.804)" fill="#a8afb7"/>
            <path id="Path_26187" data-name="Path 26187" d="M-283.589,615.018a.191.191,0,0,1-.191.191.191.191,0,0,1-.191-.191.191.191,0,0,1,.191-.191A.191.191,0,0,1-283.589,615.018Z" transform="translate(283.997 -614.804)" fill="#a9b0b8"/>
            <path id="Path_26188" data-name="Path 26188" d="M-283.59,615.019a.19.19,0,0,1-.19.19.19.19,0,0,1-.19-.19.19.19,0,0,1,.19-.19A.19.19,0,0,1-283.59,615.019Z" transform="translate(283.997 -614.805)" fill="#aab1b9"/>
            <path id="Path_26189" data-name="Path 26189" d="M-283.59,615.019a.189.189,0,0,1-.189.189.189.189,0,0,1-.19-.189.189.189,0,0,1,.19-.189A.189.189,0,0,1-283.59,615.019Z" transform="translate(283.996 -614.806)" fill="#abb2ba"/>
            <path id="Path_26190" data-name="Path 26190" d="M-283.59,615.02a.189.189,0,0,1-.188.188.189.189,0,0,1-.189-.188.189.189,0,0,1,.189-.189A.189.189,0,0,1-283.59,615.02Z" transform="translate(283.995 -614.806)" fill="#acb3bb"/>
            <path id="Path_26191" data-name="Path 26191" d="M-283.59,615.021a.187.187,0,0,1-.187.188.188.188,0,0,1-.188-.187.188.188,0,0,1,.188-.188A.187.187,0,0,1-283.59,615.021Z" transform="translate(283.994 -614.807)" fill="#adb4bd"/>
            <path id="Path_26192" data-name="Path 26192" d="M-283.589,615.021a.187.187,0,0,1-.187.187.187.187,0,0,1-.187-.187.187.187,0,0,1,.187-.187A.187.187,0,0,1-283.589,615.021Z" transform="translate(283.993 -614.807)" fill="#aeb6be"/>
            <path id="Path_26193" data-name="Path 26193" d="M-283.589,615.022a.186.186,0,0,1-.186.186.186.186,0,0,1-.186-.186.186.186,0,0,1,.186-.186A.186.186,0,0,1-283.589,615.022Z" transform="translate(283.993 -614.808)" fill="#afb7bf"/>
            <path id="Path_26194" data-name="Path 26194" d="M-283.589,615.022a.185.185,0,0,1-.185.185.185.185,0,0,1-.185-.185.185.185,0,0,1,.185-.185A.185.185,0,0,1-283.589,615.022Z" transform="translate(283.992 -614.809)" fill="#b0b8c0"/>
            <path id="Path_26195" data-name="Path 26195" d="M-283.589,615.023a.185.185,0,0,1-.185.185.184.184,0,0,1-.184-.185.184.184,0,0,1,.184-.184A.185.185,0,0,1-283.589,615.023Z" transform="translate(283.991 -614.81)" fill="#b1b9c1"/>
            <path id="Path_26196" data-name="Path 26196" d="M-283.589,615.024a.184.184,0,0,1-.184.184.184.184,0,0,1-.184-.184.184.184,0,0,1,.184-.184A.183.183,0,0,1-283.589,615.024Z" transform="translate(283.991 -614.81)" fill="#b2bac3"/>
            <path id="Path_26197" data-name="Path 26197" d="M-283.589,615.024a.183.183,0,0,1-.183.183.183.183,0,0,1-.183-.183.183.183,0,0,1,.183-.183A.183.183,0,0,1-283.589,615.024Z" transform="translate(283.99 -614.811)" fill="#b3bcc4"/>
            <path id="Path_26198" data-name="Path 26198" d="M-283.59,615.025a.182.182,0,0,1-.182.182.182.182,0,0,1-.182-.182.182.182,0,0,1,.182-.182A.182.182,0,0,1-283.59,615.025Z" transform="translate(283.989 -614.812)" fill="#b4bdc5"/>
            <path id="Path_26199" data-name="Path 26199" d="M-283.589,615.026a.181.181,0,0,1-.181.181.181.181,0,0,1-.182-.181.182.182,0,0,1,.182-.182A.181.181,0,0,1-283.589,615.026Z" transform="translate(283.988 -614.812)" fill="#b6bec6"/>
            <path id="Path_26200" data-name="Path 26200" d="M-283.589,615.027a.181.181,0,0,1-.181.181.18.18,0,0,1-.181-.181.18.18,0,0,1,.181-.181A.181.181,0,0,1-283.589,615.027Z" transform="translate(283.987 -614.813)" fill="#b7bfc8"/>
            <path id="Path_26201" data-name="Path 26201" d="M-283.589,615.027a.18.18,0,0,1-.18.18.18.18,0,0,1-.18-.18.18.18,0,0,1,.18-.18A.18.18,0,0,1-283.589,615.027Z" transform="translate(283.987 -614.814)" fill="#b8c0c9"/>
            <path id="Path_26202" data-name="Path 26202" d="M-283.589,615.028a.179.179,0,0,1-.179.179.179.179,0,0,1-.179-.179.179.179,0,0,1,.179-.178A.179.179,0,0,1-283.589,615.028Z" transform="translate(283.986 -614.815)" fill="#b9c1ca"/>
            <path id="Path_26203" data-name="Path 26203" d="M-283.589,615.028a.178.178,0,0,1-.178.179.178.178,0,0,1-.178-.179.178.178,0,0,1,.178-.178A.178.178,0,0,1-283.589,615.028Z" transform="translate(283.985 -614.815)" fill="#bac3cb"/>
            <path id="Path_26204" data-name="Path 26204" d="M-283.589,615.029a.178.178,0,0,1-.178.178.178.178,0,0,1-.177-.178.178.178,0,0,1,.177-.178A.178.178,0,0,1-283.589,615.029Z" transform="translate(283.984 -614.816)" fill="#bbc4cc"/>
            <path id="Path_26205" data-name="Path 26205" d="M-283.589,615.029a.176.176,0,0,1-.176.177.176.176,0,0,1-.176-.177.176.176,0,0,1,.176-.176A.176.176,0,0,1-283.589,615.029Z" transform="translate(283.983 -614.817)" fill="#bcc5ce"/>
            <path id="Path_26206" data-name="Path 26206" d="M-283.589,615.03a.176.176,0,0,1-.176.176.176.176,0,0,1-.176-.176.176.176,0,0,1,.176-.176A.176.176,0,0,1-283.589,615.03Z" transform="translate(283.983 -614.817)" fill="#bdc6cf"/>
            <path id="Path_26207" data-name="Path 26207" d="M-283.589,615.031a.175.175,0,0,1-.176.175.175.175,0,0,1-.175-.175.175.175,0,0,1,.175-.175A.175.175,0,0,1-283.589,615.031Z" transform="translate(283.982 -614.818)" fill="#bec7d0"/>
            <path id="Path_26208" data-name="Path 26208" d="M-283.589,615.032a.174.174,0,0,1-.174.174.174.174,0,0,1-.174-.174.174.174,0,0,1,.174-.175A.174.174,0,0,1-283.589,615.032Z" transform="translate(283.981 -614.819)" fill="#bfc9d1"/>
            <path id="Path_26209" data-name="Path 26209" d="M-283.589,615.032a.174.174,0,0,1-.173.173.174.174,0,0,1-.174-.173.174.174,0,0,1,.174-.173A.173.173,0,0,1-283.589,615.032Z" transform="translate(283.98 -614.82)" fill="#c0cad2"/>
            <path id="Path_26210" data-name="Path 26210" d="M-283.589,615.033a.173.173,0,0,1-.172.172.173.173,0,0,1-.173-.172.173.173,0,0,1,.173-.173A.172.172,0,0,1-283.589,615.033Z" transform="translate(283.979 -614.82)" fill="#c1cbd4"/>
            <path id="Path_26211" data-name="Path 26211" d="M-283.588,615.033a.172.172,0,0,1-.172.172.172.172,0,0,1-.172-.172.172.172,0,0,1,.172-.172A.172.172,0,0,1-283.588,615.033Z" transform="translate(283.979 -614.82)" fill="#c3ccd5"/>
            <path id="Path_26212" data-name="Path 26212" d="M-283.589,615.034a.171.171,0,0,1-.171.171.171.171,0,0,1-.171-.171.171.171,0,0,1,.171-.171A.171.171,0,0,1-283.589,615.034Z" transform="translate(283.978 -614.821)" fill="#c4cdd6"/>
            <path id="Path_26213" data-name="Path 26213" d="M-283.589,615.034a.17.17,0,0,1-.17.17.17.17,0,0,1-.17-.17.17.17,0,0,1,.17-.17A.17.17,0,0,1-283.589,615.034Z" transform="translate(283.977 -614.822)" fill="#c5ced7"/>
            <path id="Path_26214" data-name="Path 26214" d="M-283.589,615.035a.17.17,0,0,1-.17.17.17.17,0,0,1-.17-.17.17.17,0,0,1,.17-.169A.17.17,0,0,1-283.589,615.035Z" transform="translate(283.977 -614.823)" fill="#c6d0d9"/>
            <path id="Path_26215" data-name="Path 26215" d="M-283.589,615.036a.168.168,0,0,1-.169.169.169.169,0,0,1-.169-.169.169.169,0,0,1,.169-.169A.169.169,0,0,1-283.589,615.036Z" transform="translate(283.976 -614.824)" fill="#c7d1da"/>
            <path id="Path_26216" data-name="Path 26216" d="M-283.588,615.037a.168.168,0,0,1-.168.168.168.168,0,0,1-.168-.168.168.168,0,0,1,.168-.168A.168.168,0,0,1-283.588,615.037Z" transform="translate(283.975 -614.824)" fill="#c8d2db"/>
          </g>
        </g>
        <g id="Group_15053" data-name="Group 15053" transform="translate(0.517 0.519)" opacity="0.1">
          <path id="Path_26217" data-name="Path 26217" d="M-291.108,611.954a2.558,2.558,0,0,0-1.758-.692l-17.838.046a2.475,2.475,0,0,0-2.492,2.531l0,1.714,0,41.113Z" transform="translate(313.196 -611.262)" fill="#fff"/>
        </g>
      </g>
      <g id="Group_15059" data-name="Group 15059" transform="translate(3.684 14.503)">
        <g id="Group_15057" data-name="Group 15057" transform="translate(3.861)">
          <path id="Path_26218" data-name="Path 26218" d="M-292.491,650.627a5.043,5.043,0,0,1-4.331,1.422,4.578,4.578,0,0,0,1.109,1.792,4.637,4.637,0,0,0,6.56,0,4.634,4.634,0,0,0-.009-6.551l-3.162,3.161C-292.377,650.511-292.433,650.57-292.491,650.627Z" transform="translate(297.059 -644.028)" fill="#e6e7e8"/>
          <path id="Path_26219" data-name="Path 26219" d="M-292.567,649.579c.058-.057.114-.116.167-.176l-.109.11c.1-.105.2-.213.3-.326a5,5,0,0,0,.634-1.005,4.615,4.615,0,0,0-.92-5.2l-3.271,3.271A4.638,4.638,0,0,0-296.9,651,5.042,5.042,0,0,0-292.567,649.579Z" transform="translate(297.135 -642.981)" fill="#fff"/>
          <g id="Group_15055" data-name="Group 15055" transform="translate(0.016 6.355)">
            <path id="Path_26220" data-name="Path 26220" d="M-292.336,651.376c-.133.077-.269.151-.412.219l.162-.076c-.082.043-.166.085-.251.126a5.815,5.815,0,0,1-4.278.282,4.581,4.581,0,0,0,.221,1.115,5.041,5.041,0,0,0,4.331-1.422c.057-.057.114-.116.167-.175l-.109.11C-292.446,651.5-292.39,651.436-292.336,651.376Z" transform="translate(297.114 -651.376)" fill="#e6e7e8"/>
          </g>
          <g id="Group_15056" data-name="Group 15056" transform="translate(0.113 6.387)">
            <path id="Path_26221" data-name="Path 26221" d="M-290.872,651.418c-.033.026-.064.054-.1.08l.085-.065Z" transform="translate(295.524 -651.418)" fill="#e6e7e8"/>
            <path id="Path_26222" data-name="Path 26222" d="M-292.356,651.449c-.049.041-.1.081-.148.12a5.513,5.513,0,0,1-4.482,1.033c.035.155.074.307.124.458a5.041,5.041,0,0,0,4.331-1.422c.058-.057.114-.116.167-.175l-.109.11C-292.433,651.531-292.394,651.491-292.356,651.449Z" transform="translate(296.986 -651.426)" fill="#e6e7e8"/>
          </g>
        </g>
        <g id="Group_15058" data-name="Group 15058" transform="translate(0 12.23)">
          <path id="Path_26223" data-name="Path 26223" d="M-299.291,661.837h-.509l-.208-.462-.208-.463-.547-1.21-.547,1.21h.7l.208.463h-1.118l-.208.462h-.509l1.218-2.7h.509Z" transform="translate(302.236 -659.138)" fill="#fff"/>
          <path id="Path_26224" data-name="Path 26224" d="M-298.116,661.837v-2.7h.462v2.7Z" transform="translate(301.235 -659.138)" fill="#fff"/>
          <path id="Path_26225" data-name="Path 26225" d="M-296.092,660.085a.954.954,0,0,1,.391.079.934.934,0,0,1,.31.217,1.022,1.022,0,0,1,.2.324,1.078,1.078,0,0,1,.073.4,1.064,1.064,0,0,1-.073.393,1.019,1.019,0,0,1-.2.324.952.952,0,0,1-.31.218.955.955,0,0,1-.391.079.913.913,0,0,1-.413-.089l.166-.413a.535.535,0,0,0,.208.039.572.572,0,0,0,.212-.04.542.542,0,0,0,.182-.122.531.531,0,0,0,.162-.389.539.539,0,0,0-.162-.394.557.557,0,0,0-.393-.162.536.536,0,0,0-.393.162.536.536,0,0,0-.162.394v1.735h-.462v-2.7h.462v.154a1,1,0,0,1,.258-.146A.9.9,0,0,1-296.092,660.085Z" transform="translate(300.999 -659.368)" fill="#fff"/>
          <path id="Path_26226" data-name="Path 26226" d="M-293.188,659.855a.806.806,0,0,1,.343.072.781.781,0,0,1,.264.2.909.909,0,0,1,.17.292,1.033,1.033,0,0,1,.06.354v1.068h-.462v-1.068a.43.43,0,0,0-.035-.173.47.47,0,0,0-.1-.146.431.431,0,0,0-.316-.132.436.436,0,0,0-.32.132.435.435,0,0,0-.131.319v1.068h-.462v-2.7h.462v.925a.9.9,0,0,1,.235-.15A.718.718,0,0,1-293.188,659.855Z" transform="translate(300.278 -659.138)" fill="#fff"/>
          <path id="Path_26227" data-name="Path 26227" d="M-289.5,660.135v1.932h-.463V661.1a.536.536,0,0,0-.162-.394.536.536,0,0,0-.393-.162.557.557,0,0,0-.214.043.567.567,0,0,0-.179.119.539.539,0,0,0-.162.394.531.531,0,0,0,.162.389.5.5,0,0,0,.179.122.591.591,0,0,0,.214.04.536.536,0,0,0,.208-.039l.166.413a.914.914,0,0,1-.413.089.955.955,0,0,1-.391-.079.952.952,0,0,1-.31-.218.992.992,0,0,1-.2-.324,1.049,1.049,0,0,1-.073-.393,1.063,1.063,0,0,1,.073-.4,1,1,0,0,1,.2-.324.934.934,0,0,1,.31-.217.954.954,0,0,1,.391-.079.9.9,0,0,1,.335.058,1,1,0,0,1,.258.146v-.154Z" transform="translate(299.635 -659.368)" fill="#fff"/>
          <path id="Path_26228" data-name="Path 26228" d="M-287.106,659.215a.982.982,0,0,1,.309.208.994.994,0,0,1,.208.307.92.92,0,0,1,.077.376.933.933,0,0,1-.077.378.986.986,0,0,1-.208.309,1,1,0,0,1-.309.208.938.938,0,0,1-.378.077h-.385l.188-.463h.2a.491.491,0,0,0,.359-.15.49.49,0,0,0,.151-.359.47.47,0,0,0-.151-.354.489.489,0,0,0-.359-.15h-.543v2.236h-.463v-2.7h1.006A.934.934,0,0,1-287.106,659.215Z" transform="translate(298.895 -659.138)" fill="#e6e7e8"/>
          <path id="Path_26229" data-name="Path 26229" d="M-283.7,660.135v1.932h-.463V661.1a.538.538,0,0,0-.161-.394.539.539,0,0,0-.394-.162.556.556,0,0,0-.214.043.567.567,0,0,0-.179.119.539.539,0,0,0-.161.394.531.531,0,0,0,.161.389.5.5,0,0,0,.179.122.59.59,0,0,0,.214.04.532.532,0,0,0,.208-.039l.166.413a.913.913,0,0,1-.412.089.956.956,0,0,1-.391-.079.953.953,0,0,1-.31-.218,1.02,1.02,0,0,1-.2-.324,1.065,1.065,0,0,1-.073-.393,1.079,1.079,0,0,1,.073-.4,1.023,1.023,0,0,1,.2-.324.935.935,0,0,1,.31-.217.954.954,0,0,1,.391-.079.905.905,0,0,1,.335.058,1,1,0,0,1,.258.146v-.154Z" transform="translate(298.225 -659.368)" fill="#e6e7e8"/>
          <path id="Path_26230" data-name="Path 26230" d="M-280.544,660.157l-.895,1.927-.12.263a.864.864,0,0,1-.324.374.866.866,0,0,1-.478.138h-.2l.116-.463h.111a.374.374,0,0,0,.208-.062.374.374,0,0,0,.143-.166l.039-.085-.895-1.927h.509l.64,1.38.64-1.38Z" transform="translate(297.522 -659.386)" fill="#e6e7e8"/>
        </g>
      </g>
    </g>
    <rect id="Rectangle_6565" data-name="Rectangle 6565" width="64" height="64" fill="none"/>
  </g>
</svg>
