<svg xmlns="http://www.w3.org/2000/svg" xmlns:xlink="http://www.w3.org/1999/xlink" width="30" height="30" viewBox="0 0 30 30">
  <defs>
    <clipPath id="clip-path">
      <rect width="30" height="30" fill="none"/>
    </clipPath>
  </defs>
  <g id="Repeat_Grid_4" data-name="Repeat Grid 4" transform="translate(0)" clip-path="url(#clip-path)">
    <g id="Group_13051" data-name="Group 13051" transform="translate(-0.001 -1.995)">
      <path id="Path_21967" data-name="Path 21967" d="M22.283,70.766a1.88,1.88,0,0,0-2.669,0l-1.958,1.971a2.139,2.139,0,0,1-3.04,0L8.742,66.821a2.178,2.178,0,0,1,0-3.061L10.7,61.788a1.909,1.909,0,0,0,0-2.687L6.774,55.147a1.877,1.877,0,0,0-2.668,0L2.6,56.665A8.892,8.892,0,0,0,.091,61.7a9.076,9.076,0,0,0,.925,5.444.443.443,0,0,0,.6.188.449.449,0,0,0,.187-.605,8.166,8.166,0,0,1-.832-4.9,7.993,7.993,0,0,1,1.954-4.21l5.326,5.364-.139.14a3.08,3.08,0,0,0,0,4.329l5.875,5.916a3.025,3.025,0,0,0,4.3,0l.139-.14,5.326,5.364a7.945,7.945,0,0,1-10.98-.307L3.231,68.68c-.188-.19-.369-.39-.537-.6a.443.443,0,0,0-.626-.063.45.45,0,0,0-.062.631c.186.229.387.452.6.663l9.54,9.607a8.835,8.835,0,0,0,12.558.006l1.509-1.52a1.91,1.91,0,0,0,0-2.687ZM3.546,56.979l1.189-1.2a.992.992,0,0,1,1.41,0l3.926,3.954a1.01,1.01,0,0,1,0,1.419l-1.189,1.2ZM25.579,76.773l-1.189,1.2L19.055,72.6l1.189-1.2a.993.993,0,0,1,1.41,0l3.926,3.954a1.009,1.009,0,0,1,0,1.42Z" transform="translate(0 -49.547)" fill="#b7b7b7"/>
      <path id="Path_21968" data-name="Path 21968" d="M223.308,136.246c-.917.67-1.865,1.363-1.865,2.284v1.084a.356.356,0,0,0,.182.29.661.661,0,0,0,.351.109h3.98c.2,0,.4-.264.4-.544s-.186-.521-.4-.521h-3.279v-.417c0-.539.644-.991,1.39-1.514a8.886,8.886,0,0,0,1.5-1.225,2.525,2.525,0,0,0,.734-1.733,2.137,2.137,0,0,0-.712-1.621,2.643,2.643,0,0,0-3.294-.068,1.84,1.84,0,0,0-.691,1.443c0,.449.178.667.544.667a.737.737,0,0,0,.464-.141.406.406,0,0,0,.169-.313,1.075,1.075,0,0,1,.327-.833,1.171,1.171,0,0,1,.794-.266,1.135,1.135,0,0,1,1.2,1.166,1.68,1.68,0,0,1-.556,1.146A9.475,9.475,0,0,1,223.308,136.246Z" transform="translate(-208.409 -122.105)" fill="#b7b7b7"/>
      <path id="Path_21969" data-name="Path 21969" d="M310.552,132.293c0-.28-.361-.466-.6-.466a.57.57,0,0,0-.521.328l-2.7,5.332a.52.52,0,0,0-.068.25.414.414,0,0,0,.421.443h2.742v1.435a.341.341,0,0,0,.187.3.821.821,0,0,0,.413.1.831.831,0,0,0,.409-.1.342.342,0,0,0,.191-.3v-1.435h.54c.211,0,.41-.27.41-.555a.729.729,0,0,0-.1-.388.356.356,0,0,0-.308-.178h-.54v-1.535c0-.294-.323-.4-.6-.4s-.6.1-.6.4v1.535H308.2l2.3-4.584A.415.415,0,0,0,310.552,132.293Z" transform="translate(-288.605 -122.105)" fill="#b7b7b7"/>
      <path id="Path_21970" data-name="Path 21970" d="M167.086,52.507l-.578-.334a13.826,13.826,0,0,0,.607-4.065,13.669,13.669,0,0,0-1.315-5.893.439.439,0,1,0-.793.375,13.007,13.007,0,0,1,.559,9.646.439.439,0,0,0,.2.52l.214.123-2.66,1.475.325-2.868.318.226a.439.439,0,0,0,.675-.232,11.8,11.8,0,0,0-18.3-12.873.439.439,0,0,0,.521.706,10.825,10.825,0,0,1,6.472-2.129,10.928,10.928,0,0,1,10.629,13.447l-.41-.292a.439.439,0,0,0-.69.308l-.5,4.453a.439.439,0,0,0,.649.433l4.083-2.264a.439.439,0,0,0,.007-.764Z" transform="translate(-137.305 -32.323)" fill="#b7b7b7"/>
      <path id="Path_21971" data-name="Path 21971" d="M123.151,5.523a12.916,12.916,0,0,1,16.971,1.132,13.1,13.1,0,0,1,1.62,1.971.439.439,0,1,0,.729-.488,13.973,13.973,0,0,0-1.729-2.1,13.794,13.794,0,0,0-18.126-1.207.439.439,0,0,0,.534.7Z" transform="translate(-114.971 0)" fill="#b7b7b7"/>
    </g>
  </g>
</svg>
