<svg xmlns="http://www.w3.org/2000/svg" width="30" height="23" viewBox="0 0 30 23">
  <g id="Group_13059" data-name="Group 13059" transform="translate(0 -4.482)">
    <g id="Group_13058" data-name="Group 13058" transform="translate(4.768 15.704)">
      <path id="Path_21973" data-name="Path 21973" d="M25.188,21.591a.5.5,0,0,1-.346-.138l-5.827-5.466a.506.506,0,1,1,.694-.737l5.827,5.466a.506.506,0,0,1-.347.875Z" transform="translate(-5.231 -15.111)" fill="#b7b7b7"/>
      <path id="Path_21974" data-name="Path 21974" d="M5.908,21.591a.506.506,0,0,1-.347-.875L11.39,15.25a.506.506,0,1,1,.694.737L6.255,21.453A.5.5,0,0,1,5.908,21.591Z" transform="translate(-5.402 -15.111)" fill="#b7b7b7"/>
    </g>
    <path id="Path_21975" data-name="Path 21975" d="M27.582,27.482H2.418A2.521,2.521,0,0,1,0,24.874V7.09A2.521,2.521,0,0,1,2.418,4.482H27.582A2.521,2.521,0,0,1,30,7.09V24.874A2.521,2.521,0,0,1,27.582,27.482ZM2.418,5.525A1.513,1.513,0,0,0,.967,7.09V24.874a1.513,1.513,0,0,0,1.451,1.565H27.582a1.513,1.513,0,0,0,1.451-1.565V7.09a1.513,1.513,0,0,0-1.451-1.565Z" fill="#b7b7b7"/>
    <path id="Path_21976" data-name="Path 21976" d="M14.991,18.179a2.624,2.624,0,0,1-1.772-.67L.824,6.166a.525.525,0,0,1-.047-.715A.47.47,0,0,1,1.458,5.4L13.853,16.744a1.741,1.741,0,0,0,2.275,0L28.508,5.421a.468.468,0,0,1,.682.049.525.525,0,0,1-.046.715L16.764,17.508A2.622,2.622,0,0,1,14.991,18.179Z" transform="translate(0.008 0.01)" fill="#b7b7b7"/>
  </g>
</svg>
