<svg id="Group_13075" data-name="Group 13075" xmlns="http://www.w3.org/2000/svg" width="30.067" height="30.067" viewBox="0 0 30.067 30.067">
  <path id="Path_21987" data-name="Path 21987" d="M9.363,18.726A9.363,9.363,0,1,1,18.5,7.329a2.552,2.552,0,0,0,2.345-.578.587.587,0,0,1,.988.515,6.61,6.61,0,0,1-3.438,4.55,9.414,9.414,0,0,1-3.2,4.869A9.262,9.262,0,0,1,9.363,18.726Zm0-17.551a8.189,8.189,0,1,0,7.961,10.113.588.588,0,0,1,.3-.381,6.257,6.257,0,0,0,2.611-2.48,4.379,4.379,0,0,1-2.385-.047.587.587,0,0,1-.421-.463A8.174,8.174,0,0,0,9.363,1.175Z" fill="#b7b7b7"/>
  <path id="Path_21988" data-name="Path 21988" d="M222.889,270.092a7.549,7.549,0,0,1-7.271-5.52,5.34,5.34,0,0,1-2.742-3.669.587.587,0,0,1,.989-.515,1.877,1.877,0,0,0,1.675.44,7.547,7.547,0,1,1,7.35,9.264Zm-8.372-8.106a5,5,0,0,0,1.883,1.677.586.586,0,0,1,.3.381,6.372,6.372,0,1,0-.078-2.623.587.587,0,0,1-.421.463A3.736,3.736,0,0,1,214.517,261.986Z" transform="translate(-200.368 -240.025)" fill="#b7b7b7"/>
  <path id="Path_21989" data-name="Path 21989" d="M331.587,375.174A.587.587,0,1,1,332,375,.592.592,0,0,1,331.587,375.174Z" transform="translate(-311.562 -352.037)" fill="#b7b7b7"/>
  <path id="Path_21990" data-name="Path 21990" d="M374.587,375.174A.587.587,0,1,1,375,375,.592.592,0,0,1,374.587,375.174Z" transform="translate(-352.037 -352.037)" fill="#b7b7b7"/>
  <path id="Path_21991" data-name="Path 21991" d="M417.587,375.174A.587.587,0,1,1,418,375,.59.59,0,0,1,417.587,375.174Z" transform="translate(-392.511 -352.037)" fill="#b7b7b7"/>
  <path id="Path_21992" data-name="Path 21992" d="M85.466,126.175H77.587a.587.587,0,1,1,0-1.175h7.879a.587.587,0,0,1,0,1.175Z" transform="translate(-72.478 -117.659)" fill="#b7b7b7"/>
  <path id="Path_21993" data-name="Path 21993" d="M82.814,174.175H77.587a.587.587,0,1,1,0-1.175h5.227a.587.587,0,0,1,0,1.175Z" transform="translate(-72.478 -162.84)" fill="#b7b7b7"/>
  <path id="Path_21994" data-name="Path 21994" d="M211.759,174.175a.588.588,0,1,1,.415-.172A.594.594,0,0,1,211.759,174.175Z" transform="translate(-198.771 -162.84)" fill="#b7b7b7"/>
</svg>
