<svg xmlns="http://www.w3.org/2000/svg" width="31.349" height="30.186" viewBox="0 0 31.349 30.186">
  <g id="_24-hours" data-name="24-hours" transform="translate(0 -0.5)">
    <path id="Path_22603" data-name="Path 22603" d="M324.893,309.225H322.45v-.212a.76.76,0,0,1,.286-.521c.8-.767,2.5-1.4,2.5-2.922a1.817,1.817,0,0,0-1.966-1.749,1.722,1.722,0,0,0-1.87,1.612q0,.613.509.613c.309,0,.586-.17.586-.433a.761.761,0,0,1,.22-.6.9.9,0,0,1,1.176.04c.565.651-.1,1.378-.788,1.889-.232.2-1.746,1.019-1.746,2.062v.854c0,.216.293.361.489.361H324.9a.3.3,0,0,0,.245-.153C325.387,309.725,325.185,309.225,324.893,309.225Zm0,0" transform="translate(-301.679 -284.748)" fill="#b7b7b7"/>
    <path id="Path_22604" data-name="Path 22604" d="M389.062,307.77v-.964c0-.506-1.139-.5-1.139,0v.964H386.9l1.682-3.364c.233-.467-.723-.891-1.007-.292l-2.076,4.048a.385.385,0,0,0,.324.605h2.1v1.079c0,.492,1.138.505,1.138,0v-1.079h.412c.283,0,.488-.5.263-.85C389.589,307.692,389.4,307.8,389.062,307.77Zm0,0" transform="translate(-361.836 -284.747)" fill="#b7b7b7"/>
    <path id="Path_22605" data-name="Path 22605" d="M141.247,99.214V93.651a.612.612,0,1,0-1.225,0v5.563a2.161,2.161,0,0,0-1.451,1.451h-2.963a.612.612,0,1,0,0,1.224h2.963a2.152,2.152,0,1,0,2.676-2.675Zm-.612,2.991a.928.928,0,1,1,.928-.928A.929.929,0,0,1,140.635,102.205Zm0,0" transform="translate(-126.73 -86.873)" fill="#b7b7b7"/>
    <path id="Path_22606" data-name="Path 22606" d="M309.586,259.678a.612.612,0,1,0-.493.6A.613.613,0,0,0,309.586,259.678Zm0,0" transform="translate(-289.481 -242.733)" fill="#b7b7b7"/>
    <path id="Path_22607" data-name="Path 22607" d="M31.093,20.9a7.745,7.745,0,0,0-3.41-4.634A13.9,13.9,0,1,0,17.518,27.833,7.8,7.8,0,0,0,31.093,20.9Zm-5.877,8.342a6.588,6.588,0,0,1-7.06-2.593l-.021-.03a6.575,6.575,0,0,1-.149-7.252c.286-.453.41-.507.423-.773a.613.613,0,0,0-1.1-.4,7.766,7.766,0,0,0-1.5,5.7A9.687,9.687,0,1,1,13.9,4.718,9.583,9.583,0,0,1,20.266,7.1l-.7-.057a.612.612,0,0,0-.1,1.22c2.217.182,2.1.175,2.145.175a.613.613,0,0,0,.609-.557l.189-2.092a.612.612,0,1,0-1.22-.11l-.051.563A10.911,10.911,0,1,0,16.066,25.1a7.954,7.954,0,0,0,.706,1.658A12.681,12.681,0,1,1,26.584,14.4c0,.421-.021.844-.063,1.266a7.744,7.744,0,0,0-1.734-.493c.018-.257.028-.515.028-.773a10.827,10.827,0,0,0-.958-4.477.612.612,0,1,0-1.116.5,9.611,9.611,0,0,1,.85,3.974c0,.225-.008.45-.023.675a7.853,7.853,0,0,0-2,.258.612.612,0,0,0-.437.748c.193.735.868.367,1.587.274a6.577,6.577,0,0,1,2.5,12.887Zm0,0" transform="translate(0)" fill="#b7b7b7"/>
  </g>
</svg>
