<svg xmlns="http://www.w3.org/2000/svg" width="24.157" height="24.158" viewBox="0 0 24.157 24.158">
  <g id="Group_14459" data-name="Group 14459" transform="translate(-203 -1305.393)">
    <path id="Path_21996" data-name="Path 21996" d="M265.619,245h-17.08A3.543,3.543,0,0,0,245,248.539v17.08a3.543,3.543,0,0,0,3.539,3.539h17.08a3.543,3.543,0,0,0,3.539-3.539v-17.08A3.543,3.543,0,0,0,265.619,245Zm-8.493,18.4a6.37,6.37,0,1,1,6.37-6.37,6.377,6.377,0,0,1-6.37,6.37Zm7.077-11.324a2.123,2.123,0,1,1,2.123-2.123,2.126,2.126,0,0,1-2.123,2.123Zm0,0" transform="translate(-42 1060.393)" fill="#3b3b3b"/>
    <path id="Path_21997" data-name="Path 21997" d="M559.31,317a.708.708,0,1,0,.708.708.708.708,0,0,0-.708-.708Zm0,0" transform="translate(-337.107 992.639)" fill="#3b3b3b"/>
    <path id="Path_21998" data-name="Path 21998" d="M371.556,365a4.954,4.954,0,1,0,4.954,4.954A4.96,4.96,0,0,0,371.556,365Zm0,0" transform="translate(-156.43 947.47)" fill="#3b3b3b"/>
  </g>
</svg>
