<svg xmlns="http://www.w3.org/2000/svg" width="27.442" height="19.213" viewBox="0 0 27.442 19.213">
  <path id="youtube" d="M26.876-3.076a3.438,3.438,0,0,0-2.419-2.419c-2.147-.588-10.737-.588-10.737-.588s-8.589,0-10.737.565A3.508,3.508,0,0,0,.565-3.076,36.225,36.225,0,0,0,0,3.525a36.092,36.092,0,0,0,.565,6.6,3.438,3.438,0,0,0,2.419,2.419c2.17.588,10.737.588,10.737.588s8.589,0,10.737-.565a3.438,3.438,0,0,0,2.419-2.419,36.236,36.236,0,0,0,.565-6.6A34.387,34.387,0,0,0,26.876-3.076ZM10.986,7.639V-.589l7.143,4.114Zm0,0" transform="translate(0 6.082)" fill="#3b3b3b"/>
</svg>
