<svg xmlns="http://www.w3.org/2000/svg" width="17.236" height="28.676" viewBox="0 0 17.236 28.676">
  <g id="Group_8571" data-name="Group 8571" transform="translate(-174.131 -1604.83)">
    <path id="Path_13360" data-name="Path 13360" d="M127.081,418.13a1.591,1.591,0,1,0,1.591,1.591A1.592,1.592,0,0,0,127.081,418.13Zm0,2.08a.489.489,0,1,1,.489-.489A.489.489,0,0,1,127.081,420.21Z" transform="translate(55.669 1210.118)" fill="#b7b7b7"/>
    <path id="Path_13361" data-name="Path 13361" d="M140.271,41.613h2.823a.581.581,0,0,0,0-1.163h-2.823a.581.581,0,0,0,0,1.163Z" transform="translate(42.265 1566.645)" fill="#b7b7b7"/>
    <ellipse id="Ellipse_1466" data-name="Ellipse 1466" cx="0.61" cy="0.61" rx="0.61" ry="0.61" transform="translate(180.141 1607.08)" fill="#b7b7b7"/>
    <path id="Path_13362" data-name="Path 13362" d="M15.4,0H1.836A1.838,1.838,0,0,0,0,1.836v25a1.838,1.838,0,0,0,1.836,1.837H15.4a1.838,1.838,0,0,0,1.836-1.836v-25A1.838,1.838,0,0,0,15.4,0Zm.612,26.84a.613.613,0,0,1-.612.612H1.836a.613.613,0,0,1-.612-.612v-25a.613.613,0,0,1,.612-.612H15.4a.613.613,0,0,1,.612.612Z" transform="translate(174.131 1604.83)" fill="#b7b7b7"/>
    <path id="Path_13363" data-name="Path 13363" d="M101.76,206.162a.612.612,0,0,0,.433-.179l2.94-2.94a.612.612,0,0,0-.866-.866l-2.94,2.94a.612.612,0,0,0,.433,1.045Z" transform="translate(78.648 1414.146)" fill="#b7b7b7"/>
    <path id="Path_13364" data-name="Path 13364" d="M164.027,234.634a.613.613,0,0,0,.866,0l1.171-1.171a.612.612,0,1,0-.866-.866l-1.171,1.171A.612.612,0,0,0,164.027,234.634Z" transform="translate(19.46 1385.429)" fill="#b7b7b7"/>
    <path id="Path_13365" data-name="Path 13365" d="M56.362,80.89H45.231a.551.551,0,0,0-.551.551V98.315a.551.551,0,0,0,.551.551h11.13a.551.551,0,0,0,.551-.551V81.441A.551.551,0,0,0,56.362,80.89Zm-.551,16.874H45.782V81.992H55.811V97.764Z" transform="translate(131.953 1528.47)" fill="#b7b7b7"/>
  </g>
</svg>
