<svg xmlns="http://www.w3.org/2000/svg" width="35.729" height="35.729" viewBox="0 0 35.729 35.729">
  <g id="Group_8580" data-name="Group 8580" transform="translate(-655.041 -2057.49)">
    <rect id="Rectangle_3374" data-name="Rectangle 3374" width="1.181" height="1.153" transform="translate(658.949 2075.942) rotate(-12.516)" fill="#b7b7b7"/>
    <path id="Path_13412" data-name="Path 13412" d="M32.272,16.8v-2.97H28.238v.785L21.9,11.183v-4.5a4.062,4.062,0,0,0-.079-.791l-.634-3.167a3.388,3.388,0,0,0-6.644,0l-.634,3.167a4.112,4.112,0,0,0-.078.791v4.5L7.492,14.617v-.786H3.458V16.8L0,18.674V21.9H1.2l12.629-2.2v4.563a14.369,14.369,0,0,0,.62,4.141L8.644,32.551v3.178H9.867l6.467-1.617.539,1.617h1.983l.539-1.617,6.4,1.6,1.292.017V32.551l-5.806-4.146a14.362,14.362,0,0,0,.62-4.141V19.7l12.58,2.188,1.251.009V18.674ZM29.39,14.983h1.729v1.194l-1.729-.936Zm-24.78,0H6.339v.257l-1.729.936ZM1.153,20.738V19.36l12.678-6.868v3.757L6.214,17.942l.25,1.125,7.367-1.636v1.1ZM9.8,34.559V33.145l5.02-3.584,1.152,3.456Zm8.229.018H17.7l-2.04-6.122a13.238,13.238,0,0,1-.68-4.191V6.681a2.866,2.866,0,0,1,.056-.565l.634-3.167a2.235,2.235,0,0,1,4.383,0l.634,3.166a2.935,2.935,0,0,1,.055.566V24.265a13.234,13.234,0,0,1-.68,4.191Zm7.907-.018-6.172-1.543,1.152-3.456,5.02,3.585Zm8.644-13.821L21.9,18.533v-1.1l7.366,1.637.25-1.125L21.9,16.25V12.493l12.678,6.868Z" transform="translate(655.041 2057.489)" fill="#b7b7b7"/>
    <rect id="Rectangle_3375" data-name="Rectangle 3375" width="1.153" height="1.181" transform="translate(685.461 2076.812) rotate(-77.473)" fill="#b7b7b7"/>
  </g>
</svg>
