<svg xmlns="http://www.w3.org/2000/svg" width="27.975" height="28.353" viewBox="0 0 27.975 28.353">
  <g id="Group_14448" data-name="Group 14448" transform="translate(-646.489 -2080.174)">
    <g id="Group_14447" data-name="Group 14447">
      <g id="Group_14284" data-name="Group 14284" transform="translate(646.489 2080.174)">
        <g id="Group_8365" data-name="Group 8365" transform="translate(0 0)">
          <path id="Path_13360" data-name="Path 13360" d="M127.063,418.13a1.573,1.573,0,1,0,1.573,1.573A1.574,1.574,0,0,0,127.063,418.13Zm0,2.057a.483.483,0,1,1,.483-.483A.484.484,0,0,1,127.063,420.187Z" transform="translate(-118.541 -394.975)" fill="#b7b7b7"/>
          <path id="Path_13361" data-name="Path 13361" d="M140.265,41.6h2.791a.575.575,0,0,0,0-1.15h-2.791a.575.575,0,0,0,0,1.15Z" transform="translate(-131.954 -38.21)" fill="#b7b7b7"/>
          <ellipse id="Ellipse_1466" data-name="Ellipse 1466" cx="0.604" cy="0.604" rx="0.604" ry="0.604" transform="translate(5.942 2.225)" fill="#b7b7b7"/>
          <path id="Path_13362" data-name="Path 13362" d="M15.228,0H1.815A1.818,1.818,0,0,0,0,1.815V26.537a1.818,1.818,0,0,0,1.815,1.816H15.228a1.817,1.817,0,0,0,1.815-1.815V1.815A1.817,1.817,0,0,0,15.228,0Zm.6,26.538a.606.606,0,0,1-.605.605H1.815a.606.606,0,0,1-.605-.605V1.815a.606.606,0,0,1,.605-.605H15.228a.606.606,0,0,1,.605.605Z" fill="#b7b7b7"/>
          <path id="Path_13363" data-name="Path 13363" d="M101.753,206.115a.6.6,0,0,0,.428-.177l2.907-2.907a.605.605,0,0,0-.856-.856l-2.907,2.907a.606.606,0,0,0,.428,1.033Z" transform="translate(-95.546 -190.811)" fill="#b7b7b7"/>
          <path id="Path_13364" data-name="Path 13364" d="M164.025,234.609a.606.606,0,0,0,.856,0l1.158-1.158a.605.605,0,0,0-.856-.856l-1.158,1.158A.605.605,0,0,0,164.025,234.609Z" transform="translate(-154.774 -219.547)" fill="#b7b7b7"/>
          <path id="Path_13365" data-name="Path 13365" d="M56.23,80.89H45.225a.545.545,0,0,0-.545.545V98.119a.545.545,0,0,0,.545.545H56.23a.545.545,0,0,0,.545-.545V81.435A.545.545,0,0,0,56.23,80.89Zm-.544,16.684H45.77V81.98h9.916V97.574Z" transform="translate(-42.206 -76.411)" fill="#b7b7b7"/>
        </g>
        <circle id="Ellipse_3489" data-name="Ellipse 3489" cx="6.921" cy="6.921" r="6.921" transform="translate(12.724 7.306)" fill="#fff"/>
        <g id="Group_14283" data-name="Group 14283" transform="translate(15.986 9.775)">
          <path id="Path_22576" data-name="Path 22576" d="M63.688,68.316a3.955,3.955,0,1,0,3.955,3.955A3.959,3.959,0,0,0,63.688,68.316Zm0,7.566A3.611,3.611,0,1,1,67.3,72.271,3.615,3.615,0,0,1,63.688,75.882Z" transform="translate(-59.733 -68.316)" fill="#b7b7b7" stroke="#b7b7b7" stroke-width="0.4"/>
          <path id="Path_22577" data-name="Path 22577" d="M216.189,85.4a.176.176,0,0,0-.05-.015l-.04-.005a.172.172,0,0,0-.162.067.175.175,0,0,0-.023.173c.12.286.263.865.08,1l-.4.162a.9.9,0,0,0-.56.735l0,.02a.108.108,0,0,1-.09.093.124.124,0,0,1-.134-.057l-.173-.289a.333.333,0,0,0-.587.029,4.417,4.417,0,0,0-.4,1.21.637.637,0,0,0,.064.36l.2.4a.879.879,0,0,0,.317.349,2.286,2.286,0,0,1,.505.417,1.05,1.05,0,0,0,.639.374,1.764,1.764,0,0,0,.234,1.1.4.4,0,0,0,.283.132.753.753,0,0,0,.1.006.85.85,0,0,0,.543-.193,1.487,1.487,0,0,0,.42-1.19l.25-1.125.095.158a.531.531,0,0,0,.774.152l.381-.286a.174.174,0,0,0,.07-.14A4.027,4.027,0,0,0,216.189,85.4Zm1.668,3.788a.182.182,0,0,1-.266-.052l-.181-.3a.282.282,0,0,0-.517.084l-.29,1.306a.172.172,0,0,0,0,.038,1.217,1.217,0,0,1-.289.936.5.5,0,0,1-.376.113c-.022,0-.04.014-.076-.025a1.718,1.718,0,0,1-.134-.985.2.2,0,0,0-.2-.214.686.686,0,0,1-.523-.26,2.569,2.569,0,0,0-.588-.49.528.528,0,0,1-.191-.21l-.2-.4a.288.288,0,0,1-.029-.163,4.132,4.132,0,0,1,.356-1.076l.158.264a.47.47,0,0,0,.5.219.456.456,0,0,0,.366-.387l0-.028a.554.554,0,0,1,.343-.451l.421-.168.026-.013c.331-.2.289-.683.2-1.036a3.68,3.68,0,0,1,1.8,3.068Z" transform="translate(-210.607 -85.034)" fill="#b7b7b7" stroke="#b7b7b7" stroke-width="0.4"/>
          <path id="Path_22578" data-name="Path 22578" d="M69.222,290.422l-.106-.106a1.412,1.412,0,0,0-.445-.3l-.538-.231a.588.588,0,0,1-.357-.542v-.263a.49.49,0,0,0-.662-.459l-.838.314a.175.175,0,0,0-.107.209,4.035,4.035,0,0,0,3.089,2.893.178.178,0,0,0,.034,0,.175.175,0,0,0,.168-.126l.064-.224A1.191,1.191,0,0,0,69.222,290.422Zm-.033,1.073-.019.066a3.688,3.688,0,0,1-2.619-2.454l.686-.257a.141.141,0,0,1,.191.132v.263a.937.937,0,0,0,.568.862l.538.231a1.069,1.069,0,0,1,.335.227l.106.106A.842.842,0,0,1,69.19,291.495Z" transform="translate(-66.032 -284.105)" fill="#b7b7b7" stroke="#b7b7b7" stroke-width="0.4"/>
          <path id="Path_22579" data-name="Path 22579" d="M62.189,94.827a.174.174,0,0,0-.225-.04,4.007,4.007,0,0,0-1.953,3.232.174.174,0,0,0,.174.184.178.178,0,0,0,.063-.012l1.082-.427a.528.528,0,0,0,.3-.657.179.179,0,0,1,.043-.183l.5-.5a.9.9,0,0,0,.266-.643v-.227A1.154,1.154,0,0,0,62.189,94.827Zm-.09.951a.555.555,0,0,1-.164.4l-.5.5a.525.525,0,0,0-.127.54.179.179,0,0,1-.1.223l-.817.324A3.657,3.657,0,0,1,62,95.175a.8.8,0,0,1,.1.377v.227Z" transform="translate(-60.005 -94.222)" fill="#b7b7b7" stroke="#b7b7b7" stroke-width="0.4"/>
        </g>
        <path id="Path_22580" data-name="Path 22580" d="M.85,0A6.476,6.476,0,0,0,.191.034.213.213,0,0,0,.212.457H.234A6.111,6.111,0,0,1,.85.425.213.213,0,0,0,.85,0Z" transform="translate(14.176 11.344) rotate(-60)" fill="#b7b7b7" stroke="#b7b7b7" stroke-width="0.4"/>
        <path id="Path_22581" data-name="Path 22581" d="M.509,1.433a6.018,6.018,0,0,1-.084-1q0-.106,0-.212A.213.213,0,0,0,0,.205Q0,.318,0,.432A6.459,6.459,0,0,0,.09,1.5.213.213,0,0,0,.3,1.681a.208.208,0,0,0,.036,0A.213.213,0,0,0,.509,1.433Z" transform="translate(16.56 19.101) rotate(-60)" fill="#b7b7b7" stroke="#b7b7b7" stroke-width="0.4"/>
        <path id="Path_22582" data-name="Path 22582" d="M.41.135a.212.212,0,1,0-.4.155,6.382,6.382,0,0,0,.6,1.157.212.212,0,1,0,.356-.232A5.946,5.946,0,0,1,.41.135Z" transform="translate(18.909 19.968) rotate(-60)" fill="#b7b7b7" stroke="#b7b7b7" stroke-width="0.4"/>
        <path id="Path_22583" data-name="Path 22583" d="M.162,1.6a.218.218,0,0,0,.051.006.213.213,0,0,0,.206-.162A5.917,5.917,0,0,1,.827.3.212.212,0,1,0,.443.121,6.338,6.338,0,0,0,.006,1.347.212.212,0,0,0,.162,1.6Z" transform="translate(14.542 17.733) rotate(-60)" fill="#b7b7b7" stroke="#b7b7b7" stroke-width="0.4"/>
        <path id="Path_22584" data-name="Path 22584" d="M1.211.373A.213.213,0,0,0,.932.052,6.433,6.433,0,0,0,.043,1a.212.212,0,1,0,.338.257A5.988,5.988,0,0,1,1.211.373Z" transform="translate(13.355 15.803) rotate(-60)" fill="#b7b7b7" stroke="#b7b7b7" stroke-width="0.4"/>
        <path id="Path_22585" data-name="Path 22585" d="M1.459.347A5.931,5.931,0,0,1,.291.015.212.212,0,1,0,.134.41,6.348,6.348,0,0,0,1.386.766a.219.219,0,0,0,.037,0A.212.212,0,0,0,1.459.347Z" transform="translate(23.649 18.714) rotate(-60)" fill="#b7b7b7" stroke="#b7b7b7" stroke-width="0.4"/>
        <path id="Path_22586" data-name="Path 22586" d="M1.667.163A.213.213,0,0,0,1.411.006a5.962,5.962,0,0,1-1.2.158A.212.212,0,0,0,.212.589H.219A6.394,6.394,0,0,0,1.509.419.213.213,0,0,0,1.667.163Z" transform="translate(25.116 16.715) rotate(-60)" fill="#b7b7b7" stroke="#b7b7b7" stroke-width="0.4"/>
        <path id="Path_22587" data-name="Path 22587" d="M1.568.148A.213.213,0,0,0,1.3.01,6.35,6.35,0,0,0,.108.53.213.213,0,0,0,.317.9,5.913,5.913,0,0,1,1.43.415.213.213,0,0,0,1.568.148Z" transform="translate(13.233 13.555) rotate(-60)" fill="#b7b7b7" stroke="#b7b7b7" stroke-width="0.4"/>
        <path id="Path_22588" data-name="Path 22588" d="M1.3.833A5.993,5.993,0,0,1,.363.063a.213.213,0,1,0-.3.3,6.43,6.43,0,0,0,1.006.825A.213.213,0,0,0,1.3.833Z" transform="translate(21.409 19.831) rotate(-60)" fill="#b7b7b7" stroke="#b7b7b7" stroke-width="0.4"/>
        <path id="Path_22589" data-name="Path 22589" d="M.956.1A.213.213,0,0,0,.664.031,5.958,5.958,0,0,1,.122.322.213.213,0,1,0,.3.706,6.349,6.349,0,0,0,.884.394.213.213,0,0,0,.956.1Z" transform="translate(25.714 14.237) rotate(-60)" fill="#b7b7b7" stroke="#b7b7b7" stroke-width="0.4"/>
        <g id="Group_14282" data-name="Group 14282" transform="translate(24.268 11.873) rotate(-60)">
          <path id="Path_22590" data-name="Path 22590" d="M2.123.076A.2.2,0,0,0,1.847.041L.076,1.419A.2.2,0,0,0,0,1.574v.59a.2.2,0,0,0,.394,0V1.671L2.088.352A.2.2,0,0,0,2.123.076Z" transform="translate(0.59 0)" fill="#838383" stroke="#b7b7b7" stroke-width="0.4"/>
          <path id="Path_22591" data-name="Path 22591" d="M.849.207.259.01A.2.2,0,0,0,.134.384l.59.2A.2.2,0,0,0,.849.207Z" transform="translate(0 1.181)" fill="#838383" stroke="#b7b7b7" stroke-width="0.4"/>
          <path id="Path_22592" data-name="Path 22592" d="M1.757,1.7,1.363.714a.2.2,0,0,0-.081-.1L.3.028A.2.2,0,1,0,.1.366l.927.556.369.923a.2.2,0,0,0,.183.124.19.19,0,0,0,.073-.014A.2.2,0,0,0,1.757,1.7Z" transform="translate(0.59 0)" fill="#838383" stroke="#b7b7b7" stroke-width="0.4"/>
        </g>
      </g>
    </g>
  </g>
</svg>
