<svg xmlns="http://www.w3.org/2000/svg" width="26.566" height="28.353" viewBox="0 0 26.566 28.353">
  <g id="Group_14446" data-name="Group 14446" transform="translate(-890.708 -2080.174)">
    <g id="Group_8365" data-name="Group 8365" transform="translate(890.708 2080.174)">
      <path id="Path_13360" data-name="Path 13360" d="M127.063,418.13a1.573,1.573,0,1,0,1.573,1.573A1.574,1.574,0,0,0,127.063,418.13Zm0,2.057a.483.483,0,1,1,.483-.483A.484.484,0,0,1,127.063,420.187Z" transform="translate(-118.541 -394.975)" fill="#b7b7b7"/>
      <path id="Path_13361" data-name="Path 13361" d="M140.265,41.6h2.791a.575.575,0,0,0,0-1.15h-2.791a.575.575,0,0,0,0,1.15Z" transform="translate(-131.954 -38.21)" fill="#b7b7b7"/>
      <ellipse id="Ellipse_1466" data-name="Ellipse 1466" cx="0.604" cy="0.604" rx="0.604" ry="0.604" transform="translate(5.942 2.225)" fill="#b7b7b7"/>
      <path id="Path_13362" data-name="Path 13362" d="M15.228,0H1.815A1.818,1.818,0,0,0,0,1.815V26.537a1.818,1.818,0,0,0,1.815,1.816H15.228a1.817,1.817,0,0,0,1.815-1.815V1.815A1.817,1.817,0,0,0,15.228,0Zm.6,26.538a.606.606,0,0,1-.605.605H1.815a.606.606,0,0,1-.605-.605V1.815a.606.606,0,0,1,.605-.605H15.228a.606.606,0,0,1,.605.605Z" fill="#b7b7b7"/>
      <path id="Path_13363" data-name="Path 13363" d="M101.753,206.115a.6.6,0,0,0,.428-.177l2.907-2.907a.605.605,0,0,0-.856-.856l-2.907,2.907a.606.606,0,0,0,.428,1.033Z" transform="translate(-95.546 -190.811)" fill="#b7b7b7"/>
      <path id="Path_13364" data-name="Path 13364" d="M164.025,234.609a.606.606,0,0,0,.856,0l1.158-1.158a.605.605,0,0,0-.856-.856l-1.158,1.158A.605.605,0,0,0,164.025,234.609Z" transform="translate(-154.774 -219.547)" fill="#b7b7b7"/>
      <path id="Path_13365" data-name="Path 13365" d="M56.23,80.89H45.225a.545.545,0,0,0-.545.545V98.119a.545.545,0,0,0,.545.545H56.23a.545.545,0,0,0,.545-.545V81.435A.545.545,0,0,0,56.23,80.89Zm-.544,16.684H45.77V81.98h9.916V97.574Z" transform="translate(-42.206 -76.411)" fill="#b7b7b7"/>
    </g>
    <circle id="Ellipse_3489" data-name="Ellipse 3489" cx="6.921" cy="6.921" r="6.921" transform="translate(903.432 2087.48)" fill="#fff"/>
    <g id="Group_14285" data-name="Group 14285" transform="translate(905.41 2089.458)">
      <path id="Path_22593" data-name="Path 22593" d="M263.214,381.89a5.214,5.214,0,1,0,5.214,5.214,5.22,5.22,0,0,0-5.214-5.214Zm0,9.319a4.1,4.1,0,1,1,4.105-4.1,4.109,4.109,0,0,1-4.105,4.1Zm0,0" transform="translate(-258 -381.89)" fill="#b7b7b7"/>
      <path id="Path_22594" data-name="Path 22594" d="M296.456,398.6h-2.343v-2.818a.429.429,0,1,0-.858,0v3.247a.429.429,0,0,0,.429.429h2.773a.429.429,0,1,0,0-.859Zm0,0" transform="translate(-288.524 -393.548)" fill="#b7b7b7"/>
    </g>
  </g>
</svg>
