<svg xmlns="http://www.w3.org/2000/svg" xmlns:xlink="http://www.w3.org/1999/xlink" width="31.582" height="25.402" viewBox="0 0 31.582 25.402">
  <defs>
    <clipPath id="clip-path-p2">
      <rect id="Rectangle_3349" data-name="Rectangle 3349" width="31.583" height="25.402" fill="#b7b7b7"/>
    </clipPath>
  </defs>
  <g id="Group_8572" data-name="Group 8572" transform="translate(-408.393 -1608.103)">
    <path id="Path_13366" data-name="Path 13366" d="M41.715,70.406a.615.615,0,0,0,.373-.125l.012-.009a.617.617,0,0,0-.746-.983l-.012.009a.617.617,0,0,0,.373,1.108Zm0,0" transform="translate(369.773 1543.215)" fill="#b7b7b7"/>
    <g id="Group_8369" data-name="Group 8369" transform="translate(408.393 1608.104)" clip-path="url(#clip-path-p2)">
      <path id="Path_13367" data-name="Path 13367" d="M288.395,369.326a.613.613,0,0,0,.373-.125l.012-.009a.617.617,0,1,0-.746-.982l-.012.009a.617.617,0,0,0,.373,1.108Zm0,0" transform="translate(-270.053 -345.334)" fill="#b7b7b7"/>
    </g>
    <g id="Group_8570" data-name="Group 8570" transform="translate(408.393 1608.104)">
      <g id="Group_8370" data-name="Group 8370" clip-path="url(#clip-path-p2)">
        <path id="Path_13368" data-name="Path 13368" d="M31.075,7.231A21.6,21.6,0,0,0,7.524,2.548,21.832,21.832,0,0,0,4.954,3.816l-.091.053a.617.617,0,0,0,.622,1.066l.087-.051A20.557,20.557,0,0,1,8,3.687,20.392,20.392,0,0,1,30.2,8.1a.5.5,0,0,1-.707.706,19.367,19.367,0,0,0-27.407,0A.5.5,0,1,1,1.381,8.1c.271-.271.554-.538.84-.794A.617.617,0,0,0,1.4,6.389c-.3.271-.6.554-.891.842A1.733,1.733,0,0,0,2.959,9.683a18.136,18.136,0,0,1,25.664,0,1.734,1.734,0,0,0,2.452-2.452Zm0,0" transform="translate(-0.062 -0.844)" fill="#b7b7b7"/>
      </g>
    </g>
    <path id="Path_13369" data-name="Path 13369" d="M75.512,82.589A16.656,16.656,0,0,0,57.377,86.2a1.733,1.733,0,0,0,2.451,2.451,13.166,13.166,0,0,1,18.636,0A1.733,1.733,0,0,0,80.915,86.2a16.544,16.544,0,0,0-5.4-3.606Zm4.532,5.185a.5.5,0,0,1-.706,0,14.364,14.364,0,0,0-10.19-4.221h0a14.364,14.364,0,0,0-10.19,4.221.5.5,0,1,1-.706-.706,15.42,15.42,0,0,1,21.793,0,.5.5,0,0,1,0,.706Zm0,0" transform="translate(354.976 1531.81)" fill="#b7b7b7"/>
    <path id="Path_13370" data-name="Path 13370" d="M126.955,162.631a11.685,11.685,0,0,0-12.718,2.528,1.733,1.733,0,0,0,2.452,2.451,8.2,8.2,0,0,1,11.606,0,1.733,1.733,0,1,0,2.451-2.451,11.6,11.6,0,0,0-3.792-2.529Zm2.92,4.107a.5.5,0,0,1-.706,0,9.429,9.429,0,0,0-13.351,0h0a.5.5,0,1,1-.706-.706,10.451,10.451,0,0,1,14.765,0,.5.5,0,0,1,.146.354.5.5,0,0,1-.148.353Zm0,0" transform="translate(301.63 1456.36)" fill="#b7b7b7"/>
    <path id="Path_13371" data-name="Path 13371" d="M198.871,290.27a3.73,3.73,0,1,0,.9,7.351.617.617,0,1,0-.3-1.2,2.509,2.509,0,0,1-.6.074,2.5,2.5,0,1,1,2.5-2.5.617.617,0,0,0,1.234,0,3.73,3.73,0,0,0-3.729-3.73Zm0,0" transform="translate(225.251 1335.774)" fill="#b7b7b7"/>
  </g>
</svg>
