<svg xmlns="http://www.w3.org/2000/svg" width="27.697" height="27.688" viewBox="0 0 27.697 27.688">
  <g id="Group_8574" data-name="Group 8574" transform="translate(-893.742 -1601.92)">
    <path id="Path_13376" data-name="Path 13376" d="M1.353,4.6a2.506,2.506,0,0,0-.261,1.925L1.61,8.513a1.359,1.359,0,0,0,1.324,1A1.393,1.393,0,0,0,3.2,9.49l2.746-.527L8.058,8.5A1.338,1.338,0,0,0,9.15,7.029L8.892,5.052c-.032-.246.532-.519,1.058-.6a29.313,29.313,0,0,1,9.21-.024c.839.144,1.024.279,1.064.329a1.006,1.006,0,0,1,.035.654l-.185,1.314a1.606,1.606,0,0,0,.2,1.243,1.963,1.963,0,0,0,1.248.606c.317.061.561.122.806.181s.518.129.855.193l2.456.474a1.919,1.919,0,0,0,1.295-.075A1.667,1.667,0,0,0,27.7,8.1l.015-.066c.048-.209.11-.417.174-.624a4.843,4.843,0,0,0,.286-1.551,3.631,3.631,0,0,0-1.2-2.424C23.834.356,18.407,0,14.6,0,5.911,0,2.6,2.5,1.353,4.6ZM14.6.906c3.649,0,8.836.329,11.736,3.176a2.744,2.744,0,0,1,.926,1.8,4.107,4.107,0,0,1-.249,1.263c-.069.227-.136.456-.19.685l-.016.069c-.076.337-.136.564-.292.645a1.257,1.257,0,0,1-.7-.013l-2.455-.468c-.317-.061-.562-.122-.807-.181s-.518-.129-.854-.193c-.217-.042-.581-.111-.7-.264a.879.879,0,0,1-.029-.569l.185-1.314a1.75,1.75,0,0,0-.19-1.3,2.565,2.565,0,0,0-1.652-.7,30.228,30.228,0,0,0-9.5.021c-.991.15-1.939.707-1.821,1.612L8.252,7.15a.436.436,0,0,1-.375.467l-2.113.459L3.028,8.6a.462.462,0,0,1-.544-.317L1.967,6.3a1.606,1.606,0,0,1,.162-1.235C3.259,3.166,6.337.906,14.6.906Z" transform="translate(892.994 1602.17)" fill="#b7b7b7" stroke="#b7b7b7" stroke-width="0.5"/>
    <path id="Path_13377" data-name="Path 13377" d="M28.131,158.009a1.4,1.4,0,0,0-.169-.317l-5.76-7.816a1.819,1.819,0,0,0-1.46-.737H19.565l-.4-3.205a.906.906,0,0,0-.906-.873H16.9a.906.906,0,0,0-.906.906v3.625a.453.453,0,1,0,.906,0v-3.625h1.359a.4.4,0,0,0,0,.056l.453,3.625a.454.454,0,0,0,.45.4h1.579a.91.91,0,0,1,.73.369l5.405,7.334H23.242a.453.453,0,1,0,0,.906h4.078v3.625a1.359,1.359,0,0,1-1.359,1.359H3.305a1.359,1.359,0,0,1-1.359-1.359v-3.625H20.977a.453.453,0,1,0,0-.906H2.39l5.4-7.335a.909.909,0,0,1,.73-.369H10.1a.454.454,0,0,0,.45-.4l.453-3.625a.4.4,0,0,0,0-.056h1.359v3.625a.453.453,0,0,0,.453.453h1.812a.453.453,0,1,0,0-.906H13.274v-3.172a.906.906,0,0,0-.906-.906H11.009a.906.906,0,0,0-.906.873l-.4,3.205H8.524a1.82,1.82,0,0,0-1.458.737L1.3,157.693a1.357,1.357,0,0,0-.169.317c0,.01-.01.021-.014.032a1.365,1.365,0,0,0-.082.456v3.78a2.268,2.268,0,0,0,2.265,2.266H25.962a2.269,2.269,0,0,0,2.266-2.266V158.5a1.36,1.36,0,0,0-.082-.456C28.141,158.031,28.137,158.02,28.131,158.009Z" transform="translate(892.961 1464.813)" fill="#b7b7b7" stroke="#b7b7b7" stroke-width="0.5"/>
    <path id="Path_13378" data-name="Path 13378" d="M165.156,257.613a5.2,5.2,0,0,1,1.325-.49,7.624,7.624,0,0,1,3.323,0,.453.453,0,1,0,.2-.883,8.547,8.547,0,0,0-3.733,0,6.1,6.1,0,0,0-1.556.578,3.522,3.522,0,0,0-1.112.913,1.949,1.949,0,0,0,0,2.492,3.522,3.522,0,0,0,1.112.913,6.129,6.129,0,0,0,1.556.578,8.5,8.5,0,0,0,3.733,0,6.094,6.094,0,0,0,1.556-.578,3.522,3.522,0,0,0,1.112-.913,1.949,1.949,0,0,0,0-2.492.453.453,0,1,0-.718.553,1.051,1.051,0,0,1,0,1.388,2.669,2.669,0,0,1-.83.672,5.2,5.2,0,0,1-1.325.49,7.624,7.624,0,0,1-3.323,0,5.208,5.208,0,0,1-1.324-.49,2.67,2.67,0,0,1-.83-.672,1.049,1.049,0,0,1,0-1.388A2.664,2.664,0,0,1,165.156,257.613Z" transform="translate(739.452 1359.731)" fill="#b7b7b7" stroke="#b7b7b7" stroke-width="0.5"/>
  </g>
</svg>
