<svg xmlns="http://www.w3.org/2000/svg" width="31.555" height="27.837" viewBox="0 0 31.555 27.837">
  <g id="Group_8578" data-name="Group 8578" transform="translate(-179.471 -1835.16)">
    <path id="Path_13379" data-name="Path 13379" d="M415.116,52.9a.616.616,0,1,0-.616-.616A.617.617,0,0,0,415.116,52.9Z" transform="translate(-209.483 1786.675)" fill="#b7b7b7"/>
    <path id="Path_13380" data-name="Path 13380" d="M23.62,0a8.915,8.915,0,0,0-6.445,2.738,10.954,10.954,0,0,0-1.4,1.739,10.927,10.927,0,0,0-1.4-1.739A8.915,8.915,0,0,0,7.935,0C3.26,0,0,3.911,0,8.561c0,6.281,6.656,11.57,15.374,19.126a.617.617,0,0,0,.807,0C24.92,20.113,31.555,14.834,31.555,8.561a8.977,8.977,0,0,0-2.19-6A7.588,7.588,0,0,0,23.62,0ZM15.778,26.405C7.546,19.282,1.233,14.165,1.233,8.561c0-4.178,2.881-7.329,6.7-7.329a7.605,7.605,0,0,1,5.539,2.342,9.187,9.187,0,0,1,1.742,2.4h0a.617.617,0,0,0,.561.364h0a.617.617,0,0,0,.562-.364,9.187,9.187,0,0,1,1.742-2.4,7.6,7.6,0,0,1,5.539-2.342c3.821,0,6.7,3.151,6.7,7.329C30.323,14.292,23.593,19.643,15.778,26.405Z" transform="translate(179.471 1835.16)" fill="#b7b7b7"/>
    <path id="Path_13381" data-name="Path 13381" d="M408.973,82.007a.616.616,0,0,0-.259.832,5.716,5.716,0,0,1,.631,2.609c0,1.781-.847,3.671-2.667,5.949a.616.616,0,0,0,.963.769c2-2.508,2.937-4.642,2.937-6.718a6.873,6.873,0,0,0-.772-3.181A.617.617,0,0,0,408.973,82.007Z" transform="translate(-202.016 1758.274)" fill="#b7b7b7"/>
    <path id="Path_13382" data-name="Path 13382" d="M162.45,129.738H159v-3.451a.617.617,0,0,0-.616-.616h-3.7a.617.617,0,0,0-.616.616v3.451h-3.451a.617.617,0,0,0-.616.616v3.7a.617.617,0,0,0,.616.616h3.451v3.451a.617.617,0,0,0,.616.616h3.7a.617.617,0,0,0,.616-.616v-3.451h3.451a.617.617,0,0,0,.616-.616v-3.7A.617.617,0,0,0,162.45,129.738Zm-.616,3.7h-3.451a.617.617,0,0,0-.616.616V137.5H155.3v-3.451a.617.617,0,0,0-.616-.616h-3.451V130.97h3.451a.617.617,0,0,0,.616-.616V126.9h2.465v3.451a.617.617,0,0,0,.616.616h3.451Z" transform="translate(38.715 1717.235)" fill="#b7b7b7"/>
  </g>
</svg>
