<svg xmlns="http://www.w3.org/2000/svg" xmlns:xlink="http://www.w3.org/1999/xlink" width="30.176" height="34.498" viewBox="0 0 30.176 34.498">
  <defs>
    <clipPath id="clip-path-p6">
      <rect id="Rectangle_3365" data-name="Rectangle 3365" width="30.176" height="34.497" fill="#b7b7b7"/>
    </clipPath>
  </defs>
  <g id="Group_8577" data-name="Group 8577" transform="translate(-410 -1828.721)">
    <g id="Group_8405" data-name="Group 8405" transform="translate(410 1828.721)" clip-path="url(#clip-path-p6)">
      <path id="Path_13383" data-name="Path 13383" d="M59.568,21.7v-6.12A2.785,2.785,0,0,0,56.786,12.8H44.545V10.018H43.432V7.6L51.4,4.113a1.553,1.553,0,0,0,.932-1.424V1.559A1.57,1.57,0,0,0,50.429.043L36.936,3.157a1.661,1.661,0,0,0-1.293,1.627v5.235H34.53v23.37H32.86V34.5H46.214V33.388H44.545V18.365H54V21.7a1.114,1.114,0,0,0-1.113,1.112v1.113A1.114,1.114,0,0,0,54,25.042h5.564a1.114,1.114,0,0,0,1.113-1.113V22.816A1.114,1.114,0,0,0,59.568,21.7ZM36.755,4.783a.553.553,0,0,1,.431-.542L50.678,1.126a.446.446,0,0,1,.544.432V2.687a.443.443,0,0,1-.266.406L42.319,6.872v3.146H36.755ZM54,17.252H43.432V33.388H35.643V11.131h7.789v2.782H56.786a1.671,1.671,0,0,1,1.669,1.669V21.7H55.117V18.364A1.113,1.113,0,0,0,54,17.252Zm0,6.676V22.816h5.564v1.113Zm0,0" transform="translate(-30.57 -0.004)" fill="#b7b7b7"/>
    </g>
    <rect id="Rectangle_3366" data-name="Rectangle 3366" width="1.113" height="1.113" transform="translate(416.185 1840.961)" fill="#b7b7b7"/>
    <rect id="Rectangle_3367" data-name="Rectangle 3367" width="1.113" height="17.805" transform="translate(416.185 1843.187)" fill="#b7b7b7"/>
    <path id="Path_13384" data-name="Path 13384" d="M339.042,365.38l-2.489,4.977a2.836,2.836,0,0,0-.293,1.275,2.782,2.782,0,1,0,5.271-1.275Zm0,7.921a1.7,1.7,0,0,1-1.493-2.448l1.493-2.986,1.493,2.986a1.724,1.724,0,0,1,.176.778,1.672,1.672,0,0,1-1.669,1.67Zm0,0" transform="translate(97.174 1488.804)" fill="#b7b7b7"/>
    <rect id="Rectangle_3368" data-name="Rectangle 3368" width="1.113" height="1.113" transform="translate(410.065 1862.106)" fill="#b7b7b7"/>
    <rect id="Rectangle_3369" data-name="Rectangle 3369" width="1.113" height="1.113" transform="translate(426.757 1862.106)" fill="#b7b7b7"/>
  </g>
</svg>
