<svg xmlns="http://www.w3.org/2000/svg" width="27.098" height="19.922" viewBox="0 0 27.098 19.922">
  <g id="Group_8576" data-name="Group 8576" transform="translate(-653.9 -1838.119)">
    <path id="Path_13385" data-name="Path 13385" d="M25,0H1.894A1.891,1.891,0,0,0,0,1.894v15.94a1.89,1.89,0,0,0,1.894,1.888H25.005A1.894,1.894,0,0,0,26.9,17.834V1.894A1.9,1.9,0,0,0,25,0Zm1,17.834a.99.99,0,0,1-.992.992H1.894A.994.994,0,0,1,.9,17.834V1.894A.99.99,0,0,1,1.894.9H25.005A.99.99,0,0,1,26,1.894Zm0,0" transform="translate(654 1838.219)" fill="#b7b7b7" stroke="#b7b7b7" stroke-width="0.2"/>
    <path id="Path_13386" data-name="Path 13386" d="M9.282,23.2H5.248a.448.448,0,1,0,0,.9H9.282a.448.448,0,1,0,0-.9Zm0,0" transform="translate(651.889 1828.017)" fill="#b7b7b7" stroke="#b7b7b7" stroke-width="0.2"/>
    <path id="Path_13387" data-name="Path 13387" d="M19.682,23.2H15.648a.448.448,0,1,0,0,.9h4.034a.448.448,0,1,0,0-.9Zm0,0" transform="translate(647.316 1828.017)" fill="#b7b7b7" stroke="#b7b7b7" stroke-width="0.2"/>
    <path id="Path_13388" data-name="Path 13388" d="M5.7,27.2H5.248a.448.448,0,1,0,0,.9H5.7a.448.448,0,1,0,0-.9Zm0,0" transform="translate(651.889 1826.258)" fill="#b7b7b7" stroke="#b7b7b7" stroke-width="0.2"/>
    <path id="Path_13389" data-name="Path 13389" d="M10.145,27.2h-.9a.448.448,0,1,0,0,.9h.9a.448.448,0,1,0,0-.9Zm0,0" transform="translate(650.13 1826.258)" fill="#b7b7b7" stroke="#b7b7b7" stroke-width="0.2"/>
    <path id="Path_13390" data-name="Path 13390" d="M14.5,27.2h-.448a.448.448,0,1,0,0,.9H14.5a.448.448,0,1,0,0-.9Zm0,0" transform="translate(648.02 1826.258)" fill="#b7b7b7" stroke="#b7b7b7" stroke-width="0.2"/>
    <path id="Path_13391" data-name="Path 13391" d="M18.945,27.2h-.9a.448.448,0,1,0,0,.9h.9a.448.448,0,0,0,0-.9Zm0,0" transform="translate(646.261 1826.258)" fill="#b7b7b7" stroke="#b7b7b7" stroke-width="0.2"/>
    <path id="Path_13392" data-name="Path 13392" d="M22.524,27.334a.459.459,0,0,0-.134.319.47.47,0,0,0,.134.319.446.446,0,0,0,.639,0,.46.46,0,0,0,0-.639.479.479,0,0,0-.639,0Zm0,0" transform="translate(644.155 1826.253)" fill="#b7b7b7" stroke="#b7b7b7" stroke-width="0.2"/>
    <path id="Path_13393" data-name="Path 13393" d="M33.475,20a3.118,3.118,0,0,0-1.569.426,3.138,3.138,0,1,0,0,5.423,3.1,3.1,0,0,0,1.569.426,3.138,3.138,0,1,0,0-6.275Zm-.9,3.138a2.24,2.24,0,0,1-.672,1.6,2.232,2.232,0,0,1,0-3.194,2.23,2.23,0,0,1,.672,1.6Zm-4.482,0a2.234,2.234,0,0,1,3.042-2.09,3.119,3.119,0,0,0,0,4.174,2.218,2.218,0,0,1-.8.157A2.244,2.244,0,0,1,28.1,23.138Zm5.379,2.241a2.266,2.266,0,0,1-.8-.157,3.119,3.119,0,0,0,0-4.174,2.24,2.24,0,1,1,.8,4.331Zm0,0" transform="translate(642.039 1829.424)" fill="#b7b7b7" stroke="#b7b7b7" stroke-width="0.2"/>
    <path id="Path_13394" data-name="Path 13394" d="M5.818,12.675h6.045a1.009,1.009,0,0,0,1.008-1.014V7.408A1.011,1.011,0,0,0,11.864,6.4H5.818A1.008,1.008,0,0,0,4.81,7.408v4.252a1.006,1.006,0,0,0,1.008,1.014ZM7.494,9.986H5.7v-.9H7.494ZM5.7,11.667v-.784H7.494v.784a.69.69,0,0,0,.011.112H5.818a.114.114,0,0,1-.118-.112Zm6.275-1.681H10.183V9.2a.114.114,0,0,1,.118-.112h1.563a.836.836,0,0,0,.118-.011v.908Zm-.118,1.793H10.166a.759.759,0,0,0,.011-.112v-.784H11.97v.784a.106.106,0,0,1-.112.112Zm0-4.482a.117.117,0,0,1,.118.112v.667a.118.118,0,0,1-.118.118H10.3A1.008,1.008,0,0,0,9.287,9.2v2.46a.112.112,0,0,1-.112.112H8.5a.112.112,0,0,1-.112-.112V7.408A.112.112,0,0,1,8.5,7.3Zm-6.04,0H7.51a.388.388,0,0,0-.017.112v.784H5.7V7.408A.114.114,0,0,1,5.818,7.3Zm0,0" transform="translate(651.885 1835.405)" fill="#b7b7b7" stroke="#b7b7b7" stroke-width="0.2"/>
  </g>
</svg>
