<svg xmlns="http://www.w3.org/2000/svg" width="32.367" height="18.267" viewBox="0 0 32.367 18.267">
  <g id="Group_8575" data-name="Group 8575" transform="translate(-894 -1838.977)">
    <path id="Path_13395" data-name="Path 13395" d="M25.378,0H7.049C3.188,0,0,4.107,0,9.134s3.188,9.134,7.049,9.134a6.843,6.843,0,0,0,6.007-4.352h6.253c1.287,2.7,3.555,4.352,6.007,4.352,3.862,0,7.049-4.107,7.049-9.134S29.24,0,25.378,0Zm0,17.041c-2.084,0-4.046-1.532-5.088-3.984a.589.589,0,0,0-.552-.368H12.689a.536.536,0,0,0-.552.368c-1.042,2.452-3,3.984-5.088,3.984-3.188,0-5.823-3.555-5.823-7.908S3.862,1.226,7.049,1.226H25.378c3.188,0,5.823,3.555,5.823,7.908S28.566,17.041,25.378,17.041Z" transform="translate(894 1838.977)" fill="#b7b7b7"/>
    <path id="Path_13396" data-name="Path 13396" d="M43.046,49.217h-3v-3a.613.613,0,0,0-1.226,0v3h-3a.613.613,0,0,0,0,1.226h3v3a.613.613,0,1,0,1.226,0v-3h3a.613.613,0,1,0,0-1.226Z" transform="translate(861.497 1796.871)" fill="#b7b7b7"/>
    <path id="Path_13397" data-name="Path 13397" d="M295.439,34.078a1.839,1.839,0,1,0-1.839-1.839A1.806,1.806,0,0,0,295.439,34.078Zm0-2.452a.613.613,0,1,1-.613.613A.579.579,0,0,1,295.439,31.626Z" transform="translate(622.897 1810.906)" fill="#b7b7b7"/>
    <path id="Path_13398" data-name="Path 13398" d="M295.439,121.6a1.839,1.839,0,1,0,1.839,1.839A1.844,1.844,0,0,0,295.439,121.6Zm0,2.452a.613.613,0,1,1,.613-.613A.614.614,0,0,1,295.439,124.052Z" transform="translate(622.897 1726.694)" fill="#b7b7b7"/>
    <path id="Path_13399" data-name="Path 13399" d="M253.839,76a1.839,1.839,0,1,0,1.839,1.839A1.844,1.844,0,0,0,253.839,76Zm0,2.452a.613.613,0,1,1,.613-.613A.614.614,0,0,1,253.839,78.452Z" transform="translate(661.309 1768.8)" fill="#b7b7b7"/>
    <path id="Path_13400" data-name="Path 13400" d="M335.2,77.839A1.839,1.839,0,1,0,337.039,76,1.806,1.806,0,0,0,335.2,77.839Zm2.452,0a.613.613,0,1,1-.613-.613A.579.579,0,0,1,337.652,77.839Z" transform="translate(584.484 1768.8)" fill="#b7b7b7"/>
    <path id="Path_13401" data-name="Path 13401" d="M173.284,130.4h-1.471a.613.613,0,1,0,0,1.226h1.471a.579.579,0,0,0,.613-.613A.614.614,0,0,0,173.284,130.4Z" transform="translate(735.918 1718.568)" fill="#b7b7b7"/>
    <path id="Path_13402" data-name="Path 13402" d="M218.884,130.4h-1.471a.613.613,0,1,0,0,1.226h1.471a.579.579,0,0,0,.613-.613A.614.614,0,0,0,218.884,130.4Z" transform="translate(693.812 1718.568)" fill="#b7b7b7"/>
  </g>
</svg>
