<svg xmlns="http://www.w3.org/2000/svg" width="28.76" height="34.923" viewBox="0 0 28.76 34.923">
  <g id="Group_8579" data-name="Group 8579" transform="translate(-409.998 -2057.721)">
    <path id="Path_13403" data-name="Path 13403" d="M281.552,41.364a.682.682,0,1,0-.682-.682A.682.682,0,0,0,281.552,41.364Z" transform="translate(148.287 2020.449)" fill="#b7b7b7"/>
    <path id="Path_13404" data-name="Path 13404" d="M121.552,41.364a.682.682,0,1,0-.682-.682A.682.682,0,0,0,121.552,41.364Z" transform="translate(297.373 2020.449)" fill="#b7b7b7"/>
    <path id="Path_13405" data-name="Path 13405" d="M24.059,29.054a3.414,3.414,0,0,0,3.287-3.407V5.407A4.773,4.773,0,0,0,23.5.724,37.95,37.95,0,0,0,16.133,0h-3.6A37.166,37.166,0,0,0,5.264.719,4.788,4.788,0,0,0,1.426,5.4V25.647a3.414,3.414,0,0,0,3.333,3.408L.195,33.767a.682.682,0,0,0,.49,1.157H5.562a.683.683,0,0,0,.552-.282l2.069-2.856H20.65l2.069,2.856a.681.681,0,0,0,.552.282H28.08a.682.682,0,0,0,.493-1.153ZM2.79,25.647V5.4A3.419,3.419,0,0,1,5.532,2.057a35.744,35.744,0,0,1,7-.693h3.6a36.572,36.572,0,0,1,7.1.7,3.41,3.41,0,0,1,2.747,3.345v20.24a2.049,2.049,0,0,1-2.046,2.046H4.837A2.049,2.049,0,0,1,2.79,25.647Zm2.423,7.912H2.3l4.361-4.5H8.475Zm3.958-3.138.988-1.364h8.513l.988,1.364Zm14.447,3.138-3.262-4.5h1.816l4.309,4.5Z" transform="translate(409.996 2057.721)" fill="#b7b7b7"/>
    <path id="Path_13406" data-name="Path 13406" d="M61.552,92.687h19.1A.682.682,0,0,0,81.333,92V80.682A.682.682,0,0,0,80.651,80h-19.1a.682.682,0,0,0-.682.682V92A.682.682,0,0,0,61.552,92.687Zm18.417-1.364H71.784V81.364h8.185ZM62.234,81.364h8.185v9.959H62.234Z" transform="translate(353.281 1983.177)" fill="#b7b7b7"/>
    <path id="Path_13407" data-name="Path 13407" d="M161.552,41.364h5.457a.682.682,0,0,0,0-1.364h-5.457a.682.682,0,0,0,0,1.364Z" transform="translate(260.102 2020.449)" fill="#b7b7b7"/>
    <path id="Path_13408" data-name="Path 13408" d="M283.6,296a2.728,2.728,0,1,0,2.728,2.728A2.731,2.731,0,0,0,283.6,296Zm0,4.093a1.364,1.364,0,1,1,1.364-1.364A1.366,1.366,0,0,1,283.6,300.093Z" transform="translate(148.287 1781.911)" fill="#b7b7b7"/>
    <path id="Path_13409" data-name="Path 13409" d="M63.6,301.457a2.728,2.728,0,1,0-2.728-2.728A2.731,2.731,0,0,0,63.6,301.457Zm0-4.093a1.364,1.364,0,1,1-1.364,1.364A1.366,1.366,0,0,1,63.6,297.364Z" transform="translate(353.281 1781.911)" fill="#b7b7b7"/>
    <path id="Path_13410" data-name="Path 13410" d="M167.009,306h-5.457a.682.682,0,1,0,0,1.364h5.457a.682.682,0,1,0,0-1.364Z" transform="translate(260.102 1772.593)" fill="#b7b7b7"/>
    <path id="Path_13411" data-name="Path 13411" d="M167.009,346h-5.457a.682.682,0,0,0,0,1.364h5.457a.682.682,0,0,0,0-1.364Z" transform="translate(260.102 1735.321)" fill="#b7b7b7"/>
  </g>
</svg>
