<svg xmlns="http://www.w3.org/2000/svg" xmlns:xlink="http://www.w3.org/1999/xlink" width="272.029" height="192.729" viewBox="0 0 272.029 192.729">
  <defs>
    <clipPath id="clip-path">
      <rect id="Rectangle_3349" data-name="Rectangle 3349" width="31.583" height="25.402" fill="#b7b7b7"/>
    </clipPath>
    <clipPath id="clip-path-3">
      <rect id="Rectangle_3355" data-name="Rectangle 3355" width="18.679" height="27.586" fill="#b7b7b7" stroke="#b7b7b7" stroke-width="0.4"/>
    </clipPath>
    <clipPath id="clip-path-5">
      <rect id="Rectangle_3365" data-name="Rectangle 3365" width="30.176" height="34.497" fill="#b7b7b7"/>
    </clipPath>
  </defs>
  <g id="Group_8581" data-name="Group 8581" transform="translate(-184.471 -1628)">
    <g id="Group_8571" data-name="Group 8571" transform="translate(16 23.17)">
      <path id="Path_13360" data-name="Path 13360" d="M127.081,418.13a1.591,1.591,0,1,0,1.591,1.591A1.592,1.592,0,0,0,127.081,418.13Zm0,2.08a.489.489,0,1,1,.489-.489A.489.489,0,0,1,127.081,420.21Z" transform="translate(55.669 1210.118)" fill="#b7b7b7"/>
      <path id="Path_13361" data-name="Path 13361" d="M140.271,41.613h2.823a.581.581,0,0,0,0-1.163h-2.823a.581.581,0,0,0,0,1.163Z" transform="translate(42.265 1566.645)" fill="#b7b7b7"/>
      <ellipse id="Ellipse_1466" data-name="Ellipse 1466" cx="0.61" cy="0.61" rx="0.61" ry="0.61" transform="translate(180.141 1607.08)" fill="#b7b7b7"/>
      <path id="Path_13362" data-name="Path 13362" d="M15.4,0H1.836A1.838,1.838,0,0,0,0,1.836v25a1.838,1.838,0,0,0,1.836,1.837H15.4a1.838,1.838,0,0,0,1.836-1.836v-25A1.838,1.838,0,0,0,15.4,0Zm.612,26.84a.613.613,0,0,1-.612.612H1.836a.613.613,0,0,1-.612-.612v-25a.613.613,0,0,1,.612-.612H15.4a.613.613,0,0,1,.612.612Z" transform="translate(174.131 1604.83)" fill="#b7b7b7"/>
      <path id="Path_13363" data-name="Path 13363" d="M101.76,206.162a.612.612,0,0,0,.433-.179l2.94-2.94a.612.612,0,0,0-.866-.866l-2.94,2.94a.612.612,0,0,0,.433,1.045Z" transform="translate(78.648 1414.146)" fill="#b7b7b7"/>
      <path id="Path_13364" data-name="Path 13364" d="M164.027,234.634a.613.613,0,0,0,.866,0l1.171-1.171a.612.612,0,1,0-.866-.866l-1.171,1.171A.612.612,0,0,0,164.027,234.634Z" transform="translate(19.46 1385.429)" fill="#b7b7b7"/>
      <path id="Path_13365" data-name="Path 13365" d="M56.362,80.89H45.231a.551.551,0,0,0-.551.551V98.315a.551.551,0,0,0,.551.551h11.13a.551.551,0,0,0,.551-.551V81.441A.551.551,0,0,0,56.362,80.89Zm-.551,16.874H45.782V81.992H55.811V97.764Z" transform="translate(131.953 1528.47)" fill="#b7b7b7"/>
    </g>
    <g id="Group_8572" data-name="Group 8572" transform="translate(-142 21.897)">
      <path id="Path_13366" data-name="Path 13366" d="M41.715,70.406a.615.615,0,0,0,.373-.125l.012-.009a.617.617,0,0,0-.746-.983l-.012.009a.617.617,0,0,0,.373,1.108Zm0,0" transform="translate(369.773 1543.215)" fill="#b7b7b7"/>
      <g id="Group_8369" data-name="Group 8369" transform="translate(408.393 1608.104)" clip-path="url(#clip-path)">
        <path id="Path_13367" data-name="Path 13367" d="M288.395,369.326a.613.613,0,0,0,.373-.125l.012-.009a.617.617,0,1,0-.746-.982l-.012.009a.617.617,0,0,0,.373,1.108Zm0,0" transform="translate(-270.053 -345.334)" fill="#b7b7b7"/>
      </g>
      <g id="Group_8570" data-name="Group 8570" transform="translate(408.393 1608.104)">
        <g id="Group_8370" data-name="Group 8370" clip-path="url(#clip-path)">
          <path id="Path_13368" data-name="Path 13368" d="M31.075,7.231A21.6,21.6,0,0,0,7.524,2.548,21.832,21.832,0,0,0,4.954,3.816l-.091.053a.617.617,0,0,0,.622,1.066l.087-.051A20.557,20.557,0,0,1,8,3.687,20.392,20.392,0,0,1,30.2,8.1a.5.5,0,0,1-.707.706,19.367,19.367,0,0,0-27.407,0A.5.5,0,1,1,1.381,8.1c.271-.271.554-.538.84-.794A.617.617,0,0,0,1.4,6.389c-.3.271-.6.554-.891.842A1.733,1.733,0,0,0,2.959,9.683a18.136,18.136,0,0,1,25.664,0,1.734,1.734,0,0,0,2.452-2.452Zm0,0" transform="translate(-0.062 -0.844)" fill="#b7b7b7"/>
        </g>
      </g>
      <path id="Path_13369" data-name="Path 13369" d="M75.512,82.589A16.656,16.656,0,0,0,57.377,86.2a1.733,1.733,0,0,0,2.451,2.451,13.166,13.166,0,0,1,18.636,0A1.733,1.733,0,0,0,80.915,86.2a16.544,16.544,0,0,0-5.4-3.606Zm4.532,5.185a.5.5,0,0,1-.706,0,14.364,14.364,0,0,0-10.19-4.221h0a14.364,14.364,0,0,0-10.19,4.221.5.5,0,1,1-.706-.706,15.42,15.42,0,0,1,21.793,0,.5.5,0,0,1,0,.706Zm0,0" transform="translate(354.976 1531.81)" fill="#b7b7b7"/>
      <path id="Path_13370" data-name="Path 13370" d="M126.955,162.631a11.685,11.685,0,0,0-12.718,2.528,1.733,1.733,0,0,0,2.452,2.451,8.2,8.2,0,0,1,11.606,0,1.733,1.733,0,1,0,2.451-2.451,11.6,11.6,0,0,0-3.792-2.529Zm2.92,4.107a.5.5,0,0,1-.706,0,9.429,9.429,0,0,0-13.351,0h0a.5.5,0,1,1-.706-.706,10.451,10.451,0,0,1,14.765,0,.5.5,0,0,1,.146.354.5.5,0,0,1-.148.353Zm0,0" transform="translate(301.63 1456.36)" fill="#b7b7b7"/>
      <path id="Path_13371" data-name="Path 13371" d="M198.871,290.27a3.73,3.73,0,1,0,.9,7.351.617.617,0,1,0-.3-1.2,2.509,2.509,0,0,1-.6.074,2.5,2.5,0,1,1,2.5-2.5.617.617,0,0,0,1.234,0,3.73,3.73,0,0,0-3.729-3.73Zm0,0" transform="translate(225.251 1335.774)" fill="#b7b7b7"/>
    </g>
    <g id="Group_8573" data-name="Group 8573" transform="translate(-306 26.781)">
      <path id="Path_13372" data-name="Path 13372" d="M164.743,55.575a.539.539,0,0,0,.757-.09l.009-.011a.539.539,0,0,0-.847-.667l-.009.011a.54.54,0,0,0,.09.757Zm0,0" transform="translate(500.344 1550.565)" fill="#b7b7b7" stroke="#b7b7b7" stroke-width="0.4"/>
      <g id="Group_8379" data-name="Group 8379" transform="translate(656 1602.219)" clip-path="url(#clip-path-3)">
        <path id="Path_13373" data-name="Path 13373" d="M9.008,98.557a.538.538,0,0,0-.756.089l-.654.828a.492.492,0,0,1-.691.081.5.5,0,0,1-.174-.5A.461.461,0,0,0,6.743,99L9,89.36a.538.538,0,0,0-.525-.662H2.414a.5.5,0,0,1-.359-.838.453.453,0,0,0,.033-.038L9.68,78.2a.539.539,0,1,0-.846-.668l-7.578,9.6a1.574,1.574,0,0,0,1.158,2.64H7.8L5.681,98.812a.5.5,0,0,0-.011.069,1.577,1.577,0,0,0,.57,1.52,1.556,1.556,0,0,0,.97.338,1.657,1.657,0,0,0,.186-.011,1.559,1.559,0,0,0,1.049-.586l.654-.828a.54.54,0,0,0-.09-.757Zm0,0" transform="translate(-0.795 -73.153)" fill="#b7b7b7" stroke="#b7b7b7" stroke-width="0.4"/>
      </g>
      <g id="Group_8380" data-name="Group 8380" transform="translate(656 1602.219)" clip-path="url(#clip-path-3)">
        <path id="Path_13374" data-name="Path 13374" d="M186.036,10.955h-5.384l2.117-9.035a.51.51,0,0,0,.011-.069A1.569,1.569,0,0,0,180.006.589l-.683.866a.539.539,0,0,0,.846.668l.683-.866a.492.492,0,0,1,.865.417.476.476,0,0,0-.01.055l-2.259,9.643a.539.539,0,0,0,.525.661h6.064a.5.5,0,0,1,.36.838c-.012.012-.023.025-.033.038L178.74,22.57a.539.539,0,1,0,.846.667l7.609-9.643a1.574,1.574,0,0,0-1.159-2.639Zm0,0" transform="translate(-168.981 0.006)" fill="#b7b7b7" stroke="#b7b7b7" stroke-width="0.4"/>
      </g>
      <path id="Path_13375" data-name="Path 13375" d="M161.578,437.032a.539.539,0,0,0-.757.088l-.009.011a.539.539,0,1,0,.845.669l.009-.011a.539.539,0,0,0-.088-.757Zm0,0" transform="translate(503.98 1188.89)" fill="#b7b7b7" stroke="#b7b7b7" stroke-width="0.4"/>
    </g>
    <g id="Group_8574" data-name="Group 8574" transform="translate(-473 26.829)">
      <path id="Path_13376" data-name="Path 13376" d="M1.353,4.6a2.506,2.506,0,0,0-.261,1.925L1.61,8.513a1.359,1.359,0,0,0,1.324,1A1.393,1.393,0,0,0,3.2,9.49l2.746-.527L8.058,8.5A1.338,1.338,0,0,0,9.15,7.029L8.892,5.052c-.032-.246.532-.519,1.058-.6a29.313,29.313,0,0,1,9.21-.024c.839.144,1.024.279,1.064.329a1.006,1.006,0,0,1,.035.654l-.185,1.314a1.606,1.606,0,0,0,.2,1.243,1.963,1.963,0,0,0,1.248.606c.317.061.561.122.806.181s.518.129.855.193l2.456.474a1.919,1.919,0,0,0,1.295-.075A1.667,1.667,0,0,0,27.7,8.1l.015-.066c.048-.209.11-.417.174-.624a4.843,4.843,0,0,0,.286-1.551,3.631,3.631,0,0,0-1.2-2.424C23.834.356,18.407,0,14.6,0,5.911,0,2.6,2.5,1.353,4.6ZM14.6.906c3.649,0,8.836.329,11.736,3.176a2.744,2.744,0,0,1,.926,1.8,4.107,4.107,0,0,1-.249,1.263c-.069.227-.136.456-.19.685l-.016.069c-.076.337-.136.564-.292.645a1.257,1.257,0,0,1-.7-.013l-2.455-.468c-.317-.061-.562-.122-.807-.181s-.518-.129-.854-.193c-.217-.042-.581-.111-.7-.264a.879.879,0,0,1-.029-.569l.185-1.314a1.75,1.75,0,0,0-.19-1.3,2.565,2.565,0,0,0-1.652-.7,30.228,30.228,0,0,0-9.5.021c-.991.15-1.939.707-1.821,1.612L8.252,7.15a.436.436,0,0,1-.375.467l-2.113.459L3.028,8.6a.462.462,0,0,1-.544-.317L1.967,6.3a1.606,1.606,0,0,1,.162-1.235C3.259,3.166,6.337.906,14.6.906Z" transform="translate(892.994 1602.17)" fill="#b7b7b7" stroke="#b7b7b7" stroke-width="0.5"/>
      <path id="Path_13377" data-name="Path 13377" d="M28.131,158.009a1.4,1.4,0,0,0-.169-.317l-5.76-7.816a1.819,1.819,0,0,0-1.46-.737H19.565l-.4-3.205a.906.906,0,0,0-.906-.873H16.9a.906.906,0,0,0-.906.906v3.625a.453.453,0,1,0,.906,0v-3.625h1.359a.4.4,0,0,0,0,.056l.453,3.625a.454.454,0,0,0,.45.4h1.579a.91.91,0,0,1,.73.369l5.405,7.334H23.242a.453.453,0,1,0,0,.906h4.078v3.625a1.359,1.359,0,0,1-1.359,1.359H3.305a1.359,1.359,0,0,1-1.359-1.359v-3.625H20.977a.453.453,0,1,0,0-.906H2.39l5.4-7.335a.909.909,0,0,1,.73-.369H10.1a.454.454,0,0,0,.45-.4l.453-3.625a.4.4,0,0,0,0-.056h1.359v3.625a.453.453,0,0,0,.453.453h1.812a.453.453,0,1,0,0-.906H13.274v-3.172a.906.906,0,0,0-.906-.906H11.009a.906.906,0,0,0-.906.873l-.4,3.205H8.524a1.82,1.82,0,0,0-1.458.737L1.3,157.693a1.357,1.357,0,0,0-.169.317c0,.01-.01.021-.014.032a1.365,1.365,0,0,0-.082.456v3.78a2.268,2.268,0,0,0,2.265,2.266H25.962a2.269,2.269,0,0,0,2.266-2.266V158.5a1.36,1.36,0,0,0-.082-.456C28.141,158.031,28.137,158.02,28.131,158.009Z" transform="translate(892.961 1464.813)" fill="#b7b7b7" stroke="#b7b7b7" stroke-width="0.5"/>
      <path id="Path_13378" data-name="Path 13378" d="M165.156,257.613a5.2,5.2,0,0,1,1.325-.49,7.624,7.624,0,0,1,3.323,0,.453.453,0,1,0,.2-.883,8.547,8.547,0,0,0-3.733,0,6.1,6.1,0,0,0-1.556.578,3.522,3.522,0,0,0-1.112.913,1.949,1.949,0,0,0,0,2.492,3.522,3.522,0,0,0,1.112.913,6.129,6.129,0,0,0,1.556.578,8.5,8.5,0,0,0,3.733,0,6.094,6.094,0,0,0,1.556-.578,3.522,3.522,0,0,0,1.112-.913,1.949,1.949,0,0,0,0-2.492.453.453,0,1,0-.718.553,1.051,1.051,0,0,1,0,1.388,2.669,2.669,0,0,1-.83.672,5.2,5.2,0,0,1-1.325.49,7.624,7.624,0,0,1-3.323,0,5.208,5.208,0,0,1-1.324-.49,2.67,2.67,0,0,1-.83-.672,1.049,1.049,0,0,1,0-1.388A2.664,2.664,0,0,1,165.156,257.613Z" transform="translate(739.452 1359.731)" fill="#b7b7b7" stroke="#b7b7b7" stroke-width="0.5"/>
    </g>
    <g id="Group_8578" data-name="Group 8578" transform="translate(5 -128.16)">
      <path id="Path_13379" data-name="Path 13379" d="M415.116,52.9a.616.616,0,1,0-.616-.616A.617.617,0,0,0,415.116,52.9Z" transform="translate(-209.483 1786.675)" fill="#b7b7b7"/>
      <path id="Path_13380" data-name="Path 13380" d="M23.62,0a8.915,8.915,0,0,0-6.445,2.738,10.954,10.954,0,0,0-1.4,1.739,10.927,10.927,0,0,0-1.4-1.739A8.915,8.915,0,0,0,7.935,0C3.26,0,0,3.911,0,8.561c0,6.281,6.656,11.57,15.374,19.126a.617.617,0,0,0,.807,0C24.92,20.113,31.555,14.834,31.555,8.561a8.977,8.977,0,0,0-2.19-6A7.588,7.588,0,0,0,23.62,0ZM15.778,26.405C7.546,19.282,1.233,14.165,1.233,8.561c0-4.178,2.881-7.329,6.7-7.329a7.605,7.605,0,0,1,5.539,2.342,9.187,9.187,0,0,1,1.742,2.4h0a.617.617,0,0,0,.561.364h0a.617.617,0,0,0,.562-.364,9.187,9.187,0,0,1,1.742-2.4,7.6,7.6,0,0,1,5.539-2.342c3.821,0,6.7,3.151,6.7,7.329C30.323,14.292,23.593,19.643,15.778,26.405Z" transform="translate(179.471 1835.16)" fill="#b7b7b7"/>
      <path id="Path_13381" data-name="Path 13381" d="M408.973,82.007a.616.616,0,0,0-.259.832,5.716,5.716,0,0,1,.631,2.609c0,1.781-.847,3.671-2.667,5.949a.616.616,0,0,0,.963.769c2-2.508,2.937-4.642,2.937-6.718a6.873,6.873,0,0,0-.772-3.181A.617.617,0,0,0,408.973,82.007Z" transform="translate(-202.016 1758.274)" fill="#b7b7b7"/>
      <path id="Path_13382" data-name="Path 13382" d="M162.45,129.738H159v-3.451a.617.617,0,0,0-.616-.616h-3.7a.617.617,0,0,0-.616.616v3.451h-3.451a.617.617,0,0,0-.616.616v3.7a.617.617,0,0,0,.616.616h3.451v3.451a.617.617,0,0,0,.616.616h3.7a.617.617,0,0,0,.616-.616v-3.451h3.451a.617.617,0,0,0,.616-.616v-3.7A.617.617,0,0,0,162.45,129.738Zm-.616,3.7h-3.451a.617.617,0,0,0-.616.616V137.5H155.3v-3.451a.617.617,0,0,0-.616-.616h-3.451V130.97h3.451a.617.617,0,0,0,.616-.616V126.9h2.465v3.451a.617.617,0,0,0,.616.616h3.451Z" transform="translate(38.715 1717.235)" fill="#b7b7b7"/>
    </g>
    <g id="Group_8577" data-name="Group 8577" transform="translate(-142 -124.721)">
      <g id="Group_8405" data-name="Group 8405" transform="translate(410 1828.721)" clip-path="url(#clip-path-5)">
        <path id="Path_13383" data-name="Path 13383" d="M59.568,21.7v-6.12A2.785,2.785,0,0,0,56.786,12.8H44.545V10.018H43.432V7.6L51.4,4.113a1.553,1.553,0,0,0,.932-1.424V1.559A1.57,1.57,0,0,0,50.429.043L36.936,3.157a1.661,1.661,0,0,0-1.293,1.627v5.235H34.53v23.37H32.86V34.5H46.214V33.388H44.545V18.365H54V21.7a1.114,1.114,0,0,0-1.113,1.112v1.113A1.114,1.114,0,0,0,54,25.042h5.564a1.114,1.114,0,0,0,1.113-1.113V22.816A1.114,1.114,0,0,0,59.568,21.7ZM36.755,4.783a.553.553,0,0,1,.431-.542L50.678,1.126a.446.446,0,0,1,.544.432V2.687a.443.443,0,0,1-.266.406L42.319,6.872v3.146H36.755ZM54,17.252H43.432V33.388H35.643V11.131h7.789v2.782H56.786a1.671,1.671,0,0,1,1.669,1.669V21.7H55.117V18.364A1.113,1.113,0,0,0,54,17.252Zm0,6.676V22.816h5.564v1.113Zm0,0" transform="translate(-30.57 -0.004)" fill="#b7b7b7"/>
      </g>
      <rect id="Rectangle_3366" data-name="Rectangle 3366" width="1.113" height="1.113" transform="translate(416.185 1840.961)" fill="#b7b7b7"/>
      <rect id="Rectangle_3367" data-name="Rectangle 3367" width="1.113" height="17.805" transform="translate(416.185 1843.187)" fill="#b7b7b7"/>
      <path id="Path_13384" data-name="Path 13384" d="M339.042,365.38l-2.489,4.977a2.836,2.836,0,0,0-.293,1.275,2.782,2.782,0,1,0,5.271-1.275Zm0,7.921a1.7,1.7,0,0,1-1.493-2.448l1.493-2.986,1.493,2.986a1.724,1.724,0,0,1,.176.778,1.672,1.672,0,0,1-1.669,1.67Zm0,0" transform="translate(97.174 1488.804)" fill="#b7b7b7"/>
      <rect id="Rectangle_3368" data-name="Rectangle 3368" width="1.113" height="1.113" transform="translate(410.065 1862.106)" fill="#b7b7b7"/>
      <rect id="Rectangle_3369" data-name="Rectangle 3369" width="1.113" height="1.113" transform="translate(426.757 1862.106)" fill="#b7b7b7"/>
    </g>
    <g id="Group_8576" data-name="Group 8576" transform="translate(-308.867 -127.219)">
      <path id="Path_13385" data-name="Path 13385" d="M25,0H1.894A1.891,1.891,0,0,0,0,1.894v15.94a1.89,1.89,0,0,0,1.894,1.888H25.005A1.894,1.894,0,0,0,26.9,17.834V1.894A1.9,1.9,0,0,0,25,0Zm1,17.834a.99.99,0,0,1-.992.992H1.894A.994.994,0,0,1,.9,17.834V1.894A.99.99,0,0,1,1.894.9H25.005A.99.99,0,0,1,26,1.894Zm0,0" transform="translate(654 1838.219)" fill="#b7b7b7" stroke="#b7b7b7" stroke-width="0.2"/>
      <path id="Path_13386" data-name="Path 13386" d="M9.282,23.2H5.248a.448.448,0,1,0,0,.9H9.282a.448.448,0,1,0,0-.9Zm0,0" transform="translate(651.889 1828.017)" fill="#b7b7b7" stroke="#b7b7b7" stroke-width="0.2"/>
      <path id="Path_13387" data-name="Path 13387" d="M19.682,23.2H15.648a.448.448,0,1,0,0,.9h4.034a.448.448,0,1,0,0-.9Zm0,0" transform="translate(647.316 1828.017)" fill="#b7b7b7" stroke="#b7b7b7" stroke-width="0.2"/>
      <path id="Path_13388" data-name="Path 13388" d="M5.7,27.2H5.248a.448.448,0,1,0,0,.9H5.7a.448.448,0,1,0,0-.9Zm0,0" transform="translate(651.889 1826.258)" fill="#b7b7b7" stroke="#b7b7b7" stroke-width="0.2"/>
      <path id="Path_13389" data-name="Path 13389" d="M10.145,27.2h-.9a.448.448,0,1,0,0,.9h.9a.448.448,0,1,0,0-.9Zm0,0" transform="translate(650.13 1826.258)" fill="#b7b7b7" stroke="#b7b7b7" stroke-width="0.2"/>
      <path id="Path_13390" data-name="Path 13390" d="M14.5,27.2h-.448a.448.448,0,1,0,0,.9H14.5a.448.448,0,1,0,0-.9Zm0,0" transform="translate(648.02 1826.258)" fill="#b7b7b7" stroke="#b7b7b7" stroke-width="0.2"/>
      <path id="Path_13391" data-name="Path 13391" d="M18.945,27.2h-.9a.448.448,0,1,0,0,.9h.9a.448.448,0,0,0,0-.9Zm0,0" transform="translate(646.261 1826.258)" fill="#b7b7b7" stroke="#b7b7b7" stroke-width="0.2"/>
      <path id="Path_13392" data-name="Path 13392" d="M22.524,27.334a.459.459,0,0,0-.134.319.47.47,0,0,0,.134.319.446.446,0,0,0,.639,0,.46.46,0,0,0,0-.639.479.479,0,0,0-.639,0Zm0,0" transform="translate(644.155 1826.253)" fill="#b7b7b7" stroke="#b7b7b7" stroke-width="0.2"/>
      <path id="Path_13393" data-name="Path 13393" d="M33.475,20a3.118,3.118,0,0,0-1.569.426,3.138,3.138,0,1,0,0,5.423,3.1,3.1,0,0,0,1.569.426,3.138,3.138,0,1,0,0-6.275Zm-.9,3.138a2.24,2.24,0,0,1-.672,1.6,2.232,2.232,0,0,1,0-3.194,2.23,2.23,0,0,1,.672,1.6Zm-4.482,0a2.234,2.234,0,0,1,3.042-2.09,3.119,3.119,0,0,0,0,4.174,2.218,2.218,0,0,1-.8.157A2.244,2.244,0,0,1,28.1,23.138Zm5.379,2.241a2.266,2.266,0,0,1-.8-.157,3.119,3.119,0,0,0,0-4.174,2.24,2.24,0,1,1,.8,4.331Zm0,0" transform="translate(642.039 1829.424)" fill="#b7b7b7" stroke="#b7b7b7" stroke-width="0.2"/>
      <path id="Path_13394" data-name="Path 13394" d="M5.818,12.675h6.045a1.009,1.009,0,0,0,1.008-1.014V7.408A1.011,1.011,0,0,0,11.864,6.4H5.818A1.008,1.008,0,0,0,4.81,7.408v4.252a1.006,1.006,0,0,0,1.008,1.014ZM7.494,9.986H5.7v-.9H7.494ZM5.7,11.667v-.784H7.494v.784a.69.69,0,0,0,.011.112H5.818a.114.114,0,0,1-.118-.112Zm6.275-1.681H10.183V9.2a.114.114,0,0,1,.118-.112h1.563a.836.836,0,0,0,.118-.011v.908Zm-.118,1.793H10.166a.759.759,0,0,0,.011-.112v-.784H11.97v.784a.106.106,0,0,1-.112.112Zm0-4.482a.117.117,0,0,1,.118.112v.667a.118.118,0,0,1-.118.118H10.3A1.008,1.008,0,0,0,9.287,9.2v2.46a.112.112,0,0,1-.112.112H8.5a.112.112,0,0,1-.112-.112V7.408A.112.112,0,0,1,8.5,7.3Zm-6.04,0H7.51a.388.388,0,0,0-.017.112v.784H5.7V7.408A.114.114,0,0,1,5.818,7.3Zm0,0" transform="translate(651.885 1835.405)" fill="#b7b7b7" stroke="#b7b7b7" stroke-width="0.2"/>
    </g>
    <g id="Group_8575" data-name="Group 8575" transform="translate(-469.867 -126.977)">
      <path id="Path_13395" data-name="Path 13395" d="M25.378,0H7.049C3.188,0,0,4.107,0,9.134s3.188,9.134,7.049,9.134a6.843,6.843,0,0,0,6.007-4.352h6.253c1.287,2.7,3.555,4.352,6.007,4.352,3.862,0,7.049-4.107,7.049-9.134S29.24,0,25.378,0Zm0,17.041c-2.084,0-4.046-1.532-5.088-3.984a.589.589,0,0,0-.552-.368H12.689a.536.536,0,0,0-.552.368c-1.042,2.452-3,3.984-5.088,3.984-3.188,0-5.823-3.555-5.823-7.908S3.862,1.226,7.049,1.226H25.378c3.188,0,5.823,3.555,5.823,7.908S28.566,17.041,25.378,17.041Z" transform="translate(894 1838.977)" fill="#b7b7b7"/>
      <path id="Path_13396" data-name="Path 13396" d="M43.046,49.217h-3v-3a.613.613,0,0,0-1.226,0v3h-3a.613.613,0,0,0,0,1.226h3v3a.613.613,0,1,0,1.226,0v-3h3a.613.613,0,1,0,0-1.226Z" transform="translate(861.497 1796.871)" fill="#b7b7b7"/>
      <path id="Path_13397" data-name="Path 13397" d="M295.439,34.078a1.839,1.839,0,1,0-1.839-1.839A1.806,1.806,0,0,0,295.439,34.078Zm0-2.452a.613.613,0,1,1-.613.613A.579.579,0,0,1,295.439,31.626Z" transform="translate(622.897 1810.906)" fill="#b7b7b7"/>
      <path id="Path_13398" data-name="Path 13398" d="M295.439,121.6a1.839,1.839,0,1,0,1.839,1.839A1.844,1.844,0,0,0,295.439,121.6Zm0,2.452a.613.613,0,1,1,.613-.613A.614.614,0,0,1,295.439,124.052Z" transform="translate(622.897 1726.694)" fill="#b7b7b7"/>
      <path id="Path_13399" data-name="Path 13399" d="M253.839,76a1.839,1.839,0,1,0,1.839,1.839A1.844,1.844,0,0,0,253.839,76Zm0,2.452a.613.613,0,1,1,.613-.613A.614.614,0,0,1,253.839,78.452Z" transform="translate(661.309 1768.8)" fill="#b7b7b7"/>
      <path id="Path_13400" data-name="Path 13400" d="M335.2,77.839A1.839,1.839,0,1,0,337.039,76,1.806,1.806,0,0,0,335.2,77.839Zm2.452,0a.613.613,0,1,1-.613-.613A.579.579,0,0,1,337.652,77.839Z" transform="translate(584.484 1768.8)" fill="#b7b7b7"/>
      <path id="Path_13401" data-name="Path 13401" d="M173.284,130.4h-1.471a.613.613,0,1,0,0,1.226h1.471a.579.579,0,0,0,.613-.613A.614.614,0,0,0,173.284,130.4Z" transform="translate(735.918 1718.568)" fill="#b7b7b7"/>
      <path id="Path_13402" data-name="Path 13402" d="M218.884,130.4h-1.471a.613.613,0,1,0,0,1.226h1.471a.579.579,0,0,0,.613-.613A.614.614,0,0,0,218.884,130.4Z" transform="translate(693.812 1718.568)" fill="#b7b7b7"/>
    </g>
    <g id="Group_8579" data-name="Group 8579" transform="translate(-144 -272.721)">
      <path id="Path_13403" data-name="Path 13403" d="M281.552,41.364a.682.682,0,1,0-.682-.682A.682.682,0,0,0,281.552,41.364Z" transform="translate(148.287 2020.449)" fill="#b7b7b7"/>
      <path id="Path_13404" data-name="Path 13404" d="M121.552,41.364a.682.682,0,1,0-.682-.682A.682.682,0,0,0,121.552,41.364Z" transform="translate(297.373 2020.449)" fill="#b7b7b7"/>
      <path id="Path_13405" data-name="Path 13405" d="M24.059,29.054a3.414,3.414,0,0,0,3.287-3.407V5.407A4.773,4.773,0,0,0,23.5.724,37.95,37.95,0,0,0,16.133,0h-3.6A37.166,37.166,0,0,0,5.264.719,4.788,4.788,0,0,0,1.426,5.4V25.647a3.414,3.414,0,0,0,3.333,3.408L.195,33.767a.682.682,0,0,0,.49,1.157H5.562a.683.683,0,0,0,.552-.282l2.069-2.856H20.65l2.069,2.856a.681.681,0,0,0,.552.282H28.08a.682.682,0,0,0,.493-1.153ZM2.79,25.647V5.4A3.419,3.419,0,0,1,5.532,2.057a35.744,35.744,0,0,1,7-.693h3.6a36.572,36.572,0,0,1,7.1.7,3.41,3.41,0,0,1,2.747,3.345v20.24a2.049,2.049,0,0,1-2.046,2.046H4.837A2.049,2.049,0,0,1,2.79,25.647Zm2.423,7.912H2.3l4.361-4.5H8.475Zm3.958-3.138.988-1.364h8.513l.988,1.364Zm14.447,3.138-3.262-4.5h1.816l4.309,4.5Z" transform="translate(409.996 2057.721)" fill="#b7b7b7"/>
      <path id="Path_13406" data-name="Path 13406" d="M61.552,92.687h19.1A.682.682,0,0,0,81.333,92V80.682A.682.682,0,0,0,80.651,80h-19.1a.682.682,0,0,0-.682.682V92A.682.682,0,0,0,61.552,92.687Zm18.417-1.364H71.784V81.364h8.185ZM62.234,81.364h8.185v9.959H62.234Z" transform="translate(353.281 1983.177)" fill="#b7b7b7"/>
      <path id="Path_13407" data-name="Path 13407" d="M161.552,41.364h5.457a.682.682,0,0,0,0-1.364h-5.457a.682.682,0,0,0,0,1.364Z" transform="translate(260.102 2020.449)" fill="#b7b7b7"/>
      <path id="Path_13408" data-name="Path 13408" d="M283.6,296a2.728,2.728,0,1,0,2.728,2.728A2.731,2.731,0,0,0,283.6,296Zm0,4.093a1.364,1.364,0,1,1,1.364-1.364A1.366,1.366,0,0,1,283.6,300.093Z" transform="translate(148.287 1781.911)" fill="#b7b7b7"/>
      <path id="Path_13409" data-name="Path 13409" d="M63.6,301.457a2.728,2.728,0,1,0-2.728-2.728A2.731,2.731,0,0,0,63.6,301.457Zm0-4.093a1.364,1.364,0,1,1-1.364,1.364A1.366,1.366,0,0,1,63.6,297.364Z" transform="translate(353.281 1781.911)" fill="#b7b7b7"/>
      <path id="Path_13410" data-name="Path 13410" d="M167.009,306h-5.457a.682.682,0,1,0,0,1.364h5.457a.682.682,0,1,0,0-1.364Z" transform="translate(260.102 1772.593)" fill="#b7b7b7"/>
      <path id="Path_13411" data-name="Path 13411" d="M167.009,346h-5.457a.682.682,0,0,0,0,1.364h5.457a.682.682,0,0,0,0-1.364Z" transform="translate(260.102 1735.321)" fill="#b7b7b7"/>
    </g>
    <g id="Group_8580" data-name="Group 8580" transform="translate(-314 -272.49)">
      <rect id="Rectangle_3374" data-name="Rectangle 3374" width="1.181" height="1.153" transform="translate(658.949 2075.942) rotate(-12.516)" fill="#b7b7b7"/>
      <path id="Path_13412" data-name="Path 13412" d="M32.272,16.8v-2.97H28.238v.785L21.9,11.183v-4.5a4.062,4.062,0,0,0-.079-.791l-.634-3.167a3.388,3.388,0,0,0-6.644,0l-.634,3.167a4.112,4.112,0,0,0-.078.791v4.5L7.492,14.617v-.786H3.458V16.8L0,18.674V21.9H1.2l12.629-2.2v4.563a14.369,14.369,0,0,0,.62,4.141L8.644,32.551v3.178H9.867l6.467-1.617.539,1.617h1.983l.539-1.617,6.4,1.6,1.292.017V32.551l-5.806-4.146a14.362,14.362,0,0,0,.62-4.141V19.7l12.58,2.188,1.251.009V18.674ZM29.39,14.983h1.729v1.194l-1.729-.936Zm-24.78,0H6.339v.257l-1.729.936ZM1.153,20.738V19.36l12.678-6.868v3.757L6.214,17.942l.25,1.125,7.367-1.636v1.1ZM9.8,34.559V33.145l5.02-3.584,1.152,3.456Zm8.229.018H17.7l-2.04-6.122a13.238,13.238,0,0,1-.68-4.191V6.681a2.866,2.866,0,0,1,.056-.565l.634-3.167a2.235,2.235,0,0,1,4.383,0l.634,3.166a2.935,2.935,0,0,1,.055.566V24.265a13.234,13.234,0,0,1-.68,4.191Zm7.907-.018-6.172-1.543,1.152-3.456,5.02,3.585Zm8.644-13.821L21.9,18.533v-1.1l7.366,1.637.25-1.125L21.9,16.25V12.493l12.678,6.868Z" transform="translate(655.041 2057.489)" fill="#b7b7b7"/>
      <rect id="Rectangle_3375" data-name="Rectangle 3375" width="1.153" height="1.181" transform="translate(685.461 2076.812) rotate(-77.473)" fill="#b7b7b7"/>
    </g>
  </g>
</svg>
